<svg width="18" height="18" viewBox="0 0 18 18" fill="none" xmlns="http://www.w3.org/2000/svg">
<path d="M16.5884 1.41171H15.3528V1.05879C15.3528 0.47496 14.8778 0 14.294 0C13.7101 0 13.2352 0.47496 13.2352 1.05879V1.41171H11.8235V1.05879C11.8235 0.47496 11.3485 0 10.7647 0C10.1809 0 9.70589 0.47496 9.70589 1.05879V1.41171H8.29418V1.05879C8.29418 0.47496 7.81922 0 7.2354 0C6.65157 0 6.17661 0.47496 6.17661 1.05879V1.41171H4.7649V1.05879C4.7649 0.47496 4.28994 0 3.70611 0C3.12228 0 2.64732 0.47496 2.64732 1.05879V1.41171H1.41171C0.63351 1.41171 0 2.04522 0 2.82342V16.5883C0 17.3665 0.63351 18 1.41171 18H16.5883C17.3665 18 18 17.3665 18 16.5883V13.2351C18 13.04 17.8422 12.8822 17.6471 12.8822C17.452 12.8822 17.2942 13.04 17.2942 13.2351V16.5883C17.2942 16.9777 16.9778 17.2941 16.5883 17.2941H1.41173C1.02227 17.2941 0.705883 16.9777 0.705883 16.5883V5.2939H3.42403C3.61913 5.2939 3.77695 5.13607 3.77695 4.94098C3.77695 4.74588 3.61912 4.58805 3.42403 4.58805H0.705883V2.82342C0.705883 2.43396 1.02227 2.11757 1.41173 2.11757H2.64734V2.4705C2.64734 3.05432 3.1223 3.52928 3.70613 3.52928C4.28996 3.52928 4.76492 3.05432 4.76492 2.4705V2.11757H6.17663V2.4705C6.17663 3.05432 6.65159 3.52928 7.23541 3.52928C7.81924 3.52928 8.2942 3.05432 8.2942 2.4705V2.11757H9.70591V2.4705C9.70591 3.05432 10.1809 3.52928 10.7647 3.52928C11.3485 3.52928 11.8235 3.05432 11.8235 2.4705V2.11757H13.2352V2.4705C13.2352 3.05432 13.7102 3.52928 14.294 3.52928C14.8778 3.52928 15.3528 3.05432 15.3528 2.4705V2.11757H16.5884C16.9778 2.11757 17.2942 2.43396 17.2942 2.82342V4.58805H4.83577C4.64067 4.58805 4.48285 4.74588 4.48285 4.94098C4.48285 5.13607 4.64068 5.2939 4.83577 5.2939H17.2942V11.8234C17.2942 12.0185 17.4521 12.1763 17.6472 12.1763C17.8423 12.1763 18.0001 12.0184 18.0001 11.8234V2.82342C18.0001 2.04522 17.3666 1.41171 16.5884 1.41171ZM4.0592 2.4705C4.0592 2.66487 3.90064 2.82342 3.70628 2.82342C3.51191 2.82342 3.35336 2.66486 3.35336 2.4705V1.05879C3.35336 0.864415 3.51192 0.705864 3.70628 0.705864C3.90065 0.705864 4.0592 0.864426 4.0592 1.05879V2.4705ZM7.58843 2.4705C7.58843 2.66487 7.42987 2.82342 7.23551 2.82342C7.04114 2.82342 6.88258 2.66486 6.88258 2.4705V1.05879C6.88258 0.864415 7.04115 0.705864 7.23551 0.705864C7.42988 0.705864 7.58843 0.864426 7.58843 1.05879V2.4705ZM11.1177 2.4705C11.1177 2.66487 10.9591 2.82342 10.7647 2.82342C10.5704 2.82342 10.4118 2.66486 10.4118 2.4705V1.05879C10.4118 0.864415 10.5704 0.705864 10.7647 0.705864C10.9591 0.705864 11.1177 0.864426 11.1177 1.05879V2.4705ZM14.6469 2.4705C14.6469 2.66487 14.4883 2.82342 14.294 2.82342C14.0996 2.82342 13.941 2.66486 13.941 2.4705V1.05879C13.941 0.864415 14.0996 0.705864 14.294 0.705864C14.4883 0.705864 14.6469 0.864426 14.6469 1.05879V2.4705Z" fill="#212529"/>
<path d="M5.11802 6.70546C5.11802 6.51036 4.96019 6.35254 4.7651 6.35254H2.6476C2.4525 6.35254 2.29468 6.51037 2.29468 6.70546V8.82296C2.29468 9.01806 2.45251 9.17588 2.6476 9.17588H4.7651C4.9602 9.17588 5.11802 9.01805 5.11802 8.82296V6.70546ZM4.41218 8.47009H3.00047V7.05838H4.41218V8.47009Z" fill="#212529"/>
<path d="M8.6472 6.70546C8.6472 6.51036 8.48937 6.35254 8.29427 6.35254H6.17678C5.98167 6.35254 5.82385 6.51037 5.82385 6.70546V8.82296C5.82385 9.01806 5.98168 9.17588 6.17678 9.17588H8.29427C8.48938 9.17588 8.6472 9.01805 8.6472 8.82296V6.70546ZM7.94135 8.47009H6.52964V7.05838H7.94135V8.47009Z" fill="#212529"/>
<path d="M12.1765 6.70546C12.1765 6.51036 12.0187 6.35254 11.8236 6.35254H9.70607C9.51097 6.35254 9.35315 6.51037 9.35315 6.70546V8.82296C9.35315 9.01806 9.51098 9.17588 9.70607 9.17588H11.8236C12.0187 9.17588 12.1765 9.01805 12.1765 8.82296V6.70546ZM11.4706 8.47009H10.0589V7.05838H11.4706V8.47009Z" fill="#212529"/>
<path d="M15.7058 6.70546C15.7058 6.51036 15.548 6.35254 15.3529 6.35254H13.2354C13.0403 6.35254 12.8824 6.51037 12.8824 6.70546V8.82296C12.8824 9.01806 13.0403 9.17588 13.2354 9.17588H15.3529C15.548 9.17588 15.7058 9.01805 15.7058 8.82296V6.70546ZM14.9999 8.47009H13.5882V7.05838H14.9999V8.47009Z" fill="#212529"/>
<path d="M5.11802 10.2357C5.11802 10.0406 4.96019 9.88281 4.7651 9.88281H2.6476C2.4525 9.88281 2.29468 10.0406 2.29468 10.2357V12.3532C2.29468 12.5483 2.45251 12.7062 2.6476 12.7062H4.7651C4.9602 12.7062 5.11802 12.5483 5.11802 12.3532V10.2357ZM4.41218 12.0004H3.00047V10.5887H4.41218V12.0004Z" fill="#212529"/>
<path d="M8.6472 10.2357C8.6472 10.0406 8.48937 9.88281 8.29427 9.88281H6.17678C5.98167 9.88281 5.82385 10.0406 5.82385 10.2357V12.3532C5.82385 12.5483 5.98168 12.7062 6.17678 12.7062H8.29427C8.48938 12.7062 8.6472 12.5483 8.6472 12.3532V10.2357ZM7.94135 12.0004H6.52964V10.5887H7.94135V12.0004Z" fill="#212529"/>
<path d="M12.1765 10.2357C12.1765 10.0406 12.0187 9.88281 11.8236 9.88281H9.70607C9.51097 9.88281 9.35315 10.0406 9.35315 10.2357V12.3532C9.35315 12.5483 9.51098 12.7062 9.70607 12.7062H11.8236C12.0187 12.7062 12.1765 12.5483 12.1765 12.3532V10.2357ZM11.4706 12.0004H10.0589V10.5887H11.4706V12.0004Z" fill="#212529"/>
<path d="M15.7058 10.2357C15.7058 10.0406 15.548 9.88281 15.3529 9.88281H13.2354C13.0403 9.88281 12.8824 10.0406 12.8824 10.2357V12.3532C12.8824 12.5483 13.0403 12.7062 13.2354 12.7062H15.3529C15.548 12.7062 15.7058 12.5483 15.7058 12.3532V10.2357ZM14.9999 12.0004H13.5882V10.5887H14.9999V12.0004Z" fill="#212529"/>
<path d="M4.76498 13.4121H2.64748C2.45238 13.4121 2.29456 13.5699 2.29456 13.765V15.8825C2.29456 16.0776 2.45239 16.2355 2.64748 16.2355H4.76498C4.96008 16.2355 5.1179 16.0776 5.1179 15.8825V13.765C5.1179 13.5699 4.95934 13.4121 4.76498 13.4121ZM4.41206 15.5296H3.00035V14.1179H4.41206V15.5296Z" fill="#212529"/>
<path d="M8.2944 13.4121H6.1769C5.9818 13.4121 5.82397 13.5699 5.82397 13.765V15.8825C5.82397 16.0776 5.9818 16.2355 6.1769 16.2355H8.2944C8.4895 16.2355 8.64732 16.0776 8.64732 15.8825V13.765C8.64732 13.5699 8.48949 13.4121 8.2944 13.4121ZM7.94147 15.5296H6.52976V14.1179H7.94147V15.5296Z" fill="#212529"/>
<path d="M11.8236 13.4121H9.70607C9.51097 13.4121 9.35315 13.5699 9.35315 13.765V15.8825C9.35315 16.0776 9.51098 16.2355 9.70607 16.2355H11.8236C12.0187 16.2355 12.1765 16.0776 12.1765 15.8825V13.765C12.1765 13.5699 12.0187 13.4121 11.8236 13.4121ZM11.4706 15.5296H10.0589V14.1179H11.4706V15.5296Z" fill="#212529"/>
<path d="M15.3529 13.4121H13.2354C13.0403 13.4121 12.8824 13.5699 12.8824 13.765V15.8825C12.8824 16.0776 13.0403 16.2355 13.2354 16.2355H15.3529C15.548 16.2355 15.7058 16.0776 15.7058 15.8825V13.765C15.7058 13.5699 15.548 13.4121 15.3529 13.4121ZM14.9999 15.5296H13.5882V14.1179H14.9999V15.5296Z" fill="#212529"/>
</svg>
