<svg width="32" height="32" viewBox="0 0 32 32" fill="none" xmlns="http://www.w3.org/2000/svg">
<rect width="32" height="32" rx="6" fill="#1F74BB"/>
<path fill-rule="evenodd" clip-rule="evenodd" d="M16.6411 24.3589V22.3644C16.6411 22.0105 16.3539 21.7233 16 21.7233C15.6461 21.7233 15.3589 22.0105 15.3589 22.3644V24.3589C15.3589 24.7128 15.6461 25 16 25C16.3539 25 16.6411 24.7128 16.6411 24.3589ZM20.0474 20.9539L21.4572 22.3637C21.7079 22.6144 22.1137 22.6144 22.3644 22.3637C22.6144 22.1137 22.6144 21.7072 22.3644 21.4572L20.9539 20.0467C20.7039 19.7967 20.2974 19.7967 20.0474 20.0467C19.7967 20.2974 19.7967 20.7032 20.0474 20.9539ZM10.5428 22.3637L11.9533 20.9539C12.2033 20.7032 12.2033 20.2974 11.9533 20.0467C11.7032 19.7967 11.2968 19.7967 11.0467 20.0467L9.63627 21.4572C9.38624 21.7072 9.38624 22.1137 9.63627 22.3637C9.88631 22.6144 10.2928 22.6144 10.5428 22.3637ZM15.9833 11.5365C13.4868 11.5365 11.4596 13.5638 11.4596 16.0609C11.4596 18.5574 13.4868 20.5846 15.9833 20.5846C18.4805 20.5846 20.5077 18.5574 20.5077 16.0609C20.5077 13.5638 18.4805 11.5365 15.9833 11.5365ZM22.3644 16.6411H24.3589C24.7128 16.6411 25 16.3539 25 16C25 15.6461 24.7128 15.3589 24.3589 15.3589H22.3644C22.0105 15.3589 21.7233 15.6461 21.7233 16C21.7233 16.3539 22.0105 16.6411 22.3644 16.6411ZM7.64112 16.6411H9.63563C9.98953 16.6411 10.2767 16.3539 10.2767 16C10.2767 15.6461 9.98953 15.3589 9.63563 15.3589H7.64112C7.28722 15.3589 7 15.6461 7 16C7 16.3539 7.28722 16.6411 7.64112 16.6411ZM9.63627 10.5428L11.0467 11.9533C11.2968 12.2033 11.7032 12.2033 11.9533 11.9533C12.2033 11.7026 12.2033 11.2968 11.9533 11.0461L10.5428 9.63627C10.2928 9.3856 9.88631 9.3856 9.63627 9.63627C9.38624 9.88631 9.38624 10.2928 9.63627 10.5428ZM20.9539 11.9533L22.3644 10.5428C22.6144 10.2928 22.6144 9.88631 22.3644 9.63627C22.1137 9.3856 21.7079 9.3856 21.4572 9.63627L20.0474 11.0461C19.7967 11.2968 19.7967 11.7026 20.0474 11.9533C20.2974 12.2033 20.7039 12.2033 20.9539 11.9533ZM16.6411 9.63563V7.64112C16.6411 7.28722 16.3539 7 16 7C15.6461 7 15.3589 7.28722 15.3589 7.64112V9.63563C15.3589 9.98953 15.6461 10.2767 16 10.2767C16.3539 10.2767 16.6411 9.98953 16.6411 9.63563Z" fill="white"/>
</svg>
