<svg width="24" height="24" viewBox="0 0 24 24" fill="none" xmlns="http://www.w3.org/2000/svg">
<g clip-path="url(#clip0_1920_17277)">
<path fill-rule="evenodd" clip-rule="evenodd" d="M24 21.5703C24 20.2293 22.9113 19.1406 21.5703 19.1406H2.42967C1.08872 19.1406 0 20.2293 0 21.5703C0 22.9113 1.08872 24 2.42967 24H21.5703C22.9113 24 24 22.9113 24 21.5703Z" fill="#1F74BB"/>
<path fill-rule="evenodd" clip-rule="evenodd" d="M9.57037 8.87226V2.42714C9.57037 1.08666 10.657 0 11.9975 0H12.0026C13.3431 0 14.4297 1.08666 14.4297 2.42709V8.87231C14.8302 8.56973 15.3207 8.40337 15.8284 8.40337C16.4437 8.40342 17.0338 8.64787 17.4688 9.08297L17.4691 9.0833C18.3751 9.9893 18.3751 11.4581 17.4692 12.3641L14.1696 15.6639C13.5943 16.2393 12.814 16.5625 12.0004 16.5625C11.1868 16.5625 10.4064 16.2393 9.83109 15.664C9.83109 15.664 7.64447 13.4776 6.531 12.3641C5.62504 11.4581 5.62509 9.98925 6.53109 9.08325C6.53119 9.08316 6.53133 9.08302 6.53142 9.08287C6.96651 8.64783 7.55662 8.40337 8.17195 8.40337C8.67956 8.40342 9.17001 8.56978 9.57037 8.87226Z" fill="#1F74BB"/>
</g>
<defs>
<clipPath id="clip0_1920_17277">
<rect width="24" height="24" fill="white"/>
</clipPath>
</defs>
</svg>
