<svg width="32" height="32" viewBox="0 0 32 32" fill="none" xmlns="http://www.w3.org/2000/svg">
<rect width="32" height="32" rx="6" fill="#1F74BB"/>
<g clip-path="url(#clip0_2522_23344)">
<path fill-rule="evenodd" clip-rule="evenodd" d="M16.6152 10.1641C16.6152 10.0087 16.4893 9.88281 16.334 9.88281C16.1787 9.88281 16.0527 10.0087 16.0527 10.1641V11.9273C16.0527 12.0826 16.1787 12.2085 16.334 12.2085C16.4893 12.2085 16.6152 12.0826 16.6152 11.9273V10.1641ZM11.9622 17.4993C12.451 15.5395 14.2228 14.0876 16.334 14.0876C18.4452 14.0876 20.217 15.5395 20.7057 17.4993H11.9622V17.4993ZM15.6252 22.1118C15.7805 22.1118 15.9064 21.9859 15.9064 21.8306C15.9064 21.6753 15.7805 21.5493 15.6252 21.5493H12.5194C12.3641 21.5493 12.2381 21.6753 12.2381 21.8306C12.2381 21.9859 12.3641 22.1118 12.5194 22.1118H15.6252ZM22.2465 20.3681C22.4018 20.3681 22.5278 20.2422 22.5278 20.0868C22.5278 19.9315 22.4018 19.8056 22.2465 19.8056H18.595C18.4397 19.8056 18.3137 19.9315 18.3137 20.0868C18.3137 20.2422 18.4397 20.3681 18.595 20.3681H22.2465ZM20.1486 22.1118C20.3039 22.1118 20.4298 21.9859 20.4298 21.8306C20.4298 21.6753 20.3039 21.5493 20.1486 21.5493H17.3962C17.2409 21.5493 17.1149 21.6753 17.1149 21.8306C17.1149 21.9859 17.2409 22.1118 17.3962 22.1118H20.1486ZM16.6878 20.3681C16.8431 20.3681 16.969 20.2422 16.969 20.0868C16.969 19.9315 16.8431 19.8056 16.6878 19.8056H10.4214C10.2661 19.8056 10.1402 19.9315 10.1402 20.0868C10.1402 20.2422 10.2661 20.3681 10.4214 20.3681H16.6878ZM25.0527 18.6243C25.2081 18.6243 25.334 18.4984 25.334 18.3431C25.334 18.1877 25.2081 18.0618 25.0527 18.0618H7.61523C7.45991 18.0618 7.33398 18.1877 7.33398 18.3431C7.33398 18.4984 7.45991 18.6243 7.61523 18.6243H25.0527ZM23.5578 14.4964C23.6919 14.4187 23.7376 14.247 23.66 14.113C23.5823 13.9789 23.4107 13.9331 23.2766 14.0108L21.7496 14.8924C21.6155 14.9701 21.5698 15.1417 21.6474 15.2758C21.7251 15.4099 21.8968 15.4556 22.0308 15.378L23.5578 14.4964ZM20.6663 11.3993C20.7433 11.2653 20.6971 11.0941 20.563 11.017C20.4289 10.94 20.2577 10.9862 20.1806 11.1203L19.2991 12.6473C19.222 12.7814 19.2683 12.9526 19.4024 13.0296C19.5364 13.1067 19.7076 13.0604 19.7847 12.9263L20.6663 11.3993ZM12.4873 11.1192C12.4096 10.9851 12.238 10.9394 12.1039 11.0171C11.9698 11.0947 11.9241 11.2664 12.0017 11.4005L12.8833 12.9274C12.961 13.0615 13.1326 13.1073 13.2667 13.0296C13.4008 12.952 13.4465 12.7803 13.3689 12.6462L12.4873 11.1192ZM9.3914 14.0108C9.25731 13.9331 9.08564 13.9788 9.00798 14.1129C8.93032 14.247 8.97606 14.4187 9.11015 14.4963L10.6371 15.3779C10.7712 15.4556 10.9429 15.4099 11.0205 15.2758C11.0982 15.1417 11.0525 14.97 10.9184 14.8924L9.3914 14.0108Z" fill="white"/>
</g>
<defs>
<clipPath id="clip0_2522_23344">
<rect width="18" height="18" fill="white" transform="matrix(-1 0 0 1 25.334 7)"/>
</clipPath>
</defs>
</svg>
