<svg width="29" height="19" viewBox="0 0 29 19" fill="none" xmlns="http://www.w3.org/2000/svg">
<path d="M17.537 9.23002C17.537 9.92226 17.3317 10.5989 16.9471 11.1745C16.5625 11.7501 16.0159 12.1987 15.3764 12.4636C14.7368 12.7285 14.0331 12.7978 13.3542 12.6628C12.6752 12.5277 12.0516 12.1944 11.5621 11.7049C11.0726 11.2154 10.7393 10.5918 10.6042 9.91284C10.4692 9.23391 10.5385 8.53017 10.8034 7.89063C11.0683 7.25109 11.5169 6.70446 12.0925 6.31988C12.668 5.9353 13.3447 5.73002 14.037 5.73002C14.9652 5.73002 15.8555 6.09877 16.5118 6.75515C17.1682 7.41153 17.537 8.30177 17.537 9.23002ZM27.537 10.85L27.427 11.01C26.0046 13.2895 24.0255 15.1694 21.676 16.4728C19.3264 17.7762 16.6838 18.46 13.997 18.46C11.3101 18.46 8.66752 17.7762 6.31798 16.4728C3.96844 15.1694 1.98931 13.2895 0.566971 11.01L0.456972 10.85C0.158154 10.3625 0 9.80184 0 9.23002C0 8.65821 0.158154 8.09754 0.456972 7.61002L0.566971 7.45002C1.98931 5.17054 3.96844 3.2906 6.31798 1.98724C8.66752 0.683882 11.3101 0 13.997 0C16.6838 0 19.3264 0.683882 21.676 1.98724C24.0255 3.2906 26.0046 5.17054 27.427 7.45002L27.537 7.61002C27.8418 8.09385 28.0069 8.65257 28.014 9.22438C28.021 9.7962 27.8698 10.3588 27.577 10.85H27.537ZM19.537 9.23002C19.537 8.14223 19.2144 7.07886 18.6101 6.17439C18.0057 5.26992 17.1467 4.56497 16.1417 4.14869C15.1367 3.7324 14.0309 3.62349 12.964 3.83571C11.8971 4.04792 10.9171 4.57175 10.1479 5.34094C9.37869 6.11013 8.85487 7.09013 8.64265 8.15703C8.43043 9.22392 8.53935 10.3298 8.95563 11.3348C9.37192 12.3398 10.0769 13.1988 10.9813 13.8031C11.8858 14.4075 12.9492 14.73 14.037 14.73C15.4949 14.7274 16.8923 14.1471 17.9231 13.1162C18.954 12.0853 19.5343 10.6879 19.537 9.23002Z" fill="#1F74BB"/>
</svg>
