<svg width="32" height="32" viewBox="0 0 32 32" fill="none" xmlns="http://www.w3.org/2000/svg">
<rect width="32" height="32" rx="6" fill="#1F74BB"/>
<g clip-path="url(#clip0_2522_23370)">
<path d="M18.8529 14.6315L19.9522 14.9074C19.9597 14.909 19.9663 14.9131 19.9711 14.919C19.9759 14.9248 19.9785 14.9322 19.9785 14.9398C19.9785 14.9474 19.9759 14.9547 19.9711 14.9606C19.9663 14.9665 19.9597 14.9706 19.9522 14.9721L18.8529 15.2481C18.6712 15.2931 18.5052 15.3869 18.3728 15.5193C18.2404 15.6517 18.1467 15.8177 18.1016 15.9994L17.8256 17.0987C17.8241 17.1062 17.82 17.1128 17.8141 17.1176C17.8082 17.1224 17.8009 17.125 17.7933 17.125C17.7857 17.125 17.7784 17.1224 17.7725 17.1176C17.7666 17.1128 17.7625 17.1062 17.761 17.0987L17.485 15.9994C17.4399 15.8177 17.3462 15.6517 17.2138 15.5193C17.0814 15.3869 16.9154 15.2931 16.7337 15.2481L15.6333 14.9721C15.6259 14.9706 15.6192 14.9665 15.6144 14.9606C15.6096 14.9547 15.607 14.9474 15.607 14.9398C15.607 14.9322 15.6096 14.9248 15.6144 14.919C15.6192 14.9131 15.6259 14.909 15.6333 14.9074L16.7326 14.6315C16.9144 14.5864 17.0804 14.4927 17.2127 14.3603C17.3451 14.2279 17.4389 14.0619 17.4839 13.8802L17.7599 12.7808C17.7615 12.7734 17.7655 12.7668 17.7714 12.762C17.7773 12.7572 17.7847 12.7546 17.7922 12.7546C17.7998 12.7546 17.8072 12.7572 17.8131 12.762C17.819 12.7668 17.823 12.7734 17.8246 12.7808L18.1006 13.8802C18.1457 14.062 18.2396 14.2281 18.3722 14.3605C18.5048 14.4929 18.671 14.5866 18.8529 14.6315Z" fill="white"/>
<path d="M23.1051 11.1768L23.3072 11.9822C23.3401 12.1152 23.4087 12.2367 23.5055 12.3336C23.6023 12.4306 23.7237 12.4993 23.8567 12.5324L24.6632 12.7346C24.6684 12.7359 24.6731 12.7389 24.6765 12.7432C24.6798 12.7474 24.6816 12.7527 24.6816 12.7581C24.6816 12.7635 24.6798 12.7688 24.6765 12.7731C24.6731 12.7773 24.6684 12.7804 24.6632 12.7817L23.8567 12.9845C23.7235 13.0174 23.6019 13.0861 23.5049 13.183C23.4078 13.28 23.3391 13.4016 23.3061 13.5347L23.104 14.3401C23.1028 14.3456 23.0999 14.3505 23.0955 14.354C23.0912 14.3575 23.0858 14.3594 23.0803 14.3594C23.0747 14.3594 23.0693 14.3575 23.065 14.354C23.0607 14.3505 23.0577 14.3456 23.0565 14.3401L22.8544 13.5347C22.8215 13.4017 22.7529 13.2802 22.6561 13.1832C22.5593 13.0863 22.4379 13.0176 22.3049 12.9845L21.5012 12.782C21.496 12.7807 21.4913 12.7777 21.4879 12.7734C21.4846 12.7692 21.4828 12.7639 21.4828 12.7585C21.4828 12.753 21.4846 12.7478 21.4879 12.7435C21.4913 12.7392 21.496 12.7362 21.5012 12.7349L22.3067 12.5328C22.4398 12.4998 22.5615 12.4311 22.6585 12.3341C22.7555 12.2371 22.8242 12.1154 22.8572 11.9822L23.0594 11.1768C23.061 11.1721 23.0641 11.168 23.0682 11.1651C23.0723 11.1622 23.0772 11.1607 23.0822 11.1607C23.0872 11.1607 23.0921 11.1622 23.0962 11.1651C23.1003 11.168 23.1034 11.1721 23.1051 11.1768Z" fill="white"/>
<path d="M16.1666 11.933L15.9645 11.1276C15.9315 10.9944 15.8628 10.8727 15.7657 10.7757C15.6687 10.6787 15.5471 10.61 15.4139 10.577L14.6085 10.3749C14.6032 10.3736 14.5985 10.3705 14.5952 10.3663C14.5919 10.362 14.59 10.3567 14.59 10.3513C14.59 10.3459 14.5919 10.3406 14.5952 10.3363C14.5985 10.3321 14.6032 10.329 14.6085 10.3277L15.4139 10.1249C15.5471 10.092 15.6687 10.0234 15.7658 9.9264C15.8628 9.82944 15.9315 9.70784 15.9645 9.5747L16.1666 8.76927C16.1679 8.764 16.1709 8.75932 16.1752 8.75598C16.1795 8.75263 16.1847 8.75081 16.1902 8.75081C16.1956 8.75081 16.2009 8.75263 16.2051 8.75598C16.2094 8.75932 16.2124 8.764 16.2137 8.76927L16.4162 9.5747C16.4492 9.7079 16.518 9.82955 16.6151 9.92652C16.7121 10.0235 16.8339 10.0921 16.9671 10.1249L17.7726 10.3274C17.7778 10.3287 17.7825 10.3317 17.7859 10.336C17.7892 10.3403 17.791 10.3455 17.791 10.351C17.791 10.3564 17.7892 10.3616 17.7859 10.3659C17.7825 10.3702 17.7778 10.3732 17.7726 10.3745L16.9671 10.577C16.834 10.61 16.7124 10.6787 16.6154 10.7757C16.5185 10.8727 16.4498 10.9944 16.4169 11.1276L16.2144 11.933C16.2135 11.9386 16.2105 11.9437 16.2062 11.9474C16.2018 11.9511 16.1962 11.9531 16.1905 11.9531C16.1848 11.9531 16.1793 11.9511 16.1749 11.9474C16.1705 11.9437 16.1676 11.9386 16.1666 11.933Z" fill="white"/>
<path d="M23.3535 15.9922V15.9988C23.3535 20.8082 19.288 24.6694 14.4066 24.3309C10.2873 24.0496 6.94996 20.7098 6.66555 16.5919C6.32875 11.7105 10.1896 7.64466 14.9993 7.64466H15.0127C15.2739 7.64466 15.3382 8.00642 15.0964 8.10627C13.7886 8.64585 12.7086 9.62245 12.0405 10.8695C11.3725 12.1165 11.1578 13.5567 11.4331 14.9443C11.7084 16.332 12.4566 17.5811 13.5501 18.4786C14.6436 19.3762 16.0146 19.8665 17.4293 19.866C19.6614 19.866 22.0541 17.0402 22.9566 15.8582C22.9848 15.8217 23.0236 15.7948 23.0678 15.7815C23.1119 15.7681 23.1591 15.7688 23.2029 15.7836C23.2466 15.7983 23.2846 15.8263 23.3116 15.8637C23.3386 15.9011 23.3533 15.946 23.3535 15.9922Z" fill="white"/>
</g>
<defs>
<clipPath id="clip0_2522_23370">
<rect width="18" height="18" fill="white" transform="matrix(0 -1 -1 0 24.666 25)"/>
</clipPath>
</defs>
</svg>
