<svg width="22" height="18" viewBox="0 0 22 18" fill="none" xmlns="http://www.w3.org/2000/svg">
<path d="M20.25 15.75V14.25C20.25 12.8521 19.2939 11.6775 18 11.3445M15.375 2.46807C16.4744 2.91311 17.25 3.99098 17.25 5.25C17.25 6.50902 16.4744 7.58689 15.375 8.03193M16.5 15.75C16.5 14.3522 16.5 13.6533 16.2716 13.1019C15.9672 12.3669 15.3831 11.7828 14.6481 11.4784C14.0967 11.25 13.3978 11.25 12 11.25H9.75C8.35218 11.25 7.65326 11.25 7.10195 11.4784C6.36687 11.7828 5.78284 12.3669 5.47836 13.1019C5.25 13.6533 5.25 14.3522 5.25 15.75M13.875 5.25C13.875 6.90685 12.5319 8.25 10.875 8.25C9.21815 8.25 7.875 6.90685 7.875 5.25C7.875 3.59315 9.21815 2.25 10.875 2.25C12.5319 2.25 13.875 3.59315 13.875 5.25Z" stroke="#1A2B3C" stroke-width="1.5" stroke-linecap="round" stroke-linejoin="round"/>
<g clip-path="url(#clip0_2301_4246)">
<path d="M1.5 15.75V14.25C1.5 12.8521 2.45608 11.6775 3.75 11.3445M6.375 2.46807C5.27556 2.91311 4.5 3.99098 4.5 5.25C4.5 6.50902 5.27556 7.58689 6.375 8.03193M5.25 15.75C5.25 14.3522 5.25 13.6533 5.47836 13.1019C5.78284 12.3669 6.36687 11.7828 7.10195 11.4784C7.65326 11.25 8.35217 11.25 9.75 11.25H12C13.3978 11.25 14.0967 11.25 14.6481 11.4784C15.3831 11.7828 15.9672 12.3669 16.2716 13.1019C16.5 13.6533 16.5 14.3522 16.5 15.75M7.875 5.25C7.875 6.90685 9.21815 8.25 10.875 8.25C12.5319 8.25 13.875 6.90685 13.875 5.25C13.875 3.59315 12.5319 2.25 10.875 2.25C9.21815 2.25 7.875 3.59315 7.875 5.25Z" stroke="#1A2B3C" stroke-width="1.5" stroke-linecap="round" stroke-linejoin="round"/>
</g>
<defs>
<clipPath id="clip0_2301_4246">
<rect width="7.5" height="15" fill="white" transform="matrix(-1 0 0 1 7.5 1.5)"/>
</clipPath>
</defs>
</svg>
