<svg width="38" height="38" viewBox="0 0 38 38" fill="none" xmlns="http://www.w3.org/2000/svg">
<rect width="38" height="38" rx="19" fill="#112740"/>
<g clip-path="url(#clip0_2301_4177)">
<path fill-rule="evenodd" clip-rule="evenodd" d="M11.292 15.666V12.3327C11.292 11.7577 11.7587 11.291 12.3337 11.291H17.3337C17.6787 11.291 17.9587 11.011 17.9587 10.666C17.9587 10.321 17.6787 10.041 17.3337 10.041C17.3337 10.041 14.3087 10.041 12.3337 10.041C11.0678 10.041 10.042 11.0668 10.042 12.3327V15.666C10.042 16.011 10.322 16.291 10.667 16.291C11.012 16.291 11.292 16.011 11.292 15.666Z" fill="white"/>
<path fill-rule="evenodd" clip-rule="evenodd" d="M26.7083 21.916V25.666C26.7083 26.241 26.2417 26.7077 25.6667 26.7077H21.5C21.155 26.7077 20.875 26.9877 20.875 27.3327C20.875 27.6777 21.155 27.9577 21.5 27.9577C21.5 27.9577 23.9425 27.9577 25.6667 27.9577C26.9325 27.9577 27.9583 26.9318 27.9583 25.666V21.916C27.9583 21.571 27.6783 21.291 27.3333 21.291C26.9883 21.291 26.7083 21.571 26.7083 21.916Z" fill="white"/>
<path fill-rule="evenodd" clip-rule="evenodd" d="M14.627 21.1094C12.097 21.1094 10.042 23.1644 10.042 25.6952C10.042 26.3444 10.4512 26.9102 11.2037 27.2994C12.0345 27.7294 13.3295 27.9594 14.627 27.9594C15.9253 27.9594 17.2203 27.7294 18.0512 27.2994C18.8037 26.9102 19.2128 26.3444 19.2128 25.6952C19.2128 23.1644 17.1578 21.1094 14.627 21.1094ZM14.627 22.3594C16.4678 22.3594 17.9628 23.8544 17.9628 25.6952C17.9628 25.9219 17.7403 26.0527 17.477 26.1894C16.787 26.546 15.7053 26.7094 14.627 26.7094C13.5495 26.7094 12.4678 26.546 11.7778 26.1894C11.5145 26.0527 11.292 25.9219 11.292 25.6952C11.292 23.8544 12.7862 22.3594 14.627 22.3594Z" fill="white"/>
<path fill-rule="evenodd" clip-rule="evenodd" d="M14.6268 16.707C13.0676 16.707 11.8018 17.9729 11.8018 19.532C11.8018 21.0912 13.0676 22.357 14.6268 22.357C16.1859 22.357 17.4526 21.0912 17.4526 19.532C17.4526 17.9729 16.1859 16.707 14.6268 16.707ZM14.6268 17.957C15.4968 17.957 16.2026 18.6629 16.2026 19.532C16.2026 20.4012 15.4968 21.107 14.6268 21.107C13.7576 21.107 13.0518 20.4012 13.0518 19.532C13.0518 18.6629 13.7576 17.957 14.6268 17.957Z" fill="white"/>
<path fill-rule="evenodd" clip-rule="evenodd" d="M20.2972 19.2077H25.6672C26.473 19.2077 27.1255 18.5543 27.1255 17.7494C27.1255 16.2618 27.1255 13.3052 27.1255 13.3052C27.1255 13.1085 27.033 12.9227 26.8755 12.8052L23.3572 10.166C23.1347 9.99935 22.8289 9.99935 22.6072 10.166L19.0889 12.8052C18.9314 12.9227 18.8389 13.1085 18.8389 13.3052C18.8389 13.3052 18.8389 16.2618 18.8389 17.7494C18.8389 18.5543 19.4914 19.2077 20.2972 19.2077ZM25.6672 17.9577H20.2972C20.1814 17.9577 20.0889 17.8643 20.0889 17.7494V13.6177L22.9822 11.4477C22.9822 11.4468 25.8755 13.6177 25.8755 13.6177V17.7494C25.8755 17.8643 25.7822 17.9577 25.6672 17.9577Z" fill="white"/>
<path fill-rule="evenodd" clip-rule="evenodd" d="M27.7092 13.4303L23.3576 10.1661C23.1351 9.99945 22.8301 9.99945 22.6084 10.1653L18.2101 13.4528C17.9334 13.6586 17.8767 14.0511 18.0834 14.327C18.2901 14.6036 18.6817 14.6603 18.9584 14.4536L22.9817 11.447L26.9592 14.4303C27.235 14.637 27.6276 14.5811 27.8342 14.3053C28.0409 14.0295 27.9851 13.637 27.7092 13.4303Z" fill="white"/>
</g>
<defs>
<clipPath id="clip0_2301_4177">
<rect width="20" height="20" fill="white" transform="translate(9 9)"/>
</clipPath>
</defs>
</svg>
