<svg width="32" height="32" viewBox="0 0 32 32" fill="none" xmlns="http://www.w3.org/2000/svg">
<path d="M11.52 24.3749C11.5 24.3449 11.48 24.3149 11.46 24.2799C11.2447 23.8768 11.1493 23.4205 11.185 22.9649C10.9186 22.5813 10.7724 22.127 10.765 21.6599C10.7763 21.2005 10.9205 20.7542 11.18 20.3749C11.1438 19.9083 11.2483 19.4415 11.48 19.0349C11.5815 18.8551 11.7116 18.693 11.865 18.5549L3.58502 17.9199C2.49002 17.9199 2.00002 19.8049 2.00002 21.6699C1.98014 22.5423 2.11037 23.4116 2.38502 24.2399C2.65002 24.9449 3.05502 25.4149 3.62002 25.4149L11.26 24.8299L11.52 24.3749Z" fill="white"/>
<path d="M29.615 19.0998C29.35 18.3948 28.945 17.9248 28.38 17.9248L20.13 18.5598C20.2951 18.7049 20.4338 18.8774 20.54 19.0698C20.756 19.4691 20.8515 19.9224 20.815 20.3748C21.0815 20.7585 21.2277 21.2128 21.235 21.6798C21.2237 22.1392 21.0795 22.5855 20.82 22.9648C20.8563 23.4314 20.7518 23.8982 20.52 24.3048C20.5068 24.3292 20.4918 24.3526 20.475 24.3748L20.74 24.8298L28.38 25.4148C28.39 25.4148 28.405 25.4198 28.415 25.4198C29.51 25.4198 30 23.5348 30 21.6698C30.0199 20.7974 29.8897 19.9281 29.615 19.0998Z" fill="white"/>
<path d="M16 20.5098C15.7705 20.5098 15.5463 20.5778 15.3555 20.7053C15.1647 20.8327 15.0161 21.0139 14.9283 21.2259C14.8405 21.4378 14.8175 21.6711 14.8623 21.8961C14.907 22.1211 15.0175 22.3278 15.1797 22.49C15.342 22.6522 15.5487 22.7627 15.7737 22.8075C15.9987 22.8522 16.2319 22.8293 16.4439 22.7415C16.6559 22.6537 16.837 22.505 16.9645 22.3142C17.0919 22.1234 17.16 21.8992 17.16 21.6697C17.1597 21.3622 17.0375 21.0672 16.82 20.8497C16.6025 20.6323 16.3075 20.51 16 20.5098Z" fill="white"/>
<path d="M18.12 25.3347C18.495 25.1247 18.595 24.7497 18.805 24.4747C19.08 24.2647 19.455 24.1647 19.665 23.7897C19.8042 23.4423 19.8623 23.0678 19.835 22.6947C19.965 22.3797 20.24 22.1047 20.235 21.6696C20.24 21.2346 19.965 20.9596 19.835 20.6446C19.8602 20.2732 19.8021 19.9008 19.665 19.5546C19.455 19.1746 19.08 19.0746 18.805 18.8646C18.595 18.5896 18.495 18.2146 18.12 18.0046C17.7726 17.8654 17.3981 17.8073 17.025 17.8346C16.71 17.7046 16.435 17.4296 16 17.4346C15.565 17.4296 15.29 17.7046 14.975 17.8346C14.63 17.8846 14.255 17.7796 13.885 18.0046C13.505 18.2146 13.405 18.5896 13.195 18.8646C12.92 19.0746 12.545 19.1746 12.335 19.5496C12.1957 19.897 12.1376 20.2715 12.165 20.6446C12.035 20.9596 11.76 21.2346 11.765 21.6696C11.76 22.1047 12.035 22.3797 12.165 22.6947C12.1401 23.0677 12.1981 23.4417 12.335 23.7897C12.545 24.1647 12.92 24.2647 13.195 24.4747C13.405 24.7497 13.505 25.1247 13.88 25.3347C14.2273 25.4739 14.6018 25.532 14.975 25.5047C15.29 25.6347 15.565 25.9097 16 25.9047C16.435 25.9097 16.71 25.6347 17.025 25.5047C17.3981 25.532 17.7726 25.4739 18.12 25.3347ZM13.84 21.6697C13.84 21.2425 13.9666 20.8248 14.204 20.4696C14.4413 20.1144 14.7787 19.8376 15.1734 19.6741C15.5681 19.5106 16.0024 19.4678 16.4214 19.5512C16.8404 19.6345 17.2252 19.8402 17.5273 20.1423C17.8294 20.4444 18.0351 20.8293 18.1185 21.2483C18.2018 21.6673 18.159 22.1016 17.9955 22.4963C17.8321 22.8909 17.5552 23.2283 17.2 23.4656C16.8448 23.703 16.4272 23.8297 16 23.8297C15.4274 23.8287 14.8786 23.6008 14.4737 23.1959C14.0688 22.791 13.841 22.2422 13.84 21.6697Z" fill="white"/>
<path d="M19.725 25.0752C19.2759 25.3439 19.2879 25.8603 18.61 26.2053C18.2086 26.4258 17.7517 26.5248 17.2951 26.4903C17.1901 26.5503 17.0701 26.6203 16.9401 26.6803L18.1351 28.7503C18.1776 28.8242 18.2383 28.8859 18.3115 28.9297C18.3847 28.9734 18.4679 28.9977 18.5531 29.0002C18.6383 29.0027 18.7227 28.9834 18.7984 28.944C18.874 28.9046 18.9383 28.8465 18.9851 28.7753L19.5301 27.9503L20.5151 27.8903C20.6 27.8857 20.6822 27.8594 20.754 27.8138C20.8258 27.7683 20.8847 27.7051 20.9251 27.6303C20.9649 27.5546 20.9853 27.4702 20.9844 27.3846C20.9836 27.2991 20.9615 27.2151 20.9201 27.1403L19.725 25.0752Z" fill="white"/>
<path d="M12.2699 25.0752L11.0799 27.1402C11.0386 27.2144 11.0167 27.2979 11.0161 27.3828C11.0156 27.4678 11.0365 27.5515 11.0768 27.6262C11.1172 27.701 11.1757 27.7644 11.2471 27.8105C11.3184 27.8566 11.4002 27.884 11.4849 27.8902L12.4699 27.9502L13.0149 28.7752C13.0624 28.8456 13.1268 28.9029 13.2024 28.9416C13.2779 28.9804 13.362 28.9994 13.4468 28.9969C13.5317 28.9944 13.6145 28.9705 13.6876 28.9274C13.7607 28.8842 13.8217 28.8233 13.8649 28.7502L15.0599 26.6802C14.5172 26.3149 14.0872 26.6442 13.365 26.1902C12.7123 25.8667 12.7176 25.3282 12.2699 25.0752Z" fill="white"/>
<path d="M16 16C17.2856 16 18.5423 15.6188 19.6112 14.9046C20.6801 14.1903 21.5132 13.1752 22.0052 11.9874C22.4972 10.7997 22.6259 9.49279 22.3751 8.23192C22.1243 6.97104 21.5052 5.81285 20.5962 4.90381C19.6872 3.99477 18.529 3.3757 17.2681 3.1249C16.0072 2.87409 14.7003 3.00282 13.5126 3.49479C12.3248 3.98676 11.3097 4.81988 10.5954 5.8888C9.88122 6.95772 9.5 8.21442 9.5 9.5C9.5025 11.2231 10.1881 12.875 11.4066 14.0934C12.625 15.3119 14.2769 15.9975 16 16ZM15.5 5.805C15.5 5.67239 15.5527 5.54522 15.6464 5.45145C15.7402 5.35768 15.8674 5.305 16 5.305C16.1326 5.305 16.2598 5.35768 16.3536 5.45145C16.4473 5.54522 16.5 5.67239 16.5 5.805V9.285L18.14 10.86C18.2357 10.9524 18.2909 11.0789 18.2937 11.2119C18.2966 11.3449 18.2467 11.4736 18.155 11.57C18.1072 11.618 18.0502 11.6559 17.9876 11.6817C17.9249 11.7074 17.8577 11.7205 17.79 11.72C17.6611 11.7203 17.5372 11.67 17.445 11.58L15.655 9.86C15.6061 9.81368 15.5671 9.75787 15.5404 9.69597C15.5138 9.63408 15.5 9.56739 15.5 9.5V5.805Z" fill="white"/>
</svg>
