<svg width="18" height="18" viewBox="0 0 18 18" fill="none" xmlns="http://www.w3.org/2000/svg">
<g clip-path="url(#clip0_2522_23093)">
<path d="M17.1887 6.52778L11.7912 3.41C11.4809 3.25512 11.1038 3.38105 10.9489 3.69132C10.9055 3.77841 10.8828 3.87443 10.8828 3.97176V16.5299C10.8828 16.8767 11.1639 17.1578 11.5107 17.1578H15.6968C16.9679 17.1569 17.9982 16.1266 17.9991 14.8555V7.83802C18.0011 7.28241 17.6867 6.77412 17.1887 6.52778ZM14.8596 14.6462H13.1851C12.8384 14.6462 12.5572 14.3651 12.5572 14.0183C12.5572 13.6715 12.8384 13.3904 13.1851 13.3904H14.8596C15.2063 13.3904 15.4875 13.6715 15.4875 14.0183C15.4875 14.3651 15.2063 14.6462 14.8596 14.6462ZM14.8596 12.1346H13.1851C12.8384 12.1346 12.5572 11.8534 12.5572 11.5067C12.5572 11.1599 12.8384 10.8788 13.1851 10.8788H14.8596C15.2063 10.8788 15.4875 11.1599 15.4875 11.5067C15.4875 11.8534 15.2063 12.1346 14.8596 12.1346ZM14.8596 9.62295H13.1851C12.8384 9.62295 12.5572 9.34182 12.5572 8.99504C12.5572 8.64827 12.8384 8.36714 13.1851 8.36714H14.8596C15.2063 8.36714 15.4875 8.64827 15.4875 8.99504C15.4875 9.34182 15.2063 9.62295 14.8596 9.62295Z" fill="#1F74BB"/>
<path d="M9 0.835938H1.46512C0.656353 0.836857 0.000919662 1.49229 0 2.30105V15.6964C0.000919662 16.5052 0.656353 17.1606 1.46512 17.1615H2.51163V13.6034C2.51255 13.0258 2.98056 12.5578 3.55814 12.5569H6.90698C7.48456 12.5578 7.95257 13.0258 7.95349 13.6034V17.1615H9.83721C10.184 17.1615 10.4651 16.8804 10.4651 16.5336V2.30105C10.4642 1.49229 9.80876 0.836857 9 0.835938ZM3.97674 10.0452H3.13953C2.79276 10.0452 2.51163 9.76411 2.51163 9.41733C2.51163 9.07056 2.79276 8.78943 3.13953 8.78943H3.97674C4.32352 8.78943 4.60465 9.07056 4.60465 9.41733C4.60465 9.76411 4.32352 10.0452 3.97674 10.0452ZM3.97674 7.53361H3.13953C2.79276 7.53361 2.51163 7.25248 2.51163 6.90571C2.51163 6.55893 2.79276 6.2778 3.13953 6.2778H3.97674C4.32352 6.2778 4.60465 6.55893 4.60465 6.90571C4.60465 7.25248 4.32352 7.53361 3.97674 7.53361ZM3.97674 5.02198H3.13953C2.79276 5.02198 2.51163 4.74085 2.51163 4.39408C2.51163 4.0473 2.79276 3.76617 3.13953 3.76617H3.97674C4.32352 3.76617 4.60465 4.0473 4.60465 4.39408C4.60465 4.74085 4.32352 5.02198 3.97674 5.02198ZM7.32558 10.0452H6.48837C6.1416 10.0452 5.86047 9.76411 5.86047 9.41733C5.86047 9.07056 6.1416 8.78943 6.48837 8.78943H7.32558C7.67236 8.78943 7.95349 9.07056 7.95349 9.41733C7.95349 9.76411 7.67236 10.0452 7.32558 10.0452ZM7.32558 7.53361H6.48837C6.1416 7.53361 5.86047 7.25248 5.86047 6.90571C5.86047 6.55893 6.1416 6.2778 6.48837 6.2778H7.32558C7.67236 6.2778 7.95349 6.55893 7.95349 6.90571C7.95349 7.25248 7.67236 7.53361 7.32558 7.53361ZM7.32558 5.02198H6.48837C6.1416 5.02198 5.86047 4.74085 5.86047 4.39408C5.86047 4.0473 6.1416 3.76617 6.48837 3.76617H7.32558C7.67236 3.76617 7.95349 4.0473 7.95349 4.39408C7.95349 4.74085 7.67236 5.02198 7.32558 5.02198Z" fill="#1F74BB"/>
<path d="M3.76746 13.8125H6.69769V17.1613H3.76746V13.8125Z" fill="#1F74BB"/>
</g>
<defs>
<clipPath id="clip0_2522_23093">
<rect width="18" height="18" fill="white"/>
</clipPath>
</defs>
</svg>
