<svg width="18" height="18" viewBox="0 0 18 18" fill="none" xmlns="http://www.w3.org/2000/svg">
<g clip-path="url(#clip0_2522_23101)">
<path d="M3.32863 2.89802V0.456914C3.32863 0.257156 3.49204 0.09375 3.69179 0.09375H5.10166C5.30142 0.09375 5.46483 0.257156 5.46483 0.456914V2.89802C5.46483 3.09778 5.30142 3.26119 5.10166 3.26119H3.69179C3.49207 3.26119 3.32863 3.09775 3.32863 2.89802ZM12.8983 3.26119H14.3082C14.508 3.26119 14.6714 3.09778 14.6714 2.89802V0.456914C14.6714 0.257156 14.508 0.09375 14.3082 0.09375H12.8983C12.6986 0.09375 12.5352 0.257156 12.5352 0.456914V2.89802C12.5352 3.09775 12.6986 3.26119 12.8983 3.26119ZM0 6.67852H18V16.5873C18 17.3096 17.409 17.9006 16.6867 17.9006H1.3133C0.591012 17.9006 0 17.3097 0 16.5873L0 6.67852ZM14.7167 9.61522H16.3777V8.10878H14.7167V9.61522ZM14.7167 12.8599H16.3777V11.3534H14.7167V12.8599ZM11.4431 9.61522H13.1041V8.10878H11.4431V9.61522ZM11.4431 12.8599H13.1041V11.3534H11.4431V12.8599ZM11.4431 16.1045H13.1041V14.5981H11.4431V16.1045ZM8.16954 9.61522H9.8305V8.10878H8.16954V9.61522ZM8.16954 12.8599H9.8305V11.3534H8.16954V12.8599ZM8.16954 16.1045H9.8305V14.5981H8.16954V16.1045ZM4.89593 12.8599H6.55689V11.3534H4.89593V12.8599ZM4.89593 16.1045H6.55689V14.5981H4.89593V16.1045ZM1.62232 12.8599H3.28328V11.3534H1.62232V12.8599ZM1.62232 16.1045H3.28328V14.5981H1.62232V16.1045ZM16.6867 1.67747H15.403V2.89802C15.403 3.50159 14.9118 3.99286 14.3082 3.99286H12.8983C12.2948 3.99286 11.8035 3.50162 11.8035 2.89802V1.67747H6.1965V2.89802C6.1965 3.50159 5.70523 3.99286 5.10166 3.99286H3.69179C3.08823 3.99286 2.59696 3.50162 2.59696 2.89802V1.67747H1.3133C0.591012 1.67747 0 2.26845 0 2.99077V5.94681H18V2.99077C18 2.26845 17.409 1.67747 16.6867 1.67747Z" fill="#1F74BB"/>
</g>
<defs>
<clipPath id="clip0_2522_23101">
<rect width="18" height="18" fill="white"/>
</clipPath>
</defs>
</svg>
