<svg width="24" height="24" viewBox="0 0 24 24" fill="none" xmlns="http://www.w3.org/2000/svg">
<g clip-path="url(#clip0_1920_17192)">
<path fill-rule="evenodd" clip-rule="evenodd" d="M12.0001 23.9999C18.6171 23.9999 24.0002 18.6171 24.0002 12C24.0002 5.38308 18.6171 0 12.0001 0C5.38284 0 0 5.38308 0 12C0 18.6171 5.38284 23.9999 12.0001 23.9999ZM16.8595 16.3382C16.6902 16.528 16.4557 16.6248 16.2199 16.6248C16.0168 16.6248 15.8126 16.553 15.6493 16.4067L11.4289 12.6392C11.2467 12.4767 11.1429 12.2442 11.1429 11.9999V4.92877C11.1429 4.45519 11.5265 4.07161 12 4.07161C12.4736 4.07161 12.8572 4.45519 12.8572 4.92877V11.6163L16.791 15.1281C17.1446 15.4436 17.1752 15.9852 16.8595 16.3382Z" fill="#1F74BB"/>
</g>
<defs>
<clipPath id="clip0_1920_17192">
<rect width="24" height="24" fill="white"/>
</clipPath>
</defs>
</svg>
