<svg width="48" height="48" viewBox="0 0 48 48" fill="none" xmlns="http://www.w3.org/2000/svg">
<rect width="48" height="48" rx="24" fill="white"/>
<path d="M29.9583 31.4664H35C35 31.7137 34.9038 31.9517 34.7319 32.1267L29.232 37.7267C29.0601 37.9017 28.8263 37.9997 28.5834 37.9997V32.8662C28.5834 32.0939 29.1997 31.4664 29.9583 31.4664ZM35 12.7997V29.5997H29.9583C28.1891 29.5997 26.7498 31.065 26.7498 32.8665V38H15.75C14.234 38 13 36.7435 13 35.2V12.8C13 11.2565 14.234 10 15.75 10H32.2497C33.7657 10 34.9997 11.2565 34.9997 12.8L35 12.7997ZM24.9168 29.5997C24.9168 29.084 24.5066 28.6664 24.0001 28.6664H17.1251C16.6186 28.6664 16.2084 29.084 16.2084 29.5997C16.2084 30.1154 16.6186 30.533 17.1251 30.533H24.0001C24.5066 30.533 24.9168 30.1154 24.9168 29.5997ZM30.8749 24.933C30.8749 24.4174 30.4647 23.9997 29.9583 23.9997H17.1251C16.6186 23.9997 16.2084 24.4174 16.2084 24.933C16.2084 25.4487 16.6186 25.8664 17.1251 25.8664H29.9583C30.4647 25.8664 30.8749 25.4487 30.8749 24.933ZM30.8749 20.2664C30.8749 19.7507 30.4647 19.333 29.9583 19.333H17.1251C16.6186 19.333 16.2084 19.7507 16.2084 20.2664C16.2084 20.782 16.6186 21.1997 17.1251 21.1997H29.9583C30.4647 21.1997 30.8749 20.782 30.8749 20.2664ZM30.8749 15.5997C30.8749 15.084 30.4647 14.6664 29.9583 14.6664H17.1251C16.6186 14.6664 16.2084 15.084 16.2084 15.5997C16.2084 16.1154 16.6186 16.533 17.1251 16.533H29.9583C30.4647 16.533 30.8749 16.1154 30.8749 15.5997Z" fill="#122E44"/>
</svg>
