<svg width="16" height="16" viewBox="0 0 16 16" fill="none" xmlns="http://www.w3.org/2000/svg">
<path fill-rule="evenodd" clip-rule="evenodd" d="M3.49817 6.7006V5.33093C3.49817 2.84626 5.5124 0.832031 7.99707 0.832031C10.4817 0.832031 12.496 2.84626 12.496 5.33093V6.7006C13.2391 6.75592 13.7223 6.89588 14.0763 7.2498C14.6621 7.83499 14.6621 8.77809 14.6621 10.663C14.6621 12.5478 14.6621 13.4909 14.0763 14.0761C13.4911 14.662 12.548 14.662 10.6631 14.662H5.33105C3.44618 14.662 2.50308 14.662 1.91789 14.0761C1.33203 13.4909 1.33203 12.5478 1.33203 10.663C1.33203 8.77809 1.33203 7.83499 1.91789 7.2498C2.27114 6.89588 2.75502 6.75592 3.49817 6.7006ZM4.49792 5.33093C4.49792 3.39841 6.06455 1.83179 7.99707 1.83179C9.92959 1.83179 11.4962 3.39841 11.4962 5.33093V6.66661C11.2412 6.66438 10.9635 6.6635 10.6631 6.66394H5.33105C5.03024 6.6635 4.75253 6.66438 4.49792 6.66661V5.33093ZM5.33105 11.3295C5.69915 11.3295 5.99756 11.0311 5.99756 10.663C5.99756 10.2949 5.69915 9.99646 5.33105 9.99646C4.96295 9.99646 4.66455 10.2949 4.66455 10.663C4.66455 11.0311 4.96295 11.3295 5.33105 11.3295ZM7.99707 11.3295C8.36517 11.3295 8.66357 11.0311 8.66357 10.663C8.66357 10.2949 8.36517 9.99646 7.99707 9.99646C7.62897 9.99646 7.33057 10.2949 7.33057 10.663C7.33057 11.0311 7.62897 11.3295 7.99707 11.3295ZM11.3296 10.663C11.3296 11.0311 11.0312 11.3295 10.6631 11.3295C10.295 11.3295 9.99658 11.0311 9.99658 10.663C9.99658 10.2949 10.295 9.99646 10.6631 9.99646C11.0312 9.99646 11.3296 10.2949 11.3296 10.663ZM11.3296 10.663C11.3296 11.0311 11.0312 11.3295 10.6631 11.3295C10.295 11.3295 9.99658 11.0311 9.99658 10.663C9.99658 10.2949 10.295 9.99646 10.6631 9.99646C11.0312 9.99646 11.3296 10.2949 11.3296 10.663Z" fill="#1A1A2E"/>
</svg>
