<svg width="16" height="16" viewBox="0 0 16 16" fill="none" xmlns="http://www.w3.org/2000/svg">
<path d="M7.96113 11.9779L13.2071 6.73192C12.3246 6.36324 11.5231 5.82487 10.848 5.14735C10.1701 4.47213 9.6315 3.67034 9.2627 2.78751L4.01673 8.03348C3.60746 8.44275 3.40247 8.64774 3.22657 8.87329C3.01902 9.13962 2.8409 9.42761 2.6953 9.73225C2.57259 9.99044 2.48109 10.2656 2.2981 10.8146L1.33203 13.7107C1.24134 13.9812 1.31152 14.2797 1.51324 14.4814C1.71495 14.6831 2.01344 14.7533 2.28391 14.6626L5.17998 13.6965C5.72968 13.5135 6.00418 13.422 6.26236 13.2993C6.56831 13.1537 6.85463 12.9766 7.12133 12.7681C7.34688 12.5921 7.55187 12.3872 7.96113 11.9779Z" fill="#1A1A2E"/>
<path d="M14.6626 5.27644C15.7518 4.18722 15.7518 2.42125 14.6626 1.33203C13.5734 0.242813 11.8074 0.242813 10.7182 1.33203L10.089 1.96118L10.116 2.03991C10.4259 2.92709 10.9333 3.73229 11.5998 4.39478C12.2821 5.08125 13.1155 5.59863 14.0334 5.90559L14.6626 5.27644Z" fill="#1A1A2E"/>
</svg>
