<svg width="45" height="45" viewBox="0 0 45 45" fill="none" xmlns="http://www.w3.org/2000/svg">
<rect width="45" height="45" rx="12" fill="#1F74BB"/>
<g clip-path="url(#clip0_2522_23083)">
<path d="M32.9195 19.7141L25.7229 15.5571C25.3092 15.3506 24.8064 15.5185 24.5999 15.9322C24.5419 16.0483 24.5117 16.1763 24.5117 16.3061V33.0503C24.5117 33.5126 24.8866 33.8875 25.3489 33.8875H30.9303C32.6252 33.8863 33.9989 32.5126 34.0001 30.8177V21.4611C34.0028 20.7203 33.5836 20.0426 32.9195 19.7141ZM29.814 30.5387H27.5815C27.1191 30.5387 26.7443 30.1639 26.7443 29.7015C26.7443 29.2391 27.1191 28.8643 27.5815 28.8643H29.814C30.2764 28.8643 30.6513 29.2391 30.6513 29.7015C30.6513 30.1639 30.2764 30.5387 29.814 30.5387ZM29.814 27.1899H27.5815C27.1191 27.1899 26.7443 26.815 26.7443 26.3526C26.7443 25.8903 27.1191 25.5154 27.5815 25.5154H29.814C30.2764 25.5154 30.6513 25.8903 30.6513 26.3526C30.6513 26.815 30.2764 27.1899 29.814 27.1899ZM29.814 23.841H27.5815C27.1191 23.841 26.7443 23.4662 26.7443 23.0038C26.7443 22.5414 27.1191 22.1666 27.5815 22.1666H29.814C30.2764 22.1666 30.6513 22.5414 30.6513 23.0038C30.6513 23.4662 30.2764 23.841 29.814 23.841Z" fill="white"/>
<path d="M22 12.1172H11.9535C10.8751 12.1184 10.0012 12.9923 10 14.0707V31.9311C10.0012 33.0095 10.8751 33.8834 11.9535 33.8846H13.3488V29.1404C13.3501 28.3703 13.9741 27.7463 14.7442 27.7451H19.2093C19.9794 27.7463 20.6034 28.3703 20.6047 29.1404V33.8846H23.1163C23.5786 33.8846 23.9535 33.5098 23.9535 33.0474V14.0707C23.9523 12.9923 23.0784 12.1184 22 12.1172ZM15.3023 24.3963H14.186C13.7237 24.3963 13.3488 24.0214 13.3488 23.559C13.3488 23.0967 13.7237 22.7218 14.186 22.7218H15.3023C15.7647 22.7218 16.1395 23.0967 16.1395 23.559C16.1395 24.0214 15.7647 24.3963 15.3023 24.3963ZM15.3023 21.0474H14.186C13.7237 21.0474 13.3488 20.6726 13.3488 20.2102C13.3488 19.7478 13.7237 19.373 14.186 19.373H15.3023C15.7647 19.373 16.1395 19.7478 16.1395 20.2102C16.1395 20.6726 15.7647 21.0474 15.3023 21.0474ZM15.3023 17.6986H14.186C13.7237 17.6986 13.3488 17.3237 13.3488 16.8614C13.3488 16.399 13.7237 16.0242 14.186 16.0242H15.3023C15.7647 16.0242 16.1395 16.399 16.1395 16.8614C16.1395 17.3237 15.7647 17.6986 15.3023 17.6986ZM19.7674 24.3963H18.6512C18.1888 24.3963 17.814 24.0214 17.814 23.559C17.814 23.0967 18.1888 22.7218 18.6512 22.7218H19.7674C20.2298 22.7218 20.6047 23.0967 20.6047 23.559C20.6047 24.0214 20.2298 24.3963 19.7674 24.3963ZM19.7674 21.0474H18.6512C18.1888 21.0474 17.814 20.6726 17.814 20.2102C17.814 19.7478 18.1888 19.373 18.6512 19.373H19.7674C20.2298 19.373 20.6047 19.7478 20.6047 20.2102C20.6047 20.6726 20.2298 21.0474 19.7674 21.0474ZM19.7674 17.6986H18.6512C18.1888 17.6986 17.814 17.3237 17.814 16.8614C17.814 16.399 18.1888 16.0242 18.6512 16.0242H19.7674C20.2298 16.0242 20.6047 16.399 20.6047 16.8614C20.6047 17.3237 20.2298 17.6986 19.7674 17.6986Z" fill="white"/>
<path d="M15.0234 29.4219H18.9304V33.887H15.0234V29.4219Z" fill="white"/>
</g>
<defs>
<clipPath id="clip0_2522_23083">
<rect width="24" height="24" fill="white" transform="translate(10 11)"/>
</clipPath>
</defs>
</svg>
