<svg width="16" height="16" viewBox="0 0 16 16" fill="none" xmlns="http://www.w3.org/2000/svg">
<path d="M11.1825 10.954C11.3067 10.8575 11.4194 10.7448 11.6443 10.5199L14.4507 7.71274C14.5188 7.64537 14.4876 7.52834 14.3975 7.49642C13.958 7.34409 13.5592 7.09324 13.2316 6.76307C12.9014 6.43541 12.6505 6.03658 12.4982 5.59707C12.4663 5.507 12.3493 5.47579 12.2819 5.54388L9.47398 8.35035C9.24915 8.57518 9.13638 8.68795 9.03992 8.81207C8.92503 8.95912 8.82762 9.11657 8.74772 9.28443C8.68034 9.42627 8.62998 9.57805 8.52927 9.88019L8.39877 10.2703L8.19167 10.8909L7.99805 11.4724C7.94881 11.6211 7.98762 11.7848 8.09836 11.8956C8.20909 12.0063 8.37281 12.0451 8.52147 11.9959L9.10305 11.8022L9.72363 11.5951L10.1137 11.4646C10.4159 11.3639 10.5676 11.3143 10.7095 11.2462C10.8773 11.1658 11.0355 11.0684 11.1825 10.954Z" fill="#1A1A2E"/>
<path d="M15.3302 6.83399C15.9293 6.23468 15.9292 5.26317 15.3298 4.66406C14.7305 4.06495 13.759 4.06511 13.1599 4.66442L13.0706 4.7552C12.983 4.84087 12.9436 4.96445 12.9656 5.085C12.9798 5.16089 13.0046 5.27295 13.0507 5.40558C13.1429 5.67154 13.3174 6.02049 13.6457 6.34887C13.9741 6.67725 14.3231 6.85172 14.589 6.94392C14.7224 6.99002 14.8337 7.01485 14.9096 7.02903C15.0301 7.04974 15.1531 7.01059 15.2394 6.92407L15.3302 6.83399Z" fill="#1A1A2E"/>
<path fill-rule="evenodd" clip-rule="evenodd" d="M2.78114 2.11317C2 2.89365 2 4.15068 2 6.66406V9.33008C2 11.8435 2 13.1005 2.78114 13.881C3.56229 14.6614 4.81865 14.6621 7.33203 14.6621H8.66504C11.1784 14.6621 12.4355 14.6621 13.2159 13.881C13.9844 13.1132 13.9971 11.8841 13.9971 9.45005L12.1189 11.3283C11.9389 11.5082 11.7916 11.6555 11.6256 11.7855C11.431 11.9379 11.22 12.0683 10.9965 12.1741C10.7919 12.2661 10.5818 12.3451 10.3673 12.4107L8.82633 12.9245C8.32741 13.0909 7.77731 12.9611 7.40542 12.5892C7.03353 12.2173 6.90371 11.6672 7.0701 11.1683L7.25272 10.6218L7.56931 9.67133L7.5833 9.62734C7.66395 9.38606 7.72993 9.18878 7.82058 8.99816C7.92722 8.77421 8.05674 8.56471 8.20915 8.36965C8.33912 8.20302 8.48642 8.05639 8.66637 7.87643L11.3364 5.20575L12.0775 4.4646L12.1622 4.37995C12.6196 3.92112 13.2412 3.66371 13.8891 3.66479C13.7885 2.9783 13.5932 2.48975 13.2159 2.11317C12.4355 1.33203 11.1784 1.33203 8.66504 1.33203H7.33203C4.81865 1.33203 3.56162 1.33203 2.78114 2.11317ZM4.83264 5.99756C4.83264 5.72148 5.05644 5.49768 5.33252 5.49768H9.66479C9.94087 5.49768 10.1647 5.72148 10.1647 5.99756C10.1647 6.27363 9.94087 6.49744 9.66479 6.49744H5.33252C5.05644 6.49744 4.83264 6.27363 4.83264 5.99756ZM4.83264 8.66357C4.83264 8.3875 5.05644 8.1637 5.33252 8.1637H6.99878C7.27485 8.1637 7.49866 8.3875 7.49866 8.66357C7.49866 8.93965 7.27485 9.16345 6.99878 9.16345H5.33252C5.05644 9.16345 4.83264 8.93965 4.83264 8.66357ZM4.83264 11.3296C4.83264 11.0535 5.05644 10.8297 5.33252 10.8297H6.33228C6.60835 10.8297 6.83215 11.0535 6.83215 11.3296C6.83215 11.6057 6.60835 11.8295 6.33228 11.8295H5.33252C5.05644 11.8295 4.83264 11.6057 4.83264 11.3296ZM4.83264 11.3296C4.83264 11.0535 5.05644 10.8297 5.33252 10.8297H6.33228C6.60835 10.8297 6.83215 11.0535 6.83215 11.3296C6.83215 11.6057 6.60835 11.8295 6.33228 11.8295H5.33252C5.05644 11.8295 4.83264 11.6057 4.83264 11.3296Z" fill="#1A1A2E"/>
</svg>
