<svg width="18" height="18" viewBox="0 0 18 18" fill="none" xmlns="http://www.w3.org/2000/svg">
<path fill-rule="evenodd" clip-rule="evenodd" d="M11.25 12.3744V13.5C11.25 14.2459 10.9536 14.9614 10.4265 15.489C9.89888 16.0161 9.18337 16.3125 8.4375 16.3125H4.5C3.75413 16.3125 3.03863 16.0161 2.511 15.489C1.98394 14.9614 1.6875 14.2459 1.6875 13.5C1.6875 11.0031 1.6875 6.99694 1.6875 4.5C1.6875 3.75413 1.98394 3.03863 2.511 2.511C3.03863 1.98394 3.75413 1.6875 4.5 1.6875C5.71837 1.6875 7.21913 1.6875 8.4375 1.6875C9.99056 1.6875 11.25 2.94694 11.25 4.5V5.59181C11.25 5.90231 10.998 6.15431 10.6875 6.15431C10.377 6.15431 10.125 5.90231 10.125 5.59181V4.5C10.125 3.56794 9.36956 2.8125 8.4375 2.8125H4.5C4.05225 2.8125 3.62306 2.99025 3.30694 3.30694C2.99025 3.62306 2.8125 4.05225 2.8125 4.5V13.5C2.8125 13.9478 2.99025 14.3769 3.30694 14.6931C3.62306 15.0098 4.05225 15.1875 4.5 15.1875C5.71837 15.1875 7.21913 15.1875 8.4375 15.1875C8.88525 15.1875 9.31444 15.0098 9.63056 14.6931C9.94725 14.3769 10.125 13.9478 10.125 13.5V12.3744C10.125 12.0639 10.377 11.8119 10.6875 11.8119C10.998 11.8119 11.25 12.0639 11.25 12.3744Z" fill="#EA580C"/>
<path fill-rule="evenodd" clip-rule="evenodd" d="M14.8481 8.4377H5.16748C4.85698 8.4377 4.60498 8.6897 4.60498 9.0002C4.60498 9.3107 4.85698 9.5627 5.16748 9.5627H14.8678L12.6364 11.7941C12.417 12.0141 12.417 12.3701 12.6364 12.5901C12.8557 12.8095 13.2124 12.8095 13.4317 12.5901C13.4317 12.5901 14.8757 11.1461 15.8184 10.2034C16.4771 9.54414 16.4771 8.47595 15.8184 7.8167L13.4317 5.43058C13.2124 5.21064 12.8557 5.21064 12.6364 5.43058C12.417 5.64995 12.417 6.00658 12.6364 6.22595L14.8481 8.4377Z" fill="#EA580C"/>
</svg>
