<svg width="24" height="24" viewBox="0 0 24 24" fill="none" xmlns="http://www.w3.org/2000/svg">
<g clip-path="url(#clip0_1920_17123)">
<path d="M20.8629 6.79297V20.6309C20.8629 22.4937 19.3057 24.0017 17.3895 24.0017H6.6082C4.68633 24.0017 3.13477 22.4937 3.13477 20.6309V6.79297H20.8629Z" fill="#EF4444" stroke="#EF4444" stroke-width="0.25" stroke-miterlimit="10"/>
<path d="M22.508 2.83267V3.74673C22.5078 3.88665 22.48 4.02515 22.4262 4.15432C22.3725 4.2835 22.2938 4.40082 22.1947 4.49958C22.0955 4.59834 21.9779 4.67662 21.8486 4.72994C21.7192 4.78325 21.5806 4.81057 21.4407 4.81032H2.5543C2.41453 4.81057 2.27609 4.78323 2.14692 4.72987C2.01774 4.67651 1.90036 4.59819 1.80151 4.49938C1.70266 4.40057 1.62428 4.28323 1.57086 4.15407C1.51745 4.02492 1.49005 3.88649 1.49024 3.74673V2.83267C1.48999 2.69271 1.51732 2.55407 1.57067 2.42468C1.62401 2.29528 1.70233 2.17767 1.80114 2.07855C1.89996 1.97943 2.01733 1.90075 2.14656 1.84701C2.27579 1.79326 2.41434 1.76551 2.5543 1.76532H6.36289C6.36215 1.53329 6.4073 1.3034 6.49576 1.08889C6.58421 0.874375 6.71421 0.679473 6.87828 0.515401C7.04236 0.351328 7.23726 0.221324 7.45177 0.132872C7.66628 0.0444202 7.89617 -0.000733886 8.1282 9.02009e-06H15.8663C16.0982 -0.000114211 16.3278 0.0454628 16.542 0.134134C16.7563 0.222806 16.9509 0.352833 17.1149 0.516782C17.2788 0.680731 17.4088 0.875387 17.4975 1.08962C17.5862 1.30385 17.6318 1.53346 17.6316 1.76532H21.4402C21.7233 1.76557 21.9947 1.87809 22.1949 2.07818C22.395 2.27828 22.5077 2.54962 22.508 2.83267Z" fill="#EF4444" stroke="#EF4444" stroke-width="0.25" stroke-miterlimit="10"/>
</g>
<defs>
<clipPath id="clip0_1920_17123">
<rect width="24" height="24" fill="white"/>
</clipPath>
</defs>
</svg>
