<svg width="28" height="28" viewBox="0 0 28 28" fill="none" xmlns="http://www.w3.org/2000/svg">
<g clip-path="url(#clip0_3254_30710)">
<path d="M18.7431 6.3291C18.2689 5.85496 17.9758 5.19926 17.9758 4.47684C17.9758 3.75277 18.2689 3.09707 18.7431 2.62293C19.2172 2.14879 19.8729 1.85566 20.597 1.85566C21.321 1.85566 21.9751 2.14879 22.4492 2.62293C22.9234 3.09707 23.2181 3.75277 23.2181 4.47684C23.2181 5.19926 22.9234 5.85496 22.4492 6.3291C21.9751 6.80324 21.3205 7.09637 20.597 7.09637C19.8734 7.09637 19.2172 6.80379 18.7431 6.3291ZM7.40469 7.09637C8.12711 7.09637 8.78282 6.80324 9.25696 6.3291C9.7311 5.85496 10.0242 5.19926 10.0242 4.47684C10.0242 3.75277 9.7311 3.09707 9.25696 2.62293C8.78282 2.14879 8.12711 1.85566 7.40469 1.85566C6.68063 1.85566 6.02493 2.14879 5.55079 2.62293C5.07665 3.09707 4.78352 3.75277 4.78352 4.47684C4.78352 5.19926 5.07665 5.85496 5.55079 6.3291C6.02493 6.80379 6.68063 7.09637 7.40469 7.09637ZM14.0006 5.9184C14.8209 5.9184 15.5646 5.58535 16.1027 5.04723C16.6409 4.5091 16.9723 3.76699 16.9723 2.94504C16.9723 2.12473 16.6403 1.38098 16.1027 0.842852C15.5646 0.304727 14.8209 -0.0283203 14.0006 -0.0283203C13.1791 -0.0283203 12.4365 0.304727 11.8984 0.842852C11.3602 1.38098 11.0272 2.12473 11.0272 2.94504C11.0272 3.76645 11.3602 4.5091 11.8984 5.04723C12.4365 5.58535 13.1791 5.9184 14.0006 5.9184ZM25.0179 15.2924L18.6993 15.294C18.7923 15.7282 18.8262 16.2057 18.8262 16.5732C18.8262 17.9048 18.287 19.1123 17.4125 19.9851C16.5397 20.8596 15.3338 21.3988 14.0022 21.3988C12.6689 21.3988 11.4631 20.8596 10.5902 19.9851C9.71579 19.1123 9.17657 17.9048 9.17657 16.5732C9.17657 16.2057 9.21047 15.7299 9.30344 15.294H2.98211C2.74204 15.294 2.54625 15.4893 2.54625 15.7299V17.9004C2.53368 18.0957 2.65344 18.2816 2.84704 18.3456L4.13821 18.7656L4.71188 18.9515C4.82672 19.3967 4.96946 19.8276 5.14118 20.2411C5.31618 20.6611 5.51961 21.0674 5.75204 21.4562L5.47586 21.9954L4.86829 23.1893C4.77532 23.355 4.79829 23.5704 4.94102 23.7132L5.90079 24.6729L6.86055 25.6327C6.99071 25.7629 7.1936 25.8 7.3675 25.7131L8.57665 25.0962L9.11586 24.8217C9.50469 25.0525 9.91102 25.2575 10.331 25.4309C10.7466 25.6032 11.1776 25.747 11.6206 25.8602L11.8081 26.4339L12.2188 27.6988C12.267 27.888 12.4376 28.0275 12.6421 28.0275H14L15.3563 28.0258C15.5406 28.0275 15.7112 27.9093 15.7719 27.725L16.1919 26.4339L16.3778 25.8602C16.823 25.747 17.2539 25.6026 17.6673 25.4309C18.0873 25.2575 18.4937 25.0525 18.8825 24.8217L19.4217 25.0962L20.6172 25.7038C20.7829 25.7984 20.9984 25.7738 21.1395 25.6327L22.1003 24.6729L23.0601 23.7121C23.1902 23.5819 23.2274 23.379 23.1405 23.2051L22.5236 21.996L22.2491 21.4568C22.4798 21.0679 22.6849 20.6616 22.8583 20.2416C23.0306 19.826 23.1744 19.3967 23.2876 18.9521L23.8613 18.7661L25.1524 18.3445C25.3258 18.2887 25.4532 18.1241 25.4532 17.9305V15.7693C25.4751 15.5139 25.2755 15.2924 25.0179 15.2924ZM10.2014 15.294C10.1872 15.3454 10.1752 15.3996 10.1626 15.4537C10.0806 15.8272 10.051 16.2472 10.051 16.5732C10.051 17.6647 10.4929 18.6518 11.2088 19.3682C11.9235 20.083 12.9106 20.5249 14.0022 20.5249C15.0921 20.5249 16.0792 20.083 16.7956 19.3682C17.5104 18.6518 17.9523 17.6647 17.9523 16.5732C17.9523 16.2478 17.9227 15.8278 17.8407 15.4537C17.8281 15.3996 17.8161 15.3454 17.8019 15.294H10.2014ZM24.418 8.3941C23.7776 7.75535 22.8955 7.35723 21.9237 7.35723H19.3889C20.0692 8.21746 20.4444 9.28113 20.4444 10.3907V13.4352C20.4444 13.7868 20.3454 14.1264 20.1622 14.4196H24.5459C24.7953 14.4196 25.0234 14.3173 25.188 14.1527C25.3526 13.9881 25.4548 13.7622 25.4548 13.5107V10.8879C25.4554 9.9177 25.0584 9.03449 24.418 8.3941ZM3.45297 14.4196H7.83672C7.65407 14.1264 7.55454 13.7868 7.55454 13.4352V10.3907C7.55454 9.28059 7.93133 8.21746 8.61 7.35723H6.07524C5.10508 7.35723 4.22133 7.7559 3.58094 8.3941C2.94219 9.03449 2.54407 9.9177 2.54407 10.8884V13.5112C2.54407 13.7622 2.64633 13.9886 2.81094 14.1532C2.97555 14.3173 3.2036 14.4196 3.45297 14.4196ZM19.2823 14.1314C19.4606 13.9531 19.5705 13.7064 19.5705 13.4352V10.3907C19.5705 9.28223 19.1177 8.27488 18.3876 7.5448C17.6575 6.81473 16.6496 6.36191 15.5416 6.36191H15.05L15.4142 10.2792V10.2808C15.4219 10.3645 15.4049 10.4531 15.3601 10.5335L14.3817 12.2682C14.3429 12.3365 14.2871 12.395 14.2127 12.4371C14.0033 12.5547 13.7386 12.4804 13.6205 12.2714L12.6503 10.551C12.6006 10.4733 12.5759 10.3787 12.5852 10.2797L12.9511 6.36246H12.4584C11.3498 6.36246 10.3425 6.81527 9.61243 7.54535C8.88399 8.27543 8.42954 9.28332 8.42954 10.3913V13.4357C8.42954 13.707 8.5411 13.9536 8.71774 14.1319C8.89602 14.3102 9.14266 14.4201 9.41391 14.4201H18.5866C18.8573 14.4196 19.104 14.3096 19.2823 14.1314ZM14.5354 10.225L14.1745 6.36191H13.8256L13.4657 10.225L14.0006 11.1722L14.5354 10.225Z" fill="#1F74BB"/>
</g>
<defs>
<clipPath id="clip0_3254_30710">
<rect width="28" height="28" fill="white"/>
</clipPath>
</defs>
</svg>
