<svg width="58" height="58" viewBox="0 0 58 58" fill="none" xmlns="http://www.w3.org/2000/svg">
<path d="M54.3763 12.0889C54.1347 11.8473 54.1347 11.6056 53.893 11.6056C50.7513 8.94727 46.1597 8.46393 42.7763 10.3973L34.318 15.2306L21.0263 7.49727C20.3013 7.01393 19.3347 7.01393 18.6097 7.49727L15.7097 9.18893C14.5013 9.91393 14.018 11.3639 14.743 12.5723L15.468 13.2973L25.1347 20.5473L15.9513 25.8639C15.2263 26.3473 14.2597 26.5889 13.293 26.5889L4.35134 26.1056C3.62634 26.1056 3.14301 26.5889 3.14301 27.3139C3.14301 27.5556 3.14301 28.0389 3.62634 28.2806L11.3597 35.7723C12.8097 37.2223 15.2263 37.4639 17.1597 36.4973L29.968 29.0056L39.1513 23.6889L53.4097 15.4723C54.618 14.5056 55.1013 13.0556 54.3763 12.0889ZM50.7513 46.1639H7.25134C5.80134 46.1639 4.83467 47.1306 4.83467 48.5806C4.83467 50.0306 5.80134 50.9973 7.25134 50.9973H50.7513C52.2013 50.9973 53.168 50.0306 53.168 48.5806C53.168 47.1306 52.2013 46.1639 50.7513 46.1639Z" fill="#1F74BB" fill-opacity="0.5"/>
</svg>
