<svg width="48" height="48" viewBox="0 0 48 48" fill="none" xmlns="http://www.w3.org/2000/svg">
<rect width="48" height="48" rx="24" fill="white"/>
<path d="M35.6255 10H19.8568C19.2268 10 18.7156 10.5113 18.7156 11.1412V11.4975H33.2781C34.3756 11.4975 35.2682 12.39 35.2682 13.4875V32.0763H35.6244C36.2544 32.0763 36.7657 31.5651 36.7657 30.9351V11.1402C36.7669 10.5102 36.2555 10 35.6255 10Z" fill="#1F74BB"/>
<path d="M33.2779 12.3467H17.5105C16.8805 12.3467 16.3693 12.8579 16.3693 13.4879V26.3129H17.0505C17.818 26.3129 18.4818 26.8604 18.6255 27.6154L18.7305 28.1654L19.008 28.3279L19.5393 28.1429C19.708 28.0829 19.8868 28.0529 20.0668 28.0529C20.638 28.0529 21.1693 28.3604 21.4543 28.8554L22.1368 30.0379C22.5205 30.7016 22.378 31.5504 21.7968 32.0529L21.3743 32.4179V32.7416L21.7968 33.1066C22.1855 33.4429 22.3593 33.9354 22.328 34.4241H33.2807C33.9107 34.4241 34.4219 33.9129 34.4219 33.2829L34.4207 13.488C34.4194 12.8567 33.9091 12.3467 33.2779 12.3467ZM20.0353 16.643H24.8865C25.1215 16.643 25.3115 16.833 25.3115 17.068C25.3115 17.303 25.1215 17.493 24.8865 17.493H20.0353C19.8003 17.493 19.6103 17.303 19.6103 17.068C19.6103 16.833 19.8003 16.643 20.0353 16.643ZM30.7528 30.1281H25.9003C25.6665 30.1281 25.4753 29.9381 25.4753 29.7031C25.4753 29.4681 25.6653 29.2781 25.9003 29.2781H30.7528C30.9865 29.2781 31.1777 29.4681 31.1777 29.7031C31.1777 29.9381 30.9877 30.1281 30.7528 30.1281ZM30.7528 26.9694H20.0353C19.8003 26.9694 19.6103 26.7794 19.6103 26.5444C19.6103 26.3094 19.8003 26.1194 20.0353 26.1194H30.7528C30.9865 26.1194 31.1777 26.3094 31.1777 26.5444C31.1777 26.7794 30.9877 26.9694 30.7528 26.9694ZM30.7528 23.8106H20.0353C19.8003 23.8106 19.6103 23.6206 19.6103 23.3856C19.6103 23.1506 19.8003 22.9606 20.0353 22.9606H30.7528C30.9865 22.9606 31.1777 23.1506 31.1777 23.3856C31.1777 23.6206 30.9877 23.8106 30.7528 23.8106ZM30.7528 20.6506H20.0353C19.8003 20.6506 19.6103 20.4606 19.6103 20.2256C19.6103 19.9906 19.8003 19.8006 20.0353 19.8006H30.7528C30.9865 19.8006 31.1777 19.9906 31.1777 20.2256C31.1777 20.4606 30.9877 20.6506 30.7528 20.6506Z" fill="#1F74BB"/>
<path d="M16.3679 31.415C15.7254 31.415 15.2029 31.9375 15.2029 32.5788C15.2029 33.2213 15.7254 33.7438 16.3679 33.7438C17.0104 33.7438 17.5329 33.2213 17.5329 32.5788C17.5329 31.9363 17.0091 31.415 16.3679 31.415Z" fill="#1F74BB"/>
<path d="M20.523 33.1304V32.0279L21.2405 31.4079C21.513 31.1717 21.5818 30.7754 21.4005 30.4617L20.718 29.2792C20.5368 28.9667 20.1605 28.8267 19.818 28.9442L18.9168 29.2567L17.9681 28.7017L17.7906 27.7717C17.7231 27.4167 17.4131 27.1592 17.0506 27.1592L15.6856 27.1604C15.3243 27.1604 15.0131 27.4179 14.9456 27.7729L14.7681 28.7029L13.8193 29.2579L12.9181 28.9454C12.5768 28.8267 12.1993 28.9679 12.0181 29.2804L11.3356 30.4629C11.1543 30.7754 11.2218 31.173 11.4956 31.4092L12.2131 32.0292V33.1317L11.4956 33.7517C11.2231 33.9879 11.1543 34.3842 11.3356 34.6979L12.0181 35.8804C12.1993 36.1929 12.5756 36.3329 12.9181 36.2154L13.8193 35.9029L14.7681 36.4579L14.9456 37.3879C15.0131 37.7429 15.3231 38.0004 15.6856 38.0004L17.0506 37.9967C17.4118 37.9967 17.7231 37.7392 17.7906 37.3842L17.9681 36.4542L18.9168 35.8992L19.818 36.2117C20.1593 36.3304 20.5368 36.1892 20.718 35.8767L21.4005 34.6942C21.5818 34.3817 21.5143 33.9842 21.2405 33.7479L20.523 33.1304ZM16.3682 34.5942C15.2569 34.5942 14.3544 33.6917 14.3544 32.5792C14.3544 31.4691 15.2569 30.5654 16.3682 30.5654C17.4794 30.5654 18.3819 31.4679 18.3819 32.5792C18.3819 33.6904 17.4782 34.5942 16.3682 34.5942Z" fill="#1F74BB"/>
</svg>
