<svg width="21" height="21" viewBox="0 0 21 21" fill="none" xmlns="http://www.w3.org/2000/svg">
<path d="M5.41106 13.4102C4.53883 13.4111 3.67603 13.5906 2.87577 13.9375C2.0755 14.2845 1.35471 14.7915 0.757752 15.4275C0.383851 15.8268 0.134828 16.3268 0.0413093 16.8658C-0.0522091 17.4048 0.0138554 17.9594 0.231378 18.4614C0.4489 18.9634 0.808394 19.3909 1.26565 19.6912C1.7229 19.9916 2.25797 20.1517 2.80505 20.152H8.01332C8.5604 20.1517 9.09547 19.9916 9.55272 19.6912C10.01 19.3908 10.3695 18.9634 10.587 18.4614C10.8045 17.9594 10.8706 17.4048 10.7771 16.8658C10.6836 16.3268 10.4345 15.8268 10.0606 15.4275C9.46419 14.7919 8.74402 14.285 7.94441 13.9381C7.14481 13.5912 6.28268 13.4115 5.41106 13.4102Z" fill="white"/>
<path d="M5.4105 11.7507C6.01936 11.7507 6.61455 11.5701 7.1208 11.2319C7.62705 10.8936 8.02162 10.4128 8.25463 9.8503C8.48763 9.28778 8.54859 8.6688 8.42981 8.07164C8.31103 7.47448 8.01783 6.92595 7.5873 6.49542C7.15677 6.06488 6.60824 5.77169 6.01108 5.6529C5.41392 5.53412 4.79494 5.59508 4.23242 5.82808C3.66991 6.06108 3.18912 6.45566 2.85085 6.96191C2.51258 7.46816 2.33203 8.06335 2.33203 8.67221C2.33236 9.48857 2.6568 10.2714 3.23406 10.8487C3.81131 11.4259 4.59414 11.7504 5.4105 11.7507Z" fill="white"/>
<path d="M15.0238 10.4538C15.91 10.4538 16.7763 10.1911 17.5132 9.69869C18.2501 9.20633 18.8244 8.50652 19.1635 7.68776C19.5027 6.86899 19.5914 5.96805 19.4185 5.09885C19.2456 4.22966 18.8189 3.43125 18.1922 2.80459C17.5656 2.17794 16.7672 1.75118 15.898 1.57829C15.0288 1.40539 14.1278 1.49413 13.3091 1.83327C12.4903 2.17242 11.7905 2.74674 11.2981 3.4836C10.8058 4.22047 10.543 5.0868 10.543 5.97302C10.5442 7.16103 11.0167 8.30002 11.8568 9.14007C12.6968 9.98011 13.8358 10.4526 15.0238 10.4538ZM15.0238 6.34797C14.6889 6.34861 14.3651 6.22783 14.1123 6.00801C13.8596 5.78819 13.6952 5.48423 13.6494 5.15243C13.6036 4.82064 13.6797 4.48351 13.8635 4.20348C14.0472 3.92346 14.3262 3.71953 14.6488 3.62947L14.6451 2.9433C14.6451 2.84418 14.6843 2.74909 14.7543 2.67882C14.8242 2.60856 14.9191 2.56883 15.0182 2.56834C15.1173 2.56784 15.2126 2.60661 15.2832 2.67618C15.3538 2.74574 15.394 2.84044 15.395 2.93955L15.3988 3.62948C15.689 3.71231 15.9444 3.88737 16.1264 4.12819C16.3084 4.36901 16.407 4.66251 16.4074 4.96435C16.4074 5.0638 16.3679 5.15917 16.2976 5.22949C16.2273 5.29981 16.1319 5.33932 16.0325 5.33932C15.933 5.33932 15.8376 5.29981 15.7673 5.22949C15.697 5.15917 15.6575 5.0638 15.6575 4.96435C15.6579 4.83849 15.6209 4.71535 15.5512 4.61054C15.4815 4.50574 15.3822 4.42398 15.266 4.37564C15.1498 4.32731 15.0219 4.31456 14.8984 4.33902C14.7749 4.36349 14.6615 4.42406 14.5725 4.51306C14.4835 4.60206 14.4229 4.71548 14.3985 4.83894C14.374 4.96241 14.3868 5.09035 14.4351 5.20657C14.4834 5.32278 14.5652 5.42202 14.67 5.49172C14.7748 5.56141 14.8979 5.59842 15.0238 5.59805C15.3581 5.59846 15.681 5.71977 15.9329 5.93959C16.1848 6.15941 16.3488 6.46291 16.3944 6.7941C16.4401 7.1253 16.3645 7.46184 16.1815 7.74164C15.9985 8.02145 15.7205 8.22564 15.3988 8.31654L15.395 9.00649C15.394 9.10561 15.3538 9.20031 15.2832 9.26987C15.2126 9.33943 15.1173 9.37821 15.0182 9.37771C14.9191 9.37722 14.8242 9.33749 14.7543 9.26722C14.6843 9.19696 14.6451 9.10187 14.6451 9.00274L14.6488 8.31655C14.3578 8.23456 14.1015 8.05984 13.9187 7.81892C13.736 7.578 13.6369 7.28404 13.6364 6.98167C13.6364 6.88222 13.6759 6.78685 13.7462 6.71653C13.8166 6.64621 13.9119 6.60671 14.0114 6.60671C14.1108 6.60671 14.2062 6.64621 14.2765 6.71653C14.3468 6.78685 14.3864 6.88222 14.3864 6.98167C14.386 7.10738 14.4229 7.23037 14.4924 7.33509C14.562 7.43982 14.661 7.52157 14.777 7.57002C14.893 7.61847 15.0207 7.63143 15.1441 7.60728C15.2674 7.58312 15.3809 7.52292 15.47 7.4343C15.5592 7.34567 15.62 7.2326 15.6449 7.10939C15.6698 6.98617 15.6576 6.85834 15.6098 6.74206C15.5621 6.62579 15.4809 6.52628 15.3766 6.45614C15.2723 6.38599 15.1495 6.34835 15.0238 6.34797Z" fill="white"/>
<path d="M20.4965 3.5847C20.4768 3.53951 20.4485 3.49864 20.413 3.46443C20.3775 3.43021 20.3357 3.40333 20.2898 3.38532C20.2439 3.3673 20.1949 3.35851 20.1457 3.35944C20.0964 3.36038 20.0478 3.37101 20.0026 3.39075C19.9575 3.41049 19.9167 3.43894 19.8825 3.47447C19.8484 3.51 19.8215 3.55192 19.8036 3.59782C19.7857 3.64372 19.777 3.69271 19.778 3.74198C19.779 3.79126 19.7897 3.83984 19.8096 3.88497C20.12 4.59674 20.2678 5.36876 20.2423 6.14486C20.2168 6.92096 20.0186 7.68162 19.6622 8.37149C19.3057 9.06136 18.8 9.66309 18.1817 10.1329C17.5634 10.6027 16.8482 10.9288 16.088 11.0874C15.3279 11.246 14.5419 11.2332 13.7874 11.0498C13.0328 10.8664 12.3286 10.5172 11.726 10.0274C11.1234 9.53765 10.6376 8.91972 10.3039 8.21857C9.97015 7.51743 9.79693 6.7507 9.79681 5.97418C9.79696 5.92484 9.78738 5.87595 9.7686 5.83032C9.74983 5.78469 9.72224 5.74322 9.6874 5.70827C9.65257 5.67333 9.61118 5.6456 9.56561 5.62668C9.52004 5.60777 9.47118 5.59803 9.42184 5.59803C9.3725 5.59803 9.32364 5.60777 9.27807 5.62668C9.2325 5.6456 9.19112 5.67333 9.15628 5.70827C9.12145 5.74322 9.09385 5.78469 9.07508 5.83032C9.0563 5.87595 9.04672 5.92484 9.04688 5.97418C9.04751 6.86178 9.24595 7.73809 9.62776 8.53938C10.0096 9.34067 10.5652 10.0468 11.2541 10.6064C11.9431 11.166 12.7481 11.5651 13.6107 11.7745C14.4732 11.984 15.3716 11.9985 16.2405 11.8172C17.1093 11.6359 17.9269 11.2632 18.6337 10.7262C19.3404 10.1893 19.9186 9.50155 20.3263 8.71308C20.7339 7.92461 20.9607 7.05521 20.9901 6.16809C21.0196 5.28098 20.8509 4.39847 20.4965 3.5847Z" fill="white"/>
<path d="M15.0234 0.749952C15.8028 0.748464 16.5725 0.922032 17.2758 1.25784C17.9791 1.59366 18.598 2.08313 19.0869 2.69015C19.1178 2.72843 19.156 2.76023 19.1993 2.78374C19.2426 2.80725 19.29 2.82202 19.339 2.82718C19.388 2.83235 19.4375 2.82783 19.4847 2.81386C19.5319 2.7999 19.5759 2.77678 19.6142 2.74581C19.6524 2.71484 19.6842 2.67663 19.7078 2.63338C19.7313 2.59012 19.746 2.54265 19.7512 2.49369C19.7564 2.44472 19.7518 2.39522 19.7379 2.34801C19.7239 2.30079 19.7008 2.25679 19.6698 2.21851C19.1109 1.52437 18.4032 0.96464 17.599 0.580655C16.7948 0.19667 15.9146 -0.00176242 15.0234 1.17935e-05C14.924 1.17935e-05 14.8286 0.039517 14.7583 0.109837C14.6879 0.180157 14.6484 0.275531 14.6484 0.374978C14.6484 0.474425 14.6879 0.569799 14.7583 0.640119C14.8286 0.710439 14.924 0.749952 15.0234 0.749952Z" fill="white"/>
</svg>
