<svg width="23" height="23" viewBox="0 0 23 23" fill="none" xmlns="http://www.w3.org/2000/svg">
<path fill-rule="evenodd" clip-rule="evenodd" d="M19.6679 13.2771C19.6679 13.4324 19.542 13.5583 19.3866 13.5583C19.2313 13.5583 19.1054 13.4324 19.1054 13.2771V12.3181C19.1054 11.6988 18.5997 11.1931 17.9804 11.1931H11.5313V13.277C11.5313 13.4324 11.4054 13.5583 11.25 13.5583C11.0947 13.5583 10.9688 13.4324 10.9688 13.277V11.1931H4.51966C3.90034 11.1931 3.39466 11.6988 3.39466 12.3181V13.2771C3.39466 13.4324 3.26875 13.5583 3.11341 13.5583C2.95806 13.5583 2.83216 13.4324 2.83216 13.2771V12.3181C2.83216 11.3883 3.58989 10.6306 4.51966 10.6306H10.9688V9.22289C10.9688 9.06755 11.0947 8.94164 11.25 8.94164C11.4054 8.94164 11.5313 9.06755 11.5313 9.22289V10.6306H17.9804C18.9102 10.6306 19.6679 11.3883 19.6679 12.3181V13.2771ZM3.11341 18.2146C4.6878 18.2384 5.99495 19.4187 6.21784 20.9391C6.26251 21.2437 6.13764 21.5287 5.88334 21.7023C4.35522 22.746 1.87155 22.746 0.343421 21.7023C0.0891246 21.5287 -0.0357504 21.2437 0.0089215 20.9391C0.231859 19.4187 1.53902 18.2384 3.11341 18.2146ZM3.11341 14.4021C3.92331 14.4021 4.57984 15.0586 4.57984 15.8685C4.57984 16.6784 3.92331 17.3349 3.11341 17.3349C2.3035 17.3349 1.64697 16.6784 1.64697 15.8685C1.64697 15.0586 2.3035 14.4021 3.11341 14.4021ZM19.3866 18.2146C20.961 18.2384 22.2682 19.4187 22.4911 20.9391C22.5357 21.2437 22.4109 21.5287 22.1566 21.7023C20.6284 22.746 18.1448 22.746 16.6166 21.7023C16.3623 21.5287 16.2375 21.2437 16.2821 20.9391C16.5051 19.4187 17.8122 18.2384 19.3866 18.2146H19.3866ZM19.3866 14.4021C20.1965 14.4021 20.8531 15.0586 20.8531 15.8685C20.8531 16.6784 20.1965 17.3349 19.3866 17.3349C18.5767 17.3349 17.9202 16.6784 17.9202 15.8685C17.9202 15.0586 18.5767 14.4021 19.3866 14.4021ZM11.25 18.2146C12.8244 18.2384 14.1316 19.4187 14.3545 20.9391C14.3991 21.2437 14.2743 21.5287 14.02 21.7023C12.4918 22.746 10.0082 22.746 8.48003 21.7023C8.22573 21.5287 8.10086 21.2437 8.14553 20.9391C8.36847 19.4187 9.67558 18.2384 11.25 18.2146H11.25ZM11.25 14.4021C12.0599 14.4021 12.7165 15.0586 12.7165 15.8685C12.7165 16.6784 12.0599 17.3349 11.25 17.3349C10.4401 17.3349 9.78358 16.6784 9.78358 15.8685C9.78358 15.0586 10.4401 14.4021 11.25 14.4021ZM11.25 3.81258C12.8244 3.8363 14.1316 5.01666 14.3545 6.537C14.3991 6.84169 14.2743 7.12659 14.02 7.30027C12.4918 8.34389 10.0082 8.34389 8.48003 7.30027C8.22573 7.12659 8.10086 6.84169 8.14553 6.537C8.36847 5.01666 9.67558 3.8363 11.25 3.81258H11.25ZM11.25 0C12.0599 0 12.7165 0.656531 12.7165 1.46644C12.7165 2.27634 12.0599 2.93287 11.25 2.93287C10.4401 2.93287 9.78358 2.27634 9.78358 1.46644C9.78358 0.656531 10.4401 0 11.25 0Z" fill="white"/>
</svg>
