<svg width="23" height="20" viewBox="0 0 23 20" fill="none" xmlns="http://www.w3.org/2000/svg">
<path d="M22.2565 9.49H16.8175C15.8785 9.49 14.9915 9.85 14.3235 10.519L13.2565 11.586C12.9605 11.895 12.5365 12.062 12.1125 12.062H10.3895C9.96547 12.062 9.55347 11.895 9.25847 11.586L8.19147 10.519C7.52247 9.85 6.63547 9.49 5.68447 9.49H0.230469L1.82447 3.639C2.36447 1.505 4.28047 0 6.50447 0H15.9035C18.1275 0 20.0435 1.504 20.5835 3.652L22.2555 9.49H22.2565Z" fill="#CFCFCF"/>
<path d="M22.502 11.418V15.108C22.502 17.77 20.342 19.93 17.68 19.93H4.822C2.173 19.93 0 17.77 0 15.108V11.418H5.683C6.107 11.418 6.532 11.585 6.827 11.894L7.894 12.948C8.563 13.617 9.45 13.99 10.388 13.99H12.111C13.062 13.99 13.95 13.617 14.618 12.948L15.685 11.894C15.981 11.585 16.392 11.418 16.816 11.418H22.5H22.502Z" fill="#CFCFCF"/>
</svg>
