<svg width="21" height="18" viewBox="0 0 21 18" fill="none" xmlns="http://www.w3.org/2000/svg">
<path d="M16.7706 16.29C16.563 16.5867 16.2868 16.8288 15.9656 16.996C15.6444 17.1631 15.2876 17.2502 14.9256 17.25H6.07556C5.71348 17.2502 5.35668 17.1631 5.03548 16.996C4.71428 16.8288 4.43815 16.5867 4.23056 16.29C3.99694 15.9701 3.8425 15.5994 3.77992 15.2083C3.71734 14.8172 3.7484 14.4168 3.87056 14.04C4.29929 12.6059 5.1724 11.3451 6.36398 10.4392C7.55557 9.53342 9.00405 9.02944 10.5006 9C12.0002 9.02977 13.4514 9.53657 14.6436 10.4469C15.8357 11.3572 16.7068 12.6236 17.1306 14.0625C17.249 14.4361 17.2781 14.8322 17.2156 15.2191C17.153 15.6059 17.0006 15.9727 16.7706 16.29ZM20.8956 14.79C20.6178 14.0539 20.1805 13.3884 19.6151 12.8412C19.0498 12.294 18.3704 11.8786 17.6256 11.625C18.0203 12.2561 18.3352 12.9338 18.5631 13.6425C18.7483 14.2348 18.7939 14.8619 18.6964 15.4748C18.5988 16.0876 18.3606 16.6696 18.0006 17.175L17.9331 17.25H19.0806C19.3926 17.2504 19.7003 17.1764 19.9781 17.0343C20.2559 16.8921 20.4958 16.6858 20.6781 16.4325C20.8457 16.1944 20.953 15.9192 20.9909 15.6305C21.0288 15.3418 20.9961 15.0483 20.8956 14.775V14.79ZM3.00056 17.175C2.63121 16.6668 2.38708 16.0786 2.28803 15.4583C2.18898 14.8379 2.23782 14.2029 2.43056 13.605C2.66363 12.9089 2.98099 12.244 3.37556 11.625C2.62823 11.8827 1.94734 12.303 1.38191 12.8554C0.816478 13.4079 0.380568 14.0789 0.105559 14.82C0.00718641 15.0932 -0.0230536 15.3863 0.0174616 15.6738C0.0579769 15.9613 0.168024 16.2346 0.338059 16.47C0.524293 16.7164 0.765996 16.9155 1.04356 17.051C1.32112 17.1865 1.62672 17.2547 1.93556 17.25H3.08306L3.00056 17.175ZM10.5006 0C9.75888 0 9.03385 0.219934 8.41717 0.631989C7.80049 1.04404 7.31984 1.62971 7.03601 2.31494C6.75218 3.00016 6.67792 3.75416 6.82261 4.48159C6.96731 5.20902 7.32446 5.8772 7.84891 6.40165C8.37335 6.9261 9.04154 7.28325 9.76897 7.42794C10.4964 7.57264 11.2504 7.49838 11.9356 7.21455C12.6208 6.93072 13.2065 6.45007 13.6186 5.83339C14.0306 5.2167 14.2506 4.49168 14.2506 3.75C14.2506 2.75544 13.8555 1.80161 13.1522 1.09835C12.4489 0.395088 11.4951 0 10.5006 0ZM18.7506 7.875C18.7506 8.32001 18.6186 8.75502 18.3714 9.12503C18.1241 9.49504 17.7727 9.78343 17.3616 9.95373C16.9505 10.124 16.4981 10.1686 16.0616 10.0818C15.6251 9.99495 15.2242 9.78066 14.9096 9.46599C14.5949 9.15132 14.3806 8.75041 14.2938 8.31395C14.207 7.8775 14.2515 7.4251 14.4218 7.01396C14.5921 6.60283 14.8805 6.25143 15.2505 6.00419C15.6205 5.75696 16.0556 5.625 16.5006 5.625C17.0973 5.625 17.6696 5.86205 18.0915 6.28401C18.5135 6.70597 18.7506 7.27826 18.7506 7.875ZM6.75056 7.875C6.75056 8.32001 6.6186 8.75502 6.37137 9.12503C6.12413 9.49504 5.77273 9.78343 5.3616 9.95373C4.95046 10.124 4.49806 10.1686 4.06161 10.0818C3.62515 9.99495 3.22424 9.78066 2.90957 9.46599C2.5949 9.15132 2.38061 8.75041 2.29379 8.31395C2.20698 7.8775 2.25153 7.4251 2.42183 7.01396C2.59213 6.60283 2.88051 6.25143 3.25053 6.00419C3.62054 5.75696 4.05555 5.625 4.50056 5.625C5.0973 5.625 5.66959 5.86205 6.09155 6.28401C6.51351 6.70597 6.75056 7.27826 6.75056 7.875Z" fill="#CFCFCF"/>
</svg>
