<svg width="18" height="18" viewBox="0 0 18 18" fill="none" xmlns="http://www.w3.org/2000/svg">
<path d="M9.00001 0C7.21997 0 5.47992 0.527841 3.99987 1.51677C2.51983 2.50571 1.36628 3.91131 0.685088 5.55585C0.00389955 7.20038 -0.17433 9.00998 0.172937 10.7558C0.520204 12.5016 1.37737 14.1053 2.63604 15.364C3.89472 16.6226 5.49836 17.4798 7.24419 17.8271C8.99002 18.1743 10.7996 17.9961 12.4442 17.3149C14.0887 16.6337 15.4943 15.4802 16.4832 14.0001C17.4722 12.5201 18 10.78 18 9C17.9968 6.61404 17.0475 4.32673 15.3604 2.63961C13.6733 0.952477 11.386 0.00322863 9.00001 0ZM9.76272 12.661C9.76272 12.8633 9.68236 13.0573 9.53932 13.2003C9.39629 13.3434 9.20229 13.4237 9.00001 13.4237C8.79772 13.4237 8.60372 13.3434 8.46069 13.2003C8.31765 13.0573 8.23729 12.8633 8.23729 12.661V8.38983C8.23729 8.18755 8.31765 7.99355 8.46069 7.85051C8.60372 7.70748 8.79772 7.62712 9.00001 7.62712C9.20229 7.62712 9.39629 7.70748 9.53932 7.85051C9.68236 7.99355 9.76272 8.18755 9.76272 8.38983V12.661ZM9.76272 5.69593C9.76272 5.89822 9.68236 6.09222 9.53932 6.23525C9.39629 6.37829 9.20229 6.45864 9.00001 6.45864C8.79772 6.45864 8.60372 6.37829 8.46069 6.23525C8.31765 6.09222 8.23729 5.89822 8.23729 5.69593V5.33898C8.23729 5.1367 8.31765 4.9427 8.46069 4.79966C8.60372 4.65663 8.79772 4.57627 9.00001 4.57627C9.20229 4.57627 9.39629 4.65663 9.53932 4.79966C9.68236 4.9427 9.76272 5.1367 9.76272 5.33898V5.69593Z" fill="#1F74BB"/>
</svg>
