<svg width="18" height="18" viewBox="0 0 18 18" fill="none" xmlns="http://www.w3.org/2000/svg">
<path fill-rule="evenodd" clip-rule="evenodd" d="M9.00046 11.3325C9.98606 11.3325 10.7853 12.1317 10.7853 13.1173C10.7853 14.1029 9.98606 14.9032 9.00046 14.9032C8.01485 14.9032 7.21463 14.1039 7.21463 13.1173C7.21463 12.1307 8.01387 11.3325 9.00046 11.3325ZM9.21171 8.4903C9.21171 8.60688 9.11704 8.70057 9.00046 8.70057C8.88388 8.70057 8.78921 8.60688 8.78921 8.4903V7.05027C8.78921 6.93467 8.88388 6.84 9.00046 6.84C9.11704 6.84 9.21171 6.93467 9.21171 7.05027V8.4903ZM15.5468 1.33203C14.933 1.33203 14.4347 1.82932 14.4347 2.44318C14.4347 3.05704 14.9329 3.55535 15.5468 3.55535C16.1607 3.55535 16.658 3.05708 16.658 2.44318C16.658 1.82928 16.1607 1.33203 15.5468 1.33203ZM11.1022 4.77014C11.0813 4.17719 10.6348 3.77659 10.0409 3.5693C9.4539 4.11243 8.54705 4.11243 7.95906 3.5693C7.3651 3.77659 6.91967 4.17719 6.89773 4.77014V5.75574H11.1022V4.77014ZM17.6486 4.77014C17.6266 4.17719 17.1812 3.77659 16.5872 3.5693C15.9993 4.11243 15.0934 4.11243 14.5054 3.5693C13.9115 3.77659 13.466 4.17719 13.4441 4.77014V5.75574H17.6486V4.77014ZM4.55681 4.77014C4.53488 4.17719 4.08945 3.77659 3.49548 3.5693C2.90753 4.11243 2.00064 4.11243 1.41367 3.5693C0.819705 3.77659 0.373256 4.17719 0.351318 4.77014V5.75574H4.55678V4.77014H4.55681ZM2.45408 1.33203C1.84022 1.33203 1.34294 1.82932 1.34294 2.44318C1.34294 3.05704 1.84022 3.55535 2.45408 3.55535C3.06795 3.55535 3.56625 3.05708 3.56625 2.44318C3.56625 1.82928 3.06798 1.33203 2.45408 1.33203ZM9.00046 1.33203C8.3866 1.33203 7.88829 1.82932 7.88829 2.44318C7.88829 3.05704 8.38656 3.55535 9.00046 3.55535C9.61436 3.55535 10.1116 3.05708 10.1116 2.44318C10.1116 1.82928 9.61432 1.33203 9.00046 1.33203ZM13.7022 13.3286C13.5866 13.3286 13.492 13.2339 13.492 13.1173C13.492 13.0007 13.5866 12.907 13.7022 12.907H14.5871C14.9987 12.907 15.3355 12.5702 15.3355 12.1576V7.05027C15.3355 6.93467 15.4302 6.84 15.5468 6.84C15.6624 6.84 15.7571 6.93467 15.7571 7.05027V12.1576C15.7571 12.8034 15.2319 13.3286 14.5871 13.3286H13.7022ZM4.29771 12.907C4.41433 12.907 4.509 13.0007 4.509 13.1173C4.509 13.2339 4.41433 13.3286 4.29771 13.3286H3.41378C2.76901 13.3286 2.24283 12.8024 2.24283 12.1576V7.05027C2.24283 6.93467 2.33751 6.84 2.45408 6.84C2.57066 6.84 2.66537 6.93467 2.66537 7.05027V12.1576C2.66537 12.5702 3.0022 12.907 3.41378 12.907H4.29771ZM11.5118 15.6286L11.1809 15.9595C11.0833 16.0571 10.9238 16.0571 10.8251 15.9595L10.576 15.7103C10.3069 15.8748 10.018 15.9924 9.71898 16.0651V16.4179C9.71898 16.5564 9.60638 16.669 9.46783 16.669H8.53306C8.39454 16.669 8.28092 16.5564 8.28092 16.4179V16.0651C7.98293 15.9933 7.69296 15.8748 7.42388 15.7103L7.17476 15.9595C7.0771 16.0571 6.91766 16.0571 6.81898 15.9595L6.15825 15.2987C6.06059 15.2001 6.06059 15.0406 6.15825 14.9429L6.4074 14.6938C6.24298 14.4247 6.12538 14.1347 6.05264 13.8368H5.69985C5.56133 13.8368 5.44869 13.7232 5.44869 13.5846V12.6498C5.44869 12.5113 5.5613 12.3987 5.69985 12.3987H6.05264C6.1244 12.0998 6.24298 11.8108 6.4074 11.5407L6.15825 11.2926C6.06059 11.1949 6.06059 11.0345 6.15825 10.9368L6.81898 10.2761C6.91763 10.1774 7.0771 10.1774 7.17476 10.2761L7.42388 10.5242C7.69296 10.3608 7.98293 10.2422 8.28092 10.1694V9.81766C8.28092 9.67915 8.39451 9.56552 8.53306 9.56552H9.46783C9.60634 9.56552 9.71898 9.67915 9.71898 9.81766V10.1694C10.018 10.2422 10.3069 10.3608 10.576 10.5242L10.8251 10.2761C10.9238 10.1774 11.0833 10.1774 11.1809 10.2761L11.8416 10.9368C11.9403 11.0345 11.9403 11.1949 11.8416 11.2926L11.5935 11.5407C11.7579 11.8108 11.8755 12.0998 11.9482 12.3987H12.3C12.4385 12.3987 12.5522 12.5113 12.5522 12.6498V13.5846C12.5522 13.7231 12.4386 13.8368 12.3 13.8368H11.9482C11.8755 14.1347 11.7569 14.4247 11.5935 14.6938L11.8416 14.9429C11.9403 15.0406 11.9403 15.2 11.8416 15.2987L11.5118 15.6286ZM9.00046 10.9099C10.2192 10.9099 11.2079 11.8985 11.2079 13.1173C11.2079 14.336 10.2193 15.3246 9.00046 15.3246C7.78166 15.3246 6.79307 14.336 6.79307 13.1173C6.79307 11.8985 7.78166 10.9099 9.00046 10.9099ZM9.6273 12.4287C9.71002 12.346 9.84354 12.346 9.92528 12.4287C10.008 12.5104 10.008 12.6439 9.92528 12.7267L8.84602 13.8069C8.76329 13.8886 8.62977 13.8886 8.54803 13.8069L8.07465 13.3336C7.99295 13.2519 7.99295 13.1183 8.07465 13.0356C8.15738 12.9529 8.2909 12.9529 8.37362 13.0356L8.69653 13.3595L9.62733 12.4287H9.6273Z" fill="#CFCFCF"/>
</svg>
