<svg width="20" height="21" viewBox="0 0 20 21" fill="none" xmlns="http://www.w3.org/2000/svg">
<path d="M5.11431 2.178L5.27556 1.569C5.45481 0.8895 5.99256 0.348 6.68106 0.20475C7.29231 0.07725 7.90356 0.009 8.51406 0C9.12456 0.009 9.73581 0.07725 10.3486 0.20475C11.0371 0.348 11.5741 0.8895 11.7541 1.569L11.9153 2.178C12.1523 3.07575 11.4758 3.95475 10.5473 3.95475H6.48231C5.55381 3.95475 4.87656 3.07575 5.11431 2.178Z" fill="white"/>
<path d="M13.485 2.4375H13.3065C13.332 3.07725 13.137 3.7065 12.7358 4.22775C12.2085 4.9125 11.4098 5.3055 10.5458 5.3055H6.48075C5.616 5.3055 4.81725 4.91325 4.29 4.227C3.88875 3.70575 3.69375 3.07725 3.71925 2.4375H3.54C1.5825 2.4375 0 4.02 0 5.97V16.275C0 18.225 1.5825 19.815 3.54 19.815H11.007C10.5165 19.014 10.2285 18.0758 10.2285 17.0693C10.2285 14.1578 12.597 11.7892 15.5093 11.7892C16.0365 11.7892 16.5443 11.8695 17.025 12.0135V5.97C17.025 4.02 15.4425 2.4375 13.485 2.4375ZM8.5125 14.0355H4.6575C4.28475 14.0355 3.9825 13.7332 3.9825 13.3605C3.9825 12.9877 4.28475 12.6855 4.6575 12.6855H8.51325C8.886 12.6855 9.18825 12.9877 9.18825 13.3605C9.18825 13.7332 8.88525 14.0355 8.5125 14.0355ZM12.3683 11.0828H4.6575C4.28475 11.0828 3.9825 10.7805 3.9825 10.4078C3.9825 10.035 4.28475 9.73275 4.6575 9.73275H12.369C12.7418 9.73275 13.044 10.035 13.044 10.4078C13.044 10.7805 12.741 11.0828 12.3683 11.0828Z" fill="white"/>
<path d="M15.5089 13.1367C13.3384 13.1367 11.5781 14.8962 11.5781 17.0675C11.5781 19.2387 13.3376 20.9982 15.5089 20.9982C17.6801 20.9982 19.4396 19.2387 19.4396 17.0675C19.4396 14.8962 17.6794 13.1367 15.5089 13.1367ZM16.8611 18.4212C16.7291 18.5532 16.5574 18.6192 16.3841 18.6192C16.2109 18.6192 16.0384 18.5532 15.9064 18.4205L15.0304 17.5437C14.9036 17.4177 14.8324 17.246 14.8324 17.0667V15.623C14.8324 15.2502 15.1346 14.948 15.5074 14.948C15.8801 14.948 16.1824 15.2502 16.1824 15.623V16.787L16.8604 17.4665C17.1259 17.7312 17.1251 18.158 16.8611 18.4212Z" fill="white"/>
</svg>
