<svg width="32" height="32" viewBox="0 0 32 32" fill="none" xmlns="http://www.w3.org/2000/svg">
<rect width="32" height="32" rx="6" fill="#1F74BB"/>
<path fill-rule="evenodd" clip-rule="evenodd" d="M22.8579 19.0811C22.9054 19.0337 22.9697 19.007 23.0368 19.007C23.1039 19.007 23.1682 19.0336 23.2157 19.081C23.2632 19.1285 23.2898 19.1928 23.2898 19.2599C23.2899 19.327 23.2632 19.3913 23.2158 19.4388L22.8426 19.812L23.2158 20.1851C23.2617 20.2329 23.2871 20.2967 23.2864 20.363C23.2858 20.4293 23.2592 20.4926 23.2123 20.5395C23.1654 20.5863 23.1021 20.6129 23.0358 20.6136C22.9696 20.6142 22.9057 20.5889 22.8579 20.543L22.4848 20.1698L22.1116 20.543C22.0642 20.5904 21.9998 20.617 21.9327 20.617C21.8656 20.617 21.8013 20.5903 21.7539 20.5429C21.7064 20.4954 21.6798 20.4311 21.6798 20.364C21.6798 20.2969 21.7065 20.2325 21.754 20.1851L22.1271 19.812L21.754 19.4388C21.7065 19.3914 21.6799 19.327 21.6799 19.26C21.6799 19.1929 21.7065 19.1286 21.754 19.0811C21.8014 19.0337 21.8657 19.0071 21.9328 19.0071C21.9999 19.0071 22.0642 19.0337 22.1116 19.0811L22.4848 19.4543L22.8579 19.0811ZM11.1839 19.8634C11.0719 19.7515 10.9293 19.6754 10.7741 19.6445C10.6189 19.6137 10.458 19.6295 10.3117 19.6901C10.1655 19.7507 10.0406 19.8533 9.95264 19.9849C9.86472 20.1165 9.81779 20.2712 9.81779 20.4295C9.81779 20.5877 9.86472 20.7424 9.95264 20.874C10.0406 21.0056 10.1655 21.1082 10.3117 21.1688C10.458 21.2294 10.6189 21.2453 10.7741 21.2144C10.9293 21.1836 11.0719 21.1074 11.1839 20.9955C11.3338 20.8453 11.418 20.6417 11.418 20.4295C11.418 20.2172 11.3338 20.0136 11.1839 19.8634ZM10.6176 19.1231C10.876 19.123 11.1286 19.1996 11.3435 19.3432C11.5584 19.4867 11.7258 19.6908 11.8247 19.9295C11.9237 20.1682 11.9495 20.4309 11.8991 20.6844C11.8487 20.9378 11.7243 21.1706 11.5416 21.3534C11.3588 21.5361 11.126 21.6605 10.8726 21.7109C10.6191 21.7613 10.3564 21.7355 10.1177 21.6365C9.87896 21.5376 9.67492 21.3702 9.53138 21.1553C9.38783 20.9404 9.31124 20.6878 9.31127 20.4294C9.31132 20.0829 9.44896 19.7507 9.69393 19.5057C9.9389 19.2608 10.2711 19.1231 10.6176 19.1231ZM13.08 24.6348C12.8696 23.5202 11.7768 22.7936 10.6176 22.7936C9.45834 22.7936 8.36606 23.5202 8.15564 24.6348C8.82489 25.2564 9.70447 25.6019 10.6178 25.6019C11.5312 25.6019 12.4108 25.2564 13.08 24.6348ZM7.75188 24.192C7.3394 23.6566 7.08515 23.0163 7.01794 22.3438C6.95072 21.6712 7.07324 20.9933 7.3716 20.3868C7.66996 19.7804 8.13224 19.2696 8.70604 18.9124C9.27984 18.5552 9.94222 18.3659 10.6181 18.3659C11.294 18.3659 11.9564 18.5552 12.5302 18.9124C13.104 19.2696 13.5663 19.7804 13.8646 20.3868C14.163 20.9933 14.2855 21.6712 14.2183 22.3438C14.1511 23.0163 13.8968 23.6566 13.4843 24.192C13.0806 23.025 11.8859 22.2874 10.6176 22.2874C9.34925 22.2874 8.15546 23.025 7.75188 24.192ZM25 12.8117H9.88567V17.9239C10.5186 17.8104 11.1692 17.8464 11.7857 18.0289C12.4022 18.2114 12.9676 18.5354 13.4367 18.9751C13.9059 19.4148 14.2658 19.958 14.4879 20.5614C14.7099 21.1648 14.788 21.8117 14.7158 22.4507H24.22C24.4266 22.4499 24.6245 22.3675 24.7707 22.2214C24.9168 22.0754 24.9992 21.8775 25 21.6709V12.8117ZM12.78 8C12.6243 8.00062 12.4752 8.06273 12.3651 8.17282C12.255 8.2829 12.1929 8.43203 12.1923 8.58772V10.1629C12.195 10.3171 12.2581 10.464 12.368 10.572C12.478 10.68 12.6259 10.7406 12.7801 10.7406C12.9342 10.7406 13.0822 10.68 13.1921 10.572C13.3021 10.464 13.3652 10.3171 13.3679 10.1629V8.58772C13.3672 8.43202 13.3051 8.28289 13.1949 8.17281C13.0848 8.06273 12.9357 8.00062 12.78 8ZM17.4421 8C17.2864 8.00062 17.1373 8.06273 17.0272 8.17282C16.9171 8.2829 16.855 8.43203 16.8544 8.58772V10.1629C16.8544 10.3188 16.9163 10.4683 17.0265 10.5785C17.1368 10.6887 17.2862 10.7507 17.4421 10.7507C17.598 10.7507 17.7475 10.6887 17.8577 10.5785C17.9679 10.4683 18.0298 10.3188 18.0298 10.1629V8.58772C18.0292 8.43203 17.9671 8.2829 17.857 8.17282C17.7469 8.06273 17.5978 8.00062 17.4421 8ZM22.1043 8C21.9486 8.00062 21.7994 8.06273 21.6893 8.17281C21.5792 8.28289 21.517 8.43202 21.5164 8.58772V10.1629C21.5191 10.3171 21.5822 10.464 21.6921 10.572C21.8021 10.68 21.95 10.7406 22.1042 10.7406C22.2583 10.7406 22.4063 10.68 22.5162 10.572C22.6262 10.464 22.6893 10.3171 22.692 10.1629V8.58772C22.6914 8.43203 22.6292 8.2829 22.5192 8.17282C22.4091 8.06273 22.2599 8.00062 22.1043 8ZM23.1999 9.62833H24.2204C24.4269 9.62918 24.6248 9.71162 24.7708 9.85768C24.9168 10.0037 24.9992 10.2016 25 10.4081V12.3057H9.88567V10.4081C9.88647 10.2015 9.96891 10.0036 10.115 9.85755C10.2611 9.71148 10.459 9.62909 10.6656 9.62833H11.6861V10.1629C11.6861 10.4531 11.8013 10.7313 12.0065 10.9364C12.2116 11.1416 12.4899 11.2568 12.78 11.2568C13.0701 11.2568 13.3483 11.1416 13.5535 10.9364C13.7586 10.7313 13.8739 10.4531 13.8739 10.1629V9.62833H16.3489V10.1629C16.3489 10.4531 16.4642 10.7313 16.6693 10.9364C16.8745 11.1416 17.1527 11.2568 17.4428 11.2568C17.733 11.2568 18.0112 11.1416 18.2163 10.9364C18.4215 10.7313 18.5367 10.4531 18.5367 10.1629V9.62833H21.0118V10.1629C21.0118 10.4531 21.127 10.7313 21.3322 10.9364C21.5373 11.1416 21.8156 11.2568 22.1057 11.2568C22.3958 11.2568 22.674 11.1416 22.8792 10.9364C23.0843 10.7313 23.1996 10.4531 23.1996 10.1629V9.62833H23.1999ZM13.5711 14.0046V16.3447H11.231V14.0046H13.5711ZM10.9776 13.4986H13.8242C13.8574 13.4986 13.8903 13.5052 13.921 13.5179C13.9517 13.5306 13.9796 13.5493 14.0031 13.5728C14.0266 13.5963 14.0452 13.6242 14.0579 13.6549C14.0706 13.6856 14.0771 13.7185 14.0771 13.7517V16.5981C14.0771 16.6652 14.0505 16.7296 14.003 16.777C13.9556 16.8245 13.8913 16.8512 13.8242 16.8512H10.9776C10.9106 16.8509 10.8465 16.8241 10.7993 16.7767C10.7521 16.7293 10.7256 16.6651 10.7256 16.5981V13.7517C10.7255 13.6848 10.752 13.6205 10.7993 13.5731C10.8465 13.5256 10.9106 13.4989 10.9776 13.4986ZM18.613 14.0046V16.3447H16.273V14.0046H18.613ZM16.0195 13.4986H18.8661C18.9331 13.4989 18.9972 13.5256 19.0445 13.5731C19.0917 13.6205 19.1182 13.6848 19.1181 13.7517V16.5981C19.1181 16.6651 19.0916 16.7293 19.0444 16.7767C18.9972 16.8241 18.9331 16.8509 18.8661 16.8512H16.0195C15.9524 16.8512 15.8881 16.8245 15.8407 16.777C15.7933 16.7296 15.7666 16.6652 15.7666 16.5981V13.7517C15.7666 13.7185 15.7731 13.6856 15.7858 13.6549C15.7985 13.6242 15.8171 13.5963 15.8406 13.5728C15.8641 13.5493 15.892 13.5306 15.9227 13.5179C15.9534 13.5052 15.9863 13.4986 16.0195 13.4986ZM23.655 14.0046V16.3447H21.3149V14.0046H23.655ZM21.0615 13.4986H23.9081C23.9413 13.4986 23.9742 13.5052 24.0049 13.5179C24.0356 13.5306 24.0635 13.5493 24.087 13.5728C24.1105 13.5963 24.1291 13.6242 24.1418 13.6549C24.1545 13.6856 24.161 13.7185 24.161 13.7517V16.5981C24.161 16.6652 24.1344 16.7296 24.0869 16.777C24.0395 16.8245 23.9752 16.8512 23.9081 16.8512H21.0615C20.9944 16.8512 20.9301 16.8245 20.8826 16.777C20.8352 16.7296 20.8086 16.6652 20.8086 16.5981V13.7517C20.8086 13.7185 20.8151 13.6856 20.8278 13.6549C20.8405 13.6242 20.8591 13.5963 20.8826 13.5728C20.9061 13.5493 20.934 13.5306 20.9647 13.5179C20.9954 13.5052 21.0283 13.4986 21.0615 13.4986ZM18.6134 18.6417V20.9818H16.2733V18.6417H18.6134ZM16.0195 18.1357H18.8661C18.9331 18.136 18.9972 18.1628 19.0445 18.2102C19.0917 18.2576 19.1182 18.3219 19.1181 18.3888V21.2353C19.1181 21.3022 19.0916 21.3664 19.0444 21.4138C18.9972 21.4613 18.9331 21.4881 18.8661 21.4883H16.0195C15.9524 21.4883 15.8881 21.4616 15.8407 21.4142C15.7933 21.3667 15.7666 21.3023 15.7666 21.2353V18.3888C15.7666 18.3556 15.7731 18.3227 15.7858 18.292C15.7985 18.2613 15.8171 18.2334 15.8406 18.2099C15.8641 18.1864 15.892 18.1677 15.9227 18.155C15.9534 18.1423 15.9863 18.1357 16.0195 18.1357ZM23.655 18.6417H21.3149V20.9818H23.655V18.6417ZM21.0615 18.1357C21.0283 18.1357 20.9954 18.1423 20.9647 18.155C20.934 18.1677 20.9061 18.1864 20.8826 18.2099C20.8591 18.2334 20.8405 18.2613 20.8278 18.292C20.8151 18.3227 20.8086 18.3556 20.8086 18.3888V21.2353C20.8086 21.3023 20.8352 21.3667 20.8826 21.4142C20.9301 21.4616 20.9944 21.4883 21.0615 21.4883H23.9081C23.9752 21.4883 24.0395 21.4616 24.0869 21.4142C24.1344 21.3667 24.161 21.3023 24.161 21.2353V18.3888C24.161 18.3556 24.1545 18.3227 24.1418 18.292C24.1291 18.2613 24.1105 18.2334 24.087 18.2099C24.0635 18.1864 24.0356 18.1677 24.0049 18.155C23.9742 18.1423 23.9413 18.1357 23.9081 18.1357H21.0615ZM16.5455 15.5147C16.5214 15.492 16.5019 15.4647 16.4883 15.4345C16.4747 15.4043 16.4672 15.3716 16.4662 15.3385C16.4651 15.3054 16.4707 15.2724 16.4824 15.2414C16.4942 15.2104 16.5119 15.182 16.5346 15.1578C16.5573 15.1337 16.5846 15.1142 16.6148 15.1006C16.645 15.087 16.6777 15.0795 16.7108 15.0785C16.7439 15.0775 16.7769 15.083 16.8079 15.0947C16.8389 15.1065 16.8673 15.1242 16.8915 15.1469L17.1158 15.3583L17.9865 14.4609C18.0096 14.4372 18.0371 14.4182 18.0675 14.4051C18.098 14.392 18.1307 14.3851 18.1638 14.3846C18.197 14.3842 18.2299 14.3902 18.2606 14.4025C18.2914 14.4148 18.3195 14.433 18.3432 14.4561C18.367 14.4792 18.3859 14.5067 18.399 14.5372C18.4121 14.5676 18.4191 14.6003 18.4195 14.6335C18.42 14.6666 18.4139 14.6995 18.4017 14.7303C18.3894 14.761 18.3712 14.7891 18.3481 14.8128L17.3064 15.8851C17.2837 15.9093 17.2565 15.9288 17.2263 15.9425C17.196 15.9561 17.1634 15.9637 17.1303 15.9647C17.0971 15.9657 17.0641 15.9602 17.0331 15.9484C17.0021 15.9366 16.9737 15.9189 16.9496 15.8961L16.5455 15.5143V15.5147ZM21.5875 15.5147C21.5387 15.4688 21.5101 15.4054 21.5081 15.3385C21.5061 15.2716 21.5307 15.2066 21.5766 15.1578C21.6224 15.1091 21.6858 15.0805 21.7527 15.0785C21.8197 15.0764 21.8847 15.1011 21.9334 15.1469L22.157 15.3583L23.0284 14.4609C23.0515 14.4372 23.0791 14.4182 23.1095 14.4051C23.1399 14.392 23.1727 14.3851 23.2058 14.3846C23.2389 14.3842 23.2718 14.3902 23.3026 14.4025C23.3334 14.4148 23.3614 14.433 23.3852 14.4561C23.4089 14.4792 23.4279 14.5067 23.441 14.5372C23.4541 14.5676 23.461 14.6003 23.4615 14.6335C23.4619 14.6666 23.4559 14.6995 23.4436 14.7303C23.4313 14.761 23.4131 14.7891 23.39 14.8128L22.3483 15.8851C22.3257 15.9093 22.2984 15.9288 22.2682 15.9425C22.238 15.9561 22.2054 15.9637 22.1722 15.9647C22.1391 15.9657 22.1061 15.9602 22.0751 15.9484C22.0441 15.9366 22.0157 15.9189 21.9916 15.8961L21.5875 15.5143V15.5147ZM16.5455 20.1518C16.4967 20.1059 16.4682 20.0426 16.4662 19.9756C16.4641 19.9087 16.4887 19.8437 16.5346 19.7949C16.5805 19.7462 16.6439 19.7176 16.7108 19.7156C16.7777 19.7135 16.8427 19.7382 16.8915 19.7841L17.1158 19.9954L17.9872 19.0984C18.0338 19.0505 18.0976 19.023 18.1645 19.0221C18.2315 19.0212 18.296 19.0469 18.3439 19.0936C18.3919 19.1402 18.4193 19.204 18.4203 19.2709C18.4212 19.3378 18.3955 19.4024 18.3488 19.4503L17.3071 20.5226C17.2844 20.5468 17.2572 20.5663 17.227 20.5799C17.1968 20.5936 17.1641 20.6011 17.131 20.6022C17.0979 20.6032 17.0648 20.5976 17.0338 20.5859C17.0028 20.5741 16.9745 20.5563 16.9503 20.5336L16.5462 20.1518H16.5455ZM11.6701 14.8017C11.6226 14.7543 11.596 14.6899 11.596 14.6228C11.596 14.5558 11.6226 14.4914 11.6701 14.444C11.7175 14.3966 11.7818 14.3699 11.8489 14.3699C11.916 14.3699 11.9803 14.3966 12.0277 14.444L12.4009 14.8172L12.774 14.444C12.7975 14.4205 12.8254 14.4019 12.8561 14.3892C12.8868 14.3764 12.9197 14.3699 12.9529 14.3699C12.9861 14.3699 13.019 14.3764 13.0497 14.3891C13.0804 14.4018 13.1083 14.4204 13.1318 14.4439C13.1553 14.4674 13.1739 14.4953 13.1867 14.526C13.1994 14.5567 13.2059 14.5896 13.2059 14.6228C13.2059 14.656 13.1994 14.6889 13.1867 14.7196C13.174 14.7503 13.1554 14.7782 13.1319 14.8017L12.7596 15.1748L13.1328 15.548C13.1787 15.5958 13.2041 15.6596 13.2034 15.7259C13.2028 15.7921 13.1762 15.8555 13.1293 15.9024C13.0824 15.9492 13.0191 15.9758 12.9528 15.9765C12.8866 15.9771 12.8227 15.9518 12.7749 15.9058L12.4018 15.5327L12.0286 15.9058C12.0051 15.9293 11.9772 15.9479 11.9465 15.9607C11.9159 15.9734 11.883 15.9799 11.8497 15.9799C11.8165 15.9799 11.7836 15.9733 11.7529 15.9606C11.7222 15.9479 11.6944 15.9292 11.6709 15.9057C11.6474 15.8822 11.6288 15.8544 11.6161 15.8237C11.6033 15.793 11.5968 15.7601 11.5968 15.7268C11.5968 15.6936 11.6034 15.6607 11.6161 15.63C11.6288 15.5994 11.6475 15.5715 11.671 15.548L12.0441 15.1748L11.6701 14.8017Z" fill="white"/>
</svg>
