<svg width="57" height="56" viewBox="0 0 57 56" fill="none" xmlns="http://www.w3.org/2000/svg">
<path fill-rule="evenodd" clip-rule="evenodd" d="M49.7763 34.7824C49.9252 34.6335 50.1271 34.5498 50.3377 34.5497C50.5483 34.5497 50.7503 34.6333 50.8993 34.7822C51.0482 34.931 51.1319 35.133 51.132 35.3436C51.132 35.5542 51.0484 35.7562 50.8996 35.9051L49.7283 37.0764L50.8996 38.2477C51.0437 38.3976 51.1233 38.5981 51.1213 38.8061C51.1192 39.0141 51.0357 39.2129 50.8886 39.36C50.7416 39.5071 50.5427 39.5906 50.3347 39.5926C50.1267 39.5947 49.9262 39.5151 49.7763 39.3709L48.605 38.1997L47.4337 39.3709C47.2848 39.5198 47.0828 39.6034 46.8722 39.6034C46.6616 39.6033 46.4596 39.5196 46.3108 39.3707C46.1619 39.2217 46.0783 39.0197 46.0783 38.8091C46.0784 38.5985 46.1621 38.3966 46.3111 38.2477L47.4823 37.0764L46.3111 35.9051C46.1622 35.7562 46.0785 35.5543 46.0785 35.3438C46.0785 35.1332 46.1622 34.9313 46.3111 34.7824C46.4599 34.6336 46.6619 34.5499 46.8724 34.5499C47.0829 34.5499 47.2849 34.6336 47.4337 34.7824L48.605 35.9537L49.7763 34.7824ZM13.1327 37.238C12.7813 36.8868 12.3337 36.6477 11.8465 36.5508C11.3592 36.454 10.8542 36.5038 10.3952 36.694C9.93625 36.8841 9.54399 37.2061 9.26801 37.6192C8.99203 38.0323 8.84473 38.5179 8.84473 39.0147C8.84473 39.5115 8.99203 39.9971 9.26801 40.4102C9.54399 40.8233 9.93625 41.1453 10.3952 41.3354C10.8542 41.5256 11.3592 41.5754 11.8465 41.4786C12.3337 41.3817 12.7813 41.1426 13.1327 40.7914C13.6033 40.3199 13.8677 39.6809 13.8677 39.0147C13.8677 38.3485 13.6033 37.7095 13.1327 37.238ZM11.3552 34.9141C12.1663 34.914 12.9592 35.1544 13.6337 35.605C14.3082 36.0555 14.8339 36.696 15.1443 37.4454C15.4548 38.1947 15.5361 39.0193 15.3778 39.8149C15.2196 40.6104 14.829 41.3412 14.2555 41.9147C13.6819 42.4883 12.9512 42.8789 12.1556 43.0371C11.3601 43.1953 10.5355 43.1141 9.78611 42.8036C9.03675 42.4931 8.39628 41.9674 7.94571 41.293C7.49514 40.6185 7.25471 39.8255 7.25482 39.0144C7.25497 37.927 7.68702 36.8841 8.45595 36.1152C9.22487 35.3463 10.2677 34.9142 11.3552 34.9141ZM19.0846 52.2149C18.4241 48.7163 14.9939 46.4353 11.3552 46.4353C7.71644 46.4353 4.28792 48.7163 3.62741 52.2149C5.72813 54.1659 8.48902 55.2503 11.356 55.2503C14.223 55.2503 16.9839 54.1659 19.0846 52.2149ZM2.36008 50.825C1.06535 49.1443 0.267272 47.1346 0.0562985 45.0235C-0.154675 42.9125 0.229891 40.7845 1.16641 38.8809C2.10294 36.9772 3.55397 35.374 5.35506 34.2528C7.15615 33.1316 9.23529 32.5373 11.3568 32.5373C13.4784 32.5373 15.5575 33.1316 17.3586 34.2528C19.1597 35.374 20.6108 36.9772 21.5473 38.8809C22.4838 40.7845 22.8684 42.9125 22.6574 45.0235C22.4464 47.1346 21.6483 49.1443 20.3536 50.825C19.0863 47.162 15.3363 44.8465 11.3552 44.8465C7.37404 44.8465 3.62685 47.162 2.36008 50.825ZM56.5 15.1035H9.05779V31.1499C11.0443 30.7939 13.0866 30.9067 15.0218 31.4796C16.957 32.0525 18.7316 33.0695 20.2042 34.4497C21.6768 35.8298 22.8066 37.5348 23.5036 39.4288C24.2007 41.3229 24.4456 43.3535 24.2189 45.359H54.0518C54.7003 45.3566 55.3215 45.098 55.7801 44.6395C56.2387 44.181 56.4975 43.5598 56.5 42.9113V15.1035ZM18.1427 0C17.654 0.00193417 17.1859 0.196915 16.8404 0.54246C16.4948 0.888005 16.2999 1.35611 16.2979 1.84478V6.78924C16.3064 7.27299 16.5045 7.73407 16.8496 8.07318C17.1947 8.41228 17.6592 8.6023 18.143 8.6023C18.6268 8.6023 19.0913 8.41228 19.4364 8.07318C19.7815 7.73407 19.9796 7.27299 19.988 6.78924V1.84478C19.986 1.35606 19.7909 0.887954 19.4452 0.542425C19.0996 0.196896 18.6314 0.00193318 18.1427 0ZM32.7766 0C32.288 0.00193417 31.8199 0.196915 31.4743 0.54246C31.1288 0.888005 30.9338 1.35611 30.9319 1.84478V6.78924C30.9319 7.27851 31.1262 7.74774 31.4722 8.0937C31.8181 8.43966 32.2874 8.63402 32.7766 8.63402C33.2659 8.63402 33.7351 8.43966 34.0811 8.0937C34.4271 7.74774 34.6214 7.27851 34.6214 6.78924V1.84478C34.6195 1.35611 34.4245 0.888005 34.079 0.54246C33.7334 0.196915 33.2653 0.00193417 32.7766 0ZM47.4106 0C46.9219 0.00193318 46.4537 0.196896 46.1081 0.542425C45.7624 0.887954 45.5673 1.35606 45.5652 1.84478V6.78924C45.5737 7.27299 45.7718 7.73407 46.1169 8.07318C46.462 8.41228 46.9265 8.6023 47.4103 8.6023C47.8941 8.6023 48.3586 8.41228 48.7037 8.07318C49.0488 7.73407 49.2469 7.27299 49.2554 6.78924V1.84478C49.2534 1.35611 49.0584 0.888005 48.7129 0.54246C48.3673 0.196915 47.8992 0.00193417 47.4106 0ZM50.8498 5.11114H54.0529C54.7012 5.11382 55.3222 5.37258 55.7805 5.83104C56.2389 6.2895 56.4975 6.91051 56.5 7.5588V13.5152H9.05779V7.5588C9.06032 6.91032 9.31909 6.28913 9.77769 5.83064C10.2363 5.37215 10.8575 5.11352 11.506 5.11114H14.7091V6.78924C14.7091 7.69989 15.0708 8.57324 15.7148 9.21717C16.3587 9.8611 17.232 10.2229 18.1427 10.2229C19.0533 10.2229 19.9267 9.8611 20.5706 9.21717C21.2146 8.57324 21.5763 7.69989 21.5763 6.78924V5.11114H29.3453V6.78924C29.3453 7.69989 29.707 8.57324 30.351 9.21717C30.9949 9.8611 31.8682 10.2229 32.7789 10.2229C33.6895 10.2229 34.5629 9.8611 35.2068 9.21717C35.8507 8.57324 36.2125 7.69989 36.2125 6.78924V5.11114H43.9815V6.78924C43.9815 7.69989 44.3432 8.57324 44.9872 9.21717C45.6311 9.8611 46.5044 10.2229 47.4151 10.2229C48.3257 10.2229 49.1991 9.8611 49.843 9.21717C50.4869 8.57324 50.8487 7.69989 50.8487 6.78924V5.11114H50.8498ZM20.6259 18.8478V26.1931H13.2807V18.8478H20.6259ZM12.4852 17.2596H21.4204C21.5247 17.2596 21.6279 17.2801 21.7243 17.3201C21.8206 17.36 21.9082 17.4185 21.9819 17.4923C22.0556 17.5661 22.1141 17.6536 22.1539 17.75C22.1938 17.8464 22.2143 17.9497 22.2142 18.054V26.9886C22.2142 27.1992 22.1306 27.4012 21.9817 27.5501C21.8329 27.6991 21.631 27.7829 21.4204 27.783H12.4852C12.2751 27.7821 12.0739 27.698 11.9256 27.5491C11.7774 27.4003 11.6942 27.1987 11.6942 26.9886V18.054C11.694 17.8438 11.7772 17.6422 11.9255 17.4933C12.0738 17.3444 12.275 17.2603 12.4852 17.2596ZM36.4521 18.8478V26.1931H29.1069V18.8478H36.4521ZM28.3113 17.2596H37.2465C37.4566 17.2603 37.6579 17.3444 37.8062 17.4933C37.9545 17.6422 38.0377 17.8438 38.0375 18.054V26.9886C38.0375 27.1987 37.9543 27.4003 37.806 27.5491C37.6578 27.698 37.4566 27.7821 37.2465 27.783H28.3113C28.1007 27.7829 27.8988 27.6991 27.7499 27.5501C27.6011 27.4012 27.5175 27.1992 27.5175 26.9886V18.054C27.5174 17.9497 27.5379 17.8464 27.5777 17.75C27.6176 17.6536 27.6761 17.5661 27.7498 17.4923C27.8235 17.4185 27.911 17.36 28.0074 17.3201C28.1037 17.2801 28.207 17.2596 28.3113 17.2596ZM52.2782 18.8478V26.1931H44.933V18.8478H52.2782ZM44.1374 17.2596H53.0726C53.1769 17.2596 53.2802 17.2801 53.3765 17.3201C53.4729 17.36 53.5604 17.4185 53.6341 17.4923C53.7079 17.5661 53.7663 17.6536 53.8062 17.75C53.8461 17.8464 53.8665 17.9497 53.8665 18.054V26.9886C53.8665 27.1992 53.7828 27.4012 53.634 27.5501C53.4851 27.6991 53.2832 27.7829 53.0726 27.783H44.1374C43.9268 27.7829 43.7249 27.6991 43.5761 27.5501C43.4272 27.4012 43.3436 27.1992 43.3436 26.9886V18.054C43.3435 17.9497 43.364 17.8464 43.4039 17.75C43.4437 17.6536 43.5022 17.5661 43.5759 17.4923C43.6496 17.4185 43.7372 17.36 43.8335 17.3201C43.9299 17.2801 44.0331 17.2596 44.1374 17.2596ZM36.4532 33.4032V40.7484H29.108V33.4032H36.4532ZM28.3113 31.815H37.2465C37.4566 31.8157 37.6579 31.8998 37.8062 32.0487C37.9545 32.1976 38.0377 32.3992 38.0375 32.6094V41.544C38.0375 41.7541 37.9543 41.9557 37.806 42.1045C37.6578 42.2534 37.4566 42.3375 37.2465 42.3384H28.3113C28.1007 42.3383 27.8988 42.2545 27.7499 42.1055C27.6011 41.9566 27.5175 41.7546 27.5175 41.544V32.6094C27.5174 32.5051 27.5379 32.4018 27.5777 32.3054C27.6176 32.209 27.6761 32.1215 27.7498 32.0477C27.8235 31.9739 27.911 31.9154 28.0074 31.8755C28.1037 31.8355 28.207 31.815 28.3113 31.815ZM52.2782 33.4032H44.933V40.7484H52.2782V33.4032ZM44.1374 31.815C44.0331 31.815 43.9299 31.8355 43.8335 31.8755C43.7372 31.9154 43.6496 31.9739 43.5759 32.0477C43.5022 32.1215 43.4437 32.209 43.4039 32.3054C43.364 32.4018 43.3435 32.5051 43.3436 32.6094V41.544C43.3436 41.7546 43.4272 41.9566 43.5761 42.1055C43.7249 42.2545 43.9268 42.3383 44.1374 42.3384H53.0726C53.2832 42.3383 53.4851 42.2545 53.634 42.1055C53.7828 41.9566 53.8665 41.7546 53.8665 41.544V32.6094C53.8665 32.5051 53.8461 32.4018 53.8062 32.3054C53.7663 32.209 53.7079 32.1215 53.6341 32.0477C53.5604 31.9739 53.4729 31.9154 53.3765 31.8755C53.2802 31.8355 53.1769 31.815 53.0726 31.815H44.1374ZM29.9623 23.5878C29.8865 23.5165 29.8255 23.4309 29.7827 23.336C29.74 23.2412 29.7164 23.1388 29.7132 23.0348C29.71 22.9307 29.7274 22.8271 29.7642 22.7298C29.8011 22.6325 29.8568 22.5434 29.9281 22.4676C29.9994 22.3918 30.0849 22.3308 30.1798 22.2881C30.2747 22.2453 30.3771 22.2217 30.4811 22.2185C30.5851 22.2154 30.6887 22.2327 30.786 22.2696C30.8834 22.3064 30.9725 22.3621 31.0483 22.4334L31.7523 23.0968L34.4852 20.2802C34.5578 20.2056 34.6443 20.1461 34.7398 20.105C34.8353 20.0639 34.938 20.042 35.042 20.0406C35.146 20.0392 35.2493 20.0583 35.3459 20.0967C35.4425 20.1352 35.5306 20.1924 35.6051 20.2649C35.6796 20.3374 35.7392 20.4239 35.7803 20.5195C35.8214 20.615 35.8433 20.7177 35.8447 20.8217C35.8461 20.9257 35.827 21.0289 35.7885 21.1255C35.75 21.2221 35.6929 21.3102 35.6204 21.3848L32.3506 24.7506C32.2794 24.8265 32.194 24.8876 32.0991 24.9305C32.0042 24.9733 31.9019 24.997 31.7978 25.0002C31.6938 25.0034 31.5902 24.9861 31.4928 24.9491C31.3955 24.9122 31.3065 24.8564 31.2308 24.785L29.9623 23.5866V23.5878ZM45.7884 23.5878C45.6353 23.4438 45.5457 23.2448 45.5393 23.0348C45.5329 22.8247 45.6102 22.6207 45.7542 22.4676C45.8982 22.3145 46.0972 22.2249 46.3072 22.2185C46.5173 22.2121 46.7213 22.2894 46.8744 22.4334L47.5761 23.0968L50.3114 20.2802C50.3839 20.2056 50.4704 20.1461 50.5659 20.105C50.6615 20.0639 50.7642 20.042 50.8681 20.0406C50.9721 20.0392 51.0754 20.0583 51.172 20.0967C51.2686 20.1352 51.3567 20.1924 51.4312 20.2649C51.5058 20.3374 51.5653 20.4239 51.6064 20.5195C51.6475 20.615 51.6694 20.7177 51.6708 20.8217C51.6722 20.9257 51.6531 21.0289 51.6146 21.1255C51.5762 21.2221 51.519 21.3102 51.4465 21.3848L48.1767 24.7506C48.1056 24.8265 48.0201 24.8876 47.9252 24.9305C47.8304 24.9733 47.728 24.997 47.624 25.0002C47.5199 25.0034 47.4163 24.9861 47.319 24.9491C47.2217 24.9122 47.1326 24.8564 47.0569 24.785L45.7884 23.5866V23.5878ZM29.9623 38.1432C29.8092 37.9991 29.7196 37.8002 29.7132 37.5902C29.7068 37.3801 29.7841 37.1761 29.9281 37.023C30.0721 36.8699 30.271 36.7803 30.4811 36.7739C30.6912 36.7675 30.8952 36.8448 31.0483 36.9888L31.7523 37.6522L34.4875 34.8367C34.634 34.6862 34.8343 34.6 35.0443 34.5971C35.2543 34.5943 35.4568 34.6749 35.6074 34.8214C35.7579 34.9679 35.8441 35.1682 35.8469 35.3782C35.8498 35.5882 35.7691 35.7908 35.6226 35.9413L32.3529 39.3071C32.2817 39.383 32.1962 39.4442 32.1014 39.487C32.0065 39.5299 31.9041 39.5536 31.8001 39.5568C31.6961 39.56 31.5924 39.5426 31.4951 39.5057C31.3978 39.4687 31.3087 39.413 31.233 39.3416L29.9645 38.1432H29.9623ZM14.6588 21.3497C14.5099 21.2009 14.4263 20.9989 14.4263 20.7884C14.4263 20.5778 14.5099 20.3759 14.6588 20.227C14.8077 20.0782 15.0096 19.9945 15.2201 19.9945C15.4307 19.9945 15.6326 20.0782 15.7815 20.227L16.9528 21.3983L18.1241 20.227C18.1978 20.1533 18.2853 20.0948 18.3816 20.0548C18.478 20.0149 18.5812 19.9944 18.6855 19.9943C18.7898 19.9943 18.893 20.0148 18.9894 20.0547C19.0857 20.0946 19.1733 20.153 19.247 20.2268C19.3208 20.3005 19.3793 20.388 19.4192 20.4843C19.4591 20.5807 19.4797 20.6839 19.4797 20.7882C19.4798 20.8925 19.4593 20.9957 19.4194 21.0921C19.3795 21.1884 19.321 21.276 19.2473 21.3497L18.0789 22.521L19.2501 23.6923C19.3943 23.8422 19.4739 24.0427 19.4718 24.2507C19.4698 24.4587 19.3863 24.6575 19.2392 24.8046C19.0921 24.9517 18.8932 25.0352 18.6853 25.0372C18.4773 25.0393 18.2768 24.9597 18.1269 24.8155L16.9556 23.6443L15.7843 24.8155C15.7106 24.8893 15.623 24.9477 15.5267 24.9876C15.4303 25.0275 15.3271 25.048 15.2228 25.048C15.1185 25.0479 15.0152 25.0274 14.9189 24.9875C14.8226 24.9475 14.7351 24.889 14.6613 24.8153C14.5876 24.7415 14.5292 24.654 14.4893 24.5576C14.4494 24.4613 14.4289 24.358 14.4289 24.2537C14.4289 24.1494 14.4495 24.0462 14.4894 23.9499C14.5294 23.8535 14.5879 23.766 14.6616 23.6923L15.8329 22.521L14.6588 21.3497Z" fill="#1F74BB" fill-opacity="0.5"/>
</svg>
