<svg width="32" height="32" viewBox="0 0 32 32" fill="none" xmlns="http://www.w3.org/2000/svg">
<rect width="32" height="32" rx="6" fill="#1F74BB"/>
<path d="M16.0009 16C17.7267 16 19.1259 14.6009 19.1259 12.875C19.1259 11.1491 17.7267 9.75 16.0009 9.75C14.275 9.75 12.8759 11.1491 12.8759 12.875C12.8759 14.6009 14.275 16 16.0009 16Z" fill="white"/>
<path d="M18.245 16.625C17.568 17.0339 16.7921 17.25 16.0012 17.25C15.2104 17.25 14.4345 17.0339 13.7575 16.625C12.9038 17.1615 12.2021 17.9081 11.7195 18.7934C11.2369 19.6787 10.9896 20.673 11.0012 21.6813C11.0095 21.8393 11.0798 21.9876 11.1968 22.0941C11.3138 22.2006 11.4682 22.2566 11.6262 22.25H20.3762C20.5343 22.2566 20.6887 22.2006 20.8057 22.0941C20.9227 21.9876 20.993 21.8393 21.0012 21.6813C21.0129 20.673 20.7656 19.6787 20.283 18.7934C19.8004 17.9081 19.0987 17.1615 18.245 16.625Z" fill="white"/>
<path d="M12.7501 15.8001C12.1908 15.1848 11.8218 14.4207 11.6876 13.6001C11.4649 13.5319 11.233 13.4982 11.0001 13.5001C10.5117 13.5007 10.0342 13.6443 9.62652 13.9132C9.21884 14.1821 8.89885 14.5645 8.70607 15.0132C8.51329 15.4619 8.45616 15.9573 8.54173 16.4381C8.6273 16.9189 8.85183 17.3642 9.18759 17.7188C9.53873 18.0927 9.99738 18.3483 10.5001 18.4501C10.7056 18.0266 10.9526 17.6246 11.2376 17.2501C11.6636 16.6913 12.1739 16.2022 12.7501 15.8001Z" fill="white"/>
<path d="M8.2824 18.5781C7.77616 19.2304 7.44293 20.0001 7.31365 20.8156C7.28611 20.9903 7.29641 21.1689 7.34386 21.3393C7.3913 21.5096 7.47478 21.6678 7.58865 21.8031C7.70785 21.9418 7.8555 22.0532 8.02158 22.1298C8.18766 22.2064 8.36827 22.2463 8.55115 22.2469H9.85115C9.78316 22.065 9.74926 21.8722 9.75115 21.6781C9.74923 20.9821 9.84817 20.2895 10.0449 19.6219C9.37104 19.4464 8.76022 19.0847 8.2824 18.5781Z" fill="white"/>
<path d="M23.5015 16.0001C23.5015 15.337 23.2381 14.7011 22.7693 14.2323C22.3004 13.7635 21.6645 13.5001 21.0015 13.5001C20.7686 13.4982 20.5367 13.5319 20.314 13.6001C20.1802 14.422 19.8087 15.1868 19.2452 15.8001C19.8305 16.2027 20.3474 16.6965 20.7765 17.2626C21.0574 17.6331 21.3003 18.0309 21.5015 18.4501C21.997 18.346 22.4499 18.0957 22.8015 17.7313C23.2497 17.2663 23.5005 16.6459 23.5015 16.0001Z" fill="white"/>
<path d="M24.6891 20.8172C24.557 20.0021 24.2193 19.2342 23.7079 18.5859L23.7016 18.5922C23.2271 19.0908 22.6234 19.4478 21.9579 19.6234C22.1546 20.2911 22.2536 20.9837 22.2516 21.6797C22.2535 21.8738 22.2196 22.0666 22.1516 22.2484H23.4454C23.6293 22.2486 23.811 22.209 23.9782 22.1324C24.1454 22.0558 24.2941 21.944 24.4141 21.8047C24.528 21.6694 24.6115 21.5112 24.6589 21.3408C24.7064 21.1705 24.7167 20.9919 24.6891 20.8172Z" fill="white"/>
</svg>
