<svg width="15" height="15" viewBox="0 0 15 15" fill="none" xmlns="http://www.w3.org/2000/svg">
<path fill-rule="evenodd" clip-rule="evenodd" d="M5.0625 10.6869V11.8125C5.0625 12.5584 5.35894 13.2739 5.886 13.8015C6.41362 14.3286 7.12913 14.625 7.875 14.625H11.8125C12.5584 14.625 13.2739 14.3286 13.8015 13.8015C14.3286 13.2739 14.625 12.5584 14.625 11.8125C14.625 9.31556 14.625 5.30944 14.625 2.8125C14.625 2.06663 14.3286 1.35113 13.8015 0.8235C13.2739 0.296438 12.5584 0 11.8125 0C10.5941 0 9.09337 0 7.875 0C6.32194 0 5.0625 1.25944 5.0625 2.8125V3.90431C5.0625 4.21481 5.3145 4.46681 5.625 4.46681C5.9355 4.46681 6.1875 4.21481 6.1875 3.90431V2.8125C6.1875 1.88044 6.94294 1.125 7.875 1.125H11.8125C12.2603 1.125 12.6894 1.30275 13.0056 1.61944C13.3223 1.93556 13.5 2.36475 13.5 2.8125V11.8125C13.5 12.2603 13.3223 12.6894 13.0056 13.0056C12.6894 13.3223 12.2603 13.5 11.8125 13.5C10.5941 13.5 9.09337 13.5 7.875 13.5C7.42725 13.5 6.99806 13.3223 6.68194 13.0056C6.36525 12.6894 6.1875 12.2603 6.1875 11.8125V10.6869C6.1875 10.3764 5.9355 10.1244 5.625 10.1244C5.3145 10.1244 5.0625 10.3764 5.0625 10.6869Z" fill="#059669"/>
<path fill-rule="evenodd" clip-rule="evenodd" d="M10.2431 6.7502H0.5625C0.252 6.7502 0 7.0022 0 7.3127C0 7.6232 0.252 7.8752 0.5625 7.8752H10.2628L8.03138 10.1066C7.812 10.3266 7.812 10.6826 8.03138 10.9026C8.25075 11.122 8.60738 11.122 8.82675 10.9026C8.82675 10.9026 10.2707 9.45864 11.2134 8.51589C11.8721 7.85664 11.8721 6.78845 11.2134 6.1292L8.82675 3.74308C8.60738 3.52314 8.25075 3.52314 8.03138 3.74308C7.812 3.96245 7.812 4.31908 8.03138 4.53845L10.2431 6.7502Z" fill="#059669"/>
</svg>
