<svg width="32" height="32" viewBox="0 0 32 32" fill="none" xmlns="http://www.w3.org/2000/svg">
<rect width="32" height="32" rx="6" fill="#1F74BB"/>
<path d="M24.7507 10.1693C24.6673 10.0859 24.6673 10.0026 24.584 10.0026C23.5007 9.08594 21.9173 8.91927 20.7507 9.58594L17.834 11.2526L13.2507 8.58594C13.0007 8.41927 12.6673 8.41927 12.4173 8.58594L11.4173 9.16927C11.0007 9.41927 10.834 9.91927 11.084 10.3359L11.334 10.5859L14.6673 13.0859L11.5007 14.9193C11.2507 15.0859 10.9173 15.1693 10.584 15.1693L7.50065 15.0026C7.25065 15.0026 7.08398 15.1693 7.08398 15.4193C7.08398 15.5026 7.08398 15.6693 7.25065 15.7526L9.91732 18.3359C10.4173 18.8359 11.2507 18.9193 11.9173 18.5859L16.334 16.0026L19.5007 14.1693L24.4173 11.3359C24.834 11.0026 25.0007 10.5026 24.7507 10.1693ZM23.5007 21.9193H8.50065C8.00065 21.9193 7.66732 22.2526 7.66732 22.7526C7.66732 23.2526 8.00065 23.5859 8.50065 23.5859H23.5007C24.0007 23.5859 24.334 23.2526 24.334 22.7526C24.334 22.2526 24.0007 21.9193 23.5007 21.9193Z" fill="white"/>
</svg>
