<svg width="48" height="48" viewBox="0 0 48 48" fill="none" xmlns="http://www.w3.org/2000/svg">
<rect width="48" height="48" rx="24" fill="white"/>
<path d="M33 12H15C14.2044 12 13.4413 12.3161 12.8787 12.8787C12.3161 13.4413 12 14.2044 12 15V33C12 33.7956 12.3161 34.5587 12.8787 35.1213C13.4413 35.6839 14.2044 36 15 36H33C33.7956 36 34.5587 35.6839 35.1213 35.1213C35.6839 34.5587 36 33.7956 36 33V15C36 14.2044 35.6839 13.4413 35.1213 12.8787C34.5587 12.3161 33.7956 12 33 12ZM13.5 17.7855C13.5 17.076 14.172 16.5 15 16.5H33C33.828 16.5 34.5 17.076 34.5 17.7855V33.2145C34.5 33.924 33.828 34.5 33 34.5H15C14.172 34.5 13.5 33.924 13.5 33.2145V17.7855Z" fill="#1F74BB"/>
<path d="M21.75 22.5C22.1478 22.5 22.5294 22.342 22.8107 22.0607C23.092 21.7794 23.25 21.3978 23.25 21C23.25 20.6022 23.092 20.2206 22.8107 19.9393C22.5294 19.658 22.1478 19.5 21.75 19.5C21.3522 19.5 20.9706 19.658 20.6893 19.9393C20.408 20.2206 20.25 20.6022 20.25 21C20.25 21.3978 20.408 21.7794 20.6893 22.0607C20.9706 22.342 21.3522 22.5 21.75 22.5ZM26.25 22.5C26.6478 22.5 27.0294 22.342 27.3107 22.0607C27.592 21.7794 27.75 21.3978 27.75 21C27.75 20.6022 27.592 20.2206 27.3107 19.9393C27.0294 19.658 26.6478 19.5 26.25 19.5C25.8522 19.5 25.4706 19.658 25.1893 19.9393C24.908 20.2206 24.75 20.6022 24.75 21C24.75 21.3978 24.908 21.7794 25.1893 22.0607C25.4706 22.342 25.8522 22.5 26.25 22.5ZM30.75 22.5C31.1478 22.5 31.5294 22.342 31.8107 22.0607C32.092 21.7794 32.25 21.3978 32.25 21C32.25 20.6022 32.092 20.2206 31.8107 19.9393C31.5294 19.658 31.1478 19.5 30.75 19.5C30.3522 19.5 29.9706 19.658 29.6893 19.9393C29.408 20.2206 29.25 20.6022 29.25 21C29.25 21.3978 29.408 21.7794 29.6893 22.0607C29.9706 22.342 30.3522 22.5 30.75 22.5ZM17.25 27C17.6478 27 18.0294 26.842 18.3107 26.5607C18.592 26.2794 18.75 25.8978 18.75 25.5C18.75 25.1022 18.592 24.7206 18.3107 24.4393C18.0294 24.158 17.6478 24 17.25 24C16.8522 24 16.4706 24.158 16.1893 24.4393C15.908 24.7206 15.75 25.1022 15.75 25.5C15.75 25.8978 15.908 26.2794 16.1893 26.5607C16.4706 26.842 16.8522 27 17.25 27ZM21.75 27C22.1478 27 22.5294 26.842 22.8107 26.5607C23.092 26.2794 23.25 25.8978 23.25 25.5C23.25 25.1022 23.092 24.7206 22.8107 24.4393C22.5294 24.158 22.1478 24 21.75 24C21.3522 24 20.9706 24.158 20.6893 24.4393C20.408 24.7206 20.25 25.1022 20.25 25.5C20.25 25.8978 20.408 26.2794 20.6893 26.5607C20.9706 26.842 21.3522 27 21.75 27ZM26.25 27C26.6478 27 27.0294 26.842 27.3107 26.5607C27.592 26.2794 27.75 25.8978 27.75 25.5C27.75 25.1022 27.592 24.7206 27.3107 24.4393C27.0294 24.158 26.6478 24 26.25 24C25.8522 24 25.4706 24.158 25.1893 24.4393C24.908 24.7206 24.75 25.1022 24.75 25.5C24.75 25.8978 24.908 26.2794 25.1893 26.5607C25.4706 26.842 25.8522 27 26.25 27ZM30.75 27C31.1478 27 31.5294 26.842 31.8107 26.5607C32.092 26.2794 32.25 25.8978 32.25 25.5C32.25 25.1022 32.092 24.7206 31.8107 24.4393C31.5294 24.158 31.1478 24 30.75 24C30.3522 24 29.9706 24.158 29.6893 24.4393C29.408 24.7206 29.25 25.1022 29.25 25.5C29.25 25.8978 29.408 26.2794 29.6893 26.5607C29.9706 26.842 30.3522 27 30.75 27ZM17.25 31.5C17.6478 31.5 18.0294 31.342 18.3107 31.0607C18.592 30.7794 18.75 30.3978 18.75 30C18.75 29.6022 18.592 29.2206 18.3107 28.9393C18.0294 28.658 17.6478 28.5 17.25 28.5C16.8522 28.5 16.4706 28.658 16.1893 28.9393C15.908 29.2206 15.75 29.6022 15.75 30C15.75 30.3978 15.908 30.7794 16.1893 31.0607C16.4706 31.342 16.8522 31.5 17.25 31.5ZM21.75 31.5C22.1478 31.5 22.5294 31.342 22.8107 31.0607C23.092 30.7794 23.25 30.3978 23.25 30C23.25 29.6022 23.092 29.2206 22.8107 28.9393C22.5294 28.658 22.1478 28.5 21.75 28.5C21.3522 28.5 20.9706 28.658 20.6893 28.9393C20.408 29.2206 20.25 29.6022 20.25 30C20.25 30.3978 20.408 30.7794 20.6893 31.0607C20.9706 31.342 21.3522 31.5 21.75 31.5ZM26.25 31.5C26.6478 31.5 27.0294 31.342 27.3107 31.0607C27.592 30.7794 27.75 30.3978 27.75 30C27.75 29.6022 27.592 29.2206 27.3107 28.9393C27.0294 28.658 26.6478 28.5 26.25 28.5C25.8522 28.5 25.4706 28.658 25.1893 28.9393C24.908 29.2206 24.75 29.6022 24.75 30C24.75 30.3978 24.908 30.7794 25.1893 31.0607C25.4706 31.342 25.8522 31.5 26.25 31.5Z" fill="#1F74BB"/>
</svg>
