<svg width="312" height="223" viewBox="0 0 312 223" fill="none" xmlns="http://www.w3.org/2000/svg">
<g opacity="0.86">
<path d="M78.7521 205.462C104.907 205.462 126.11 202.2 126.11 198.176C126.11 194.153 104.907 190.891 78.7521 190.891C52.5972 190.891 31.3945 194.153 31.3945 198.176C31.3945 202.2 52.5972 205.462 78.7521 205.462Z" fill="#DFDFEB"/>
<path d="M156.156 206.923C203.406 206.923 241.709 203.661 241.709 199.637C241.709 195.613 203.406 192.352 156.156 192.352C108.905 192.352 70.6016 195.613 70.6016 199.637C70.6016 203.661 108.905 206.923 156.156 206.923Z" fill="#DFDFEB"/>
<path d="M132.881 20.03C124.046 20.2706 116.737 27.3468 116.229 36.1702C115.929 41.3583 117.94 46.0793 121.324 49.4101C121.824 49.9022 122.056 50.6037 121.939 51.2955L120.669 58.8151L128.487 54.2595C128.933 54.0001 129.457 53.9047 129.963 54.0068C131.874 54.3923 133.899 54.4632 135.986 54.1472C143.71 52.9772 149.736 46.5829 150.448 38.8034C151.397 28.4352 143.115 19.7514 132.881 20.03Z" fill="#BCD5EB"/>
<path d="M132.578 43.1142L132.529 39.0114C133.128 38.8657 133.674 38.6758 134.168 38.4409C134.661 38.2065 135.095 37.9355 135.467 37.6275C135.839 37.3204 136.15 36.9763 136.402 36.5956C136.653 36.2154 136.842 35.8067 136.972 35.3699C137.102 34.9331 137.166 34.4718 137.166 33.9864C137.166 33.2907 136.996 32.635 136.656 32.0199C136.316 31.4053 135.83 30.9074 135.199 30.5268C134.568 30.1466 133.815 29.9563 132.942 29.9563C132.003 29.9563 131.133 30.2152 130.332 30.7332C129.531 31.2515 128.92 32.1332 128.499 33.3794L128.062 33.0879C128.435 31.9067 129.058 31.0001 129.932 30.369C130.806 29.7374 131.801 29.4219 132.918 29.4219C133.873 29.4219 134.71 29.6247 135.431 30.0289C136.15 30.4336 136.713 30.9801 137.118 31.6678C137.522 32.3556 137.725 33.1284 137.725 33.9864C137.725 34.6341 137.615 35.2407 137.397 35.8072C137.179 36.3737 136.871 36.8916 136.474 37.3609C136.078 37.8307 135.596 38.239 135.03 38.5867C134.463 38.9352 133.824 39.1977 133.112 39.376L133.064 43.1147L132.578 43.1142ZM132.287 46.1732C132.287 45.9628 132.343 45.7889 132.456 45.6512C132.57 45.5139 132.724 45.4449 132.918 45.4449C133.144 45.4449 133.306 45.5099 133.403 45.6392C133.501 45.7689 133.549 45.9467 133.549 46.1732C133.549 46.3675 133.496 46.5373 133.391 46.6831C133.285 46.8288 133.128 46.9014 132.917 46.9014C132.706 46.9014 132.549 46.8364 132.443 46.7071C132.338 46.5779 132.287 46.4 132.287 46.1732Z" fill="black"/>
<path d="M83.2217 187.922L83.983 193.66C83.983 193.66 98.2552 199.739 96.9314 199.827C95.6076 199.915 75.0977 198.591 75.0977 198.591L76.3047 188.175L83.2217 187.922Z" fill="black"/>
<path d="M79.2459 94.2511C79.2459 94.2511 78.1084 105.198 77.2557 105.767C76.4026 106.335 75.2656 106.62 75.2656 106.62L77.1136 94.1094L79.2459 94.2511Z" stroke="#424242" stroke-width="0.445714" stroke-miterlimit="10"/>
<path d="M56.7101 86.7266C56.7101 86.7266 50.9252 99.7891 52.6047 107.067L84.672 102.175L84.003 88.6052L56.7101 86.7266Z" fill="black"/>
<path d="M84.6712 102.175C84.6712 102.175 84.8526 133.516 85.0755 144.435C85.2983 155.354 87.2078 189.075 87.2078 189.075C87.2078 189.075 81.2196 192.376 74.9827 189.708C74.484 189.495 69.1113 101.883 69.1113 101.883L84.6712 102.175Z" fill="black"/>
<path d="M53.135 103.191L39.6035 189.365C39.6035 189.365 45.5128 194.902 52.9772 189.863L66.7364 119.474L73.4181 114.988L74.4134 102.148L53.135 103.191Z" fill="black"/>
<path d="M49.5821 187.229L50.814 192.18C50.814 192.18 59.8179 203.009 58.491 203.009C57.1641 203.009 42.3789 196.305 42.3789 196.305L44.2745 185.992L49.5821 187.229Z" fill="black"/>
<path d="M58.0773 92.0156C58.0773 92.0156 49.5499 127.868 43.2109 191.167" stroke="#424242" stroke-width="0.445714" stroke-miterlimit="10"/>
<path d="M63.9245 95.875C63.9245 95.875 60.9386 103.339 55.8379 103.464" stroke="#424242" stroke-width="0.445714" stroke-miterlimit="10"/>
<path d="M76.5365 190.228L72.1738 116.048L76.4358 111.578" stroke="#424242" stroke-width="0.445714" stroke-miterlimit="10"/>
<path d="M76.4793 49.2019C78.698 48.7477 80.3173 48.4219 80.3173 48.4219L94.1559 55.9799C94.1795 55.9928 94.2031 56.0057 94.2267 56.0186C98.7614 58.5209 100.766 62.7663 100.646 68.7161L101.318 77.3349L93.8193 71.2496L87.4799 83.4742L83.4538 97.906C61.9686 105.719 53.623 91.6914 53.623 91.6914L60.7416 76.2817L63.6169 62.05C64.983 54.747 69.2017 50.6919 76.4793 49.2019Z" fill="#4C90C9"/>
<path d="M192.653 73.549C192.653 73.549 190.485 82.6184 178.216 93.6842C178.216 93.6842 177.045 92.0279 179.664 85.6453C182.284 79.2631 192.139 71.2861 192.653 73.549Z" fill="#7E9E6E"/>
<path d="M192.652 73.5469C192.652 73.5469 181.818 80.2928 178.214 93.682C178.214 93.682 177.387 98.3001 178.723 102.433" stroke="black" stroke-width="0.445714" stroke-miterlimit="10" stroke-linecap="round"/>
<path d="M164.333 79.173C164.333 79.173 167.38 77.1571 162.732 71.3365C158.318 65.807 153.589 60.7998 143.871 58.4531C143.871 58.4531 145.984 71.9556 152.185 75.5396C158.386 79.1231 164.333 79.173 164.333 79.173Z" fill="#7E9E6E"/>
<path d="M139.85 87.4296C139.85 87.4296 149.961 90.3236 167.724 85.6347C167.724 85.6347 166.761 83.7676 159.029 82.6649C151.296 81.5622 137.921 85.8058 139.85 87.4296Z" fill="#7E9E6E"/>
<path d="M139.852 87.4305C139.852 87.4305 152.572 81.7062 167.726 85.6356C167.726 85.6356 169.279 86.1317 170.748 88.3812" stroke="black" stroke-width="0.445714" stroke-miterlimit="10" stroke-linecap="round"/>
<path d="M147.754 97.2625C147.754 97.2625 158.263 105.189 176.027 100.5C176.027 100.5 173.037 94.1648 165.305 93.0621C157.572 91.9594 145.825 95.6388 147.754 97.2625Z" fill="#7E9E6E"/>
<path d="M147.756 97.2653C147.756 97.2653 159.937 92.5051 176.029 100.503C176.029 100.503 177.919 101.493 179.388 103.743" stroke="black" stroke-width="0.445714" stroke-miterlimit="10" stroke-linecap="round"/>
<path d="M187.15 64.477C187.15 64.477 190.413 64.2965 182.041 71.1008C174.137 77.5253 175.082 77.6403 175.082 77.6403C175.082 77.6403 178.576 67.4923 187.15 64.477Z" fill="black"/>
<path d="M169.43 80.7884C169.43 80.7884 171.788 81.8759 176.408 78.152C181.027 74.428 183.225 65.6096 187.15 64.4766C187.15 64.4766 177.326 66.9686 169.43 80.7884Z" fill="#7E9E6E"/>
<path d="M183.329 112.463C179.043 102.236 172.933 90.5374 164.334 79.173C164.334 79.173 162.244 76.0379 154.811 67.7819C147.379 59.526 143.873 58.4531 143.873 58.4531" stroke="black" stroke-width="0.445714" stroke-miterlimit="10" stroke-linecap="round"/>
<path d="M185.985 64.8828C185.985 64.8828 176.571 68.2921 169.432 80.7921C167.702 83.8203 169.373 86.4117 170.748 88.3853" stroke="black" stroke-width="0.445714" stroke-miterlimit="10" stroke-linecap="round"/>
<path d="M281.298 182.673C281.298 182.673 272.167 185.414 256.932 175.54C256.932 175.54 257.932 172.888 264.823 172.461C271.714 172.034 283.128 180.54 281.298 182.673Z" fill="#7E9E6E"/>
<path d="M280.958 181.998C280.958 181.998 270.928 174.106 257.112 175.274C257.112 175.274 252.488 176.067 249.057 178.73" stroke="black" stroke-width="0.445714" stroke-miterlimit="10" stroke-linecap="round"/>
<path d="M261.426 162.322C261.426 162.322 264.358 164.502 268.25 158.151C271.948 152.118 275.047 145.968 273.947 136.031C273.947 136.031 261.969 142.613 260.709 149.663C259.449 156.714 261.426 162.322 261.426 162.322Z" fill="#7E9E6E"/>
<path d="M284.976 173.666C284.976 173.666 286.893 176.313 276.642 172.953C266.963 169.78 267.378 170.637 267.378 170.637C267.378 170.637 277.802 168.085 284.976 173.666Z" fill="black"/>
<path d="M261.672 167.585C261.672 167.585 262.033 170.158 267.664 172.028C273.295 173.899 281.901 170.977 284.977 173.665C284.977 173.665 277.566 166.751 261.672 167.585Z" fill="#7E9E6E"/>
<path d="M236.584 191.512C244.743 184.002 253.664 174.276 261.425 162.322C261.425 162.322 263.661 159.29 268.896 149.491C274.13 139.693 273.946 136.031 273.946 136.031" stroke="black" stroke-width="0.445714" stroke-miterlimit="10" stroke-linecap="round"/>
<path d="M284.007 172.905C284.007 172.905 276.047 166.831 261.672 167.589C258.19 167.772 256.613 169.468 254.002 172.724" stroke="black" stroke-width="0.445714" stroke-miterlimit="10" stroke-linecap="round"/>
<path d="M186.35 91.8031C189.144 91.8031 191.849 90.8225 193.995 89.0325L199.947 84.0655C202.089 82.2782 204.633 81.3203 207.24 81.3203H236.781C239.462 81.3203 241.635 83.4936 241.635 86.1741V91.8026V193.121C241.635 197.746 237.885 201.496 233.259 201.496H85.9989C82.4011 201.496 79.4844 198.58 79.4844 194.982V98.3176C79.4844 94.7198 82.4011 91.8031 85.9989 91.8031H186.35Z" fill="#092338"/>
<path d="M79.4842 195.523C79.4842 195.523 89.5061 176.725 90.5085 174.566L117.898 118.766C118.587 117.283 120.073 116.334 121.708 116.334H223.49C227.19 116.334 232.542 114.395 235.383 112.024L239.49 108.597C241.632 106.809 244.177 105.852 246.784 105.852H274.897C277.889 105.852 279.921 108.891 278.778 111.657L244.783 193.877C242.878 198.486 238.382 201.492 233.395 201.492H81.3223C80.3311 201.492 79.4156 200.643 79.416 199.652L79.4842 195.523Z" fill="#1F74BB"/>
<path d="M120.884 121.641L80.6934 199.769" stroke="black" stroke-width="0.445714" stroke-miterlimit="10" stroke-linejoin="round"/>
<path d="M137.445 135.103H172.066C173.01 135.103 173.889 134.628 174.395 133.843C175.565 132.033 174.245 129.664 172.066 129.664H137.445C136.501 129.664 135.623 130.139 135.116 130.923C133.946 132.734 135.267 135.103 137.445 135.103Z" stroke="black" stroke-width="0.445714" stroke-miterlimit="10" stroke-linejoin="round"/>
<path d="M202.207 161.961L175.252 178.02" stroke="black" stroke-width="0.445714" stroke-miterlimit="10" stroke-linecap="round" stroke-linejoin="round"/>
<path d="M180.168 161.188L197.106 178.118" stroke="black" stroke-width="0.445714" stroke-miterlimit="10" stroke-linecap="round" stroke-linejoin="round"/>
<path d="M193.141 184.629C203.93 181.645 210.848 172.618 208.593 164.467C206.339 156.316 195.765 152.128 184.976 155.112C174.187 158.096 167.269 167.123 169.524 175.274C171.779 183.425 182.352 187.614 193.141 184.629Z" stroke="black" stroke-width="0.445714" stroke-miterlimit="10" stroke-linecap="round" stroke-linejoin="round"/>
<path d="M86.3621 85.6328L91.3608 91.2461C91.3608 91.2461 86.6714 96.7792 81.9085 93.5019L81.1445 92.4059L86.3621 85.6328Z" fill="#4C90C9"/>
<path d="M74.7461 52.1406C74.7461 52.1406 81.5949 53.9351 76.2063 73.7341" stroke="black" stroke-width="0.445714" stroke-miterlimit="10" stroke-linecap="round"/>
<path d="M86.7815 86.2239C83.0839 82.0693 78.5644 76.8491 75.8945 73.25" stroke="black" stroke-width="0.445714" stroke-miterlimit="10" stroke-linecap="round"/>
<path d="M81.9085 93.5009C78.3597 89.8625 73.5643 84.6837 71.4712 82.7645C68.2095 79.7733 64.8242 74.9605 65.9278 68.7775L65.7955 63.8203" stroke="black" stroke-width="0.445714" stroke-miterlimit="10" stroke-linecap="round"/>
<path d="M103.21 90.8467C98.84 88.4853 96.8267 85.5619 95.1414 83.3948C91.1211 78.2259 89.6966 77.5858 90.8746 71.5696L90.9392 65.2734L99.6614 74.7128C102.992 79.1311 110.671 87.0519 113.508 90.1728C113.508 90.1728 110.178 94.6112 103.21 90.8467Z" fill="#4C90C9"/>
<path d="M85.4228 89.2516C85.8248 89.1415 86.2416 89.1076 86.6561 89.1513C88.1519 89.3095 92.1602 89.7303 92.6126 89.7361C93.1697 89.7432 93.6226 88.9115 94.818 91.9268C96.0134 94.9416 95.799 95.2224 95.7919 95.6164C95.7852 96.0104 94.9178 101.8 93.9863 100.93C93.0547 100.061 93.18 99.5543 93.18 99.5543C93.18 99.5543 92.6777 101.905 92.4134 101.815C92.149 101.724 91.1698 101.721 91.3267 100.061C91.3267 100.061 90.7927 101.675 90.2423 101.273C89.6918 100.872 89.8153 99.1277 89.8153 99.1277C89.8153 99.1277 89.2261 100.437 88.553 99.5632C87.8804 98.6887 88.3814 96.6638 88.3814 96.6638L87.8176 95.1591L86.5977 94.6318C86.5977 94.6318 82.4913 95.706 81.7849 92.8556C81.2424 90.6654 84.0798 89.6188 85.4228 89.2516Z" fill="#DB9C7F"/>
<path d="M93.684 92.9453L94.455 96.1857L93.1816 99.5521" stroke="black" stroke-width="0.445714" stroke-miterlimit="10" stroke-linecap="round"/>
<path d="M91.7028 92.8281L92.7016 96.1491L91.3262 100.061" stroke="black" stroke-width="0.445714" stroke-miterlimit="10" stroke-linecap="round"/>
<path d="M89.9666 93.1953L90.5483 96.3884L89.8828 98.7801" stroke="black" stroke-width="0.445714" stroke-miterlimit="10" stroke-linecap="round"/>
<path d="M86.6146 31.6406C85.1575 33.0045 85.1362 34.663 85.1362 34.663C85.1362 34.663 84.6352 34.0444 84.0156 33.8456" stroke="black" stroke-width="0.445714" stroke-miterlimit="10" stroke-linecap="round"/>
<path d="M107.427 88.3255C108.812 87.9908 110.274 88.2172 111.542 88.867C113.211 89.7224 115.819 91.047 116.159 91.1487C116.664 91.2993 116.993 91.0261 117.06 94.093C117.086 95.3049 117.083 96.1415 116.975 96.4986C116.867 96.8551 114.417 100.515 113.612 100C113.591 99.9858 113.575 99.9742 113.555 99.9609C113.351 100.235 113.078 100.571 112.81 100.8C112.609 100.972 111.49 100.949 112.062 99.479C112.062 99.479 111.287 101.178 110.684 100.951C109.898 100.656 110.025 99.9007 110.312 99.2615C109.947 99.7545 109.495 100.156 109.173 99.7295C108.543 98.8925 109.971 95.9156 109.971 95.9156L110.138 94.1126L109.048 93.137C109.048 93.137 105.151 93.2324 105.246 90.4569C105.289 89.1835 106.321 88.5925 107.427 88.3255Z" fill="#DB9C7F"/>
<path d="M115.98 92.9766L115.93 96.265L113.531 99.7554" stroke="black" stroke-width="0.445714" stroke-miterlimit="10" stroke-linecap="round"/>
<path d="M114.276 93L114.088 96.3897L112.062 99.4829" stroke="black" stroke-width="0.445714" stroke-miterlimit="10" stroke-linecap="round"/>
<path d="M112.546 93.0938L112.303 95.9481L110.574 98.8158" stroke="black" stroke-width="0.445714" stroke-miterlimit="10" stroke-linecap="round"/>
<path d="M107.615 92.3234C107.615 92.3234 108.006 95.2656 107.057 95.9114C106.107 96.5572 104.576 90.4728 105.629 90.3952C107.172 90.2811 107.615 92.3234 107.615 92.3234Z" fill="#DB9C7F"/>
<path d="M108.909 91.8984C108.909 91.8984 107.965 92.05 107.695 93.1589" stroke="black" stroke-width="0.445714" stroke-miterlimit="10" stroke-linecap="round"/>
<path d="M90.5801 77.6551L95.1709 71.6719C99.3678 66.1196 96.5709 60.25 96.5709 60.25" stroke="black" stroke-width="0.445714" stroke-miterlimit="10" stroke-linecap="round"/>
<path d="M101.319 77.3342C101.319 77.3342 98.6146 73.5844 98 75.2442" stroke="black" stroke-width="0.445714" stroke-miterlimit="10" stroke-linecap="round"/>
<path d="M102.363 46.1328L101.584 45.9688" stroke="white" stroke-width="0.445714" stroke-miterlimit="10"/>
<path d="M86.0866 45.4062L80.3187 48.4246C80.3187 48.4246 80.1671 55.2699 86.6447 60.4727L89.5534 57.6465L92.4849 60.5788C92.4849 60.5788 93.6001 59.703 93.9312 55.7285L93.4084 50.9032L86.0866 45.4062Z" fill="white"/>
<path d="M93.4085 50.9032L86.0863 45.4062L80.3184 48.4246" stroke="black" stroke-width="0.445714" stroke-miterlimit="10" stroke-linecap="round" stroke-linejoin="round"/>
<path d="M84.4102 46.4413C84.4102 46.4413 86.1935 56.8683 88.8339 57.6073C91.4738 58.3458 93.1208 53.1319 93.1208 53.1319L88.0084 38.8984L84.4102 46.4413Z" fill="#DB9C7F"/>
<path d="M94.1009 54.3837L94.1325 55.6799C94.1566 55.6932 94.0799 56.0801 92.7945 56.2276C87.1468 56.0592 86.6998 49.7042 86.2402 44.6484C86.2402 44.6484 94.6223 53.3746 94.1009 54.3837Z" fill="black"/>
<path d="M102.007 40.2097C102.007 40.2097 103.458 53.426 95.7049 55.5734C87.9521 57.7209 86.0948 45.0782 86.3623 40.7057C86.6297 36.3333 88.8128 34.1738 94.2465 33.9781C102.285 33.6884 102.007 40.2097 102.007 40.2097Z" fill="#DB9C7F"/>
<path d="M90.3991 36.6241C90.3991 36.6241 90.2538 39.4018 88.4104 39.9567L87.0848 44.0417C87.0848 44.0417 85.9741 42.2263 84.7537 41.5831C84.7537 41.5831 83.4059 36.1886 85.1027 34.0452C86.7996 31.9017 89.1583 30.8151 94.8648 31.2898C99.2082 31.6508 101.749 34.732 102.579 36.2996C102.848 36.8077 103.501 38.2358 101.975 39.6251C101.975 39.6251 101.995 38.5741 101.104 37.3443C101.104 37.3443 99.0242 41.596 90.3991 36.6241Z" fill="black"/>
<path d="M82.9677 44.7396C83.446 46.4837 84.8179 47.6363 86.032 47.3145C87.2461 46.9927 87.8434 45.3182 87.3651 43.5741C86.8873 41.83 85.515 40.6774 84.3009 40.9992C83.0863 41.3214 82.4895 42.996 82.9677 44.7396Z" fill="#DB9C7F"/>
<path d="M94.1442 45.3266C94.1219 45.7759 94.3354 46.1516 94.6211 46.1663C94.9068 46.181 95.1559 45.8285 95.1778 45.3792C95.2001 44.9299 94.9866 44.5542 94.7009 44.5395C94.4156 44.5252 94.166 44.8778 94.1442 45.3266Z" fill="black"/>
<path d="M100.126 45.6987C100.082 46.1194 100.254 46.4831 100.511 46.5103C100.768 46.5375 101.012 46.2188 101.056 45.7976C101.1 45.3769 100.928 45.0132 100.671 44.986C100.414 44.9588 100.17 45.2779 100.126 45.6987Z" fill="black"/>
<path d="M92.4375 41.7652C92.4375 41.7652 94.4909 42.2051 94.6277 40.2578" stroke="black" stroke-width="0.445714" stroke-miterlimit="10" stroke-linecap="round"/>
<path d="M99.3945 41.6094C99.3945 41.6094 99.9178 43.4194 101.461 42.3715" stroke="black" stroke-width="0.445714" stroke-miterlimit="10" stroke-linecap="round"/>
<path d="M93.786 52.5648C93.786 52.5648 93.1089 49.8063 91.0078 51.3876L93.786 52.5648Z" fill="black"/>
<path d="M84.1855 43.2269C84.1855 43.2269 85.5512 42.052 86.2973 44.2003C86.2973 44.2003 85.4995 45.0472 86.0032 45.7117C86.0032 45.7117 85.2165 45.89 84.8287 45.1965" stroke="black" stroke-width="0.445714" stroke-miterlimit="10" stroke-linecap="round" stroke-linejoin="round"/>
<path d="M84.7754 44.0459C84.7754 44.0459 84.8516 43.5685 85.3816 43.0234" stroke="black" stroke-width="0.445714" stroke-miterlimit="10" stroke-linecap="round" stroke-linejoin="round"/>
<path d="M98.9395 45.6318C98.9395 46.9083 99.7239 47.9433 100.692 47.9433C101.66 47.9433 102.445 46.9083 102.445 45.6318C102.445 44.3553 101.66 43.3203 100.692 43.3203C99.7239 43.3203 98.9395 44.3553 98.9395 45.6318Z" stroke="white" stroke-width="0.445714" stroke-miterlimit="10"/>
<path d="M92.3789 45.3164C92.3789 46.6691 93.3778 47.7656 94.6097 47.7656C95.8417 47.7656 96.8405 46.6691 96.8405 45.3164C96.8405 43.9636 95.8417 42.8672 94.6097 42.8672C93.3778 42.8667 92.3789 43.9636 92.3789 45.3164Z" stroke="white" stroke-width="0.445714" stroke-miterlimit="10"/>
<path d="M99.017 46.2998C99.017 46.2998 98.4745 43.9977 96.7148 46.1367" stroke="white" stroke-width="0.445714" stroke-miterlimit="10"/>
<path d="M92.4263 44.3787L87.2422 43.2109" stroke="white" stroke-width="0.445714" stroke-miterlimit="10"/>
<path d="M99.2349 47.3203C99.4917 47.6461 99.5451 48.0343 99.4154 48.4542C99.2875 48.8687 98.865 49.121 98.4371 49.1121C98.2388 49.1081 98.0484 49.0546 97.8608 48.9958C97.7788 48.9703 97.6165 48.8825 97.5283 48.9213C97.1008 49.1103 96.603 48.7372 96.7456 48.4457" stroke="black" stroke-width="0.445714" stroke-miterlimit="10" stroke-linecap="round"/>
</g>
</svg>
