<svg width="48" height="48" viewBox="0 0 48 48" fill="none" xmlns="http://www.w3.org/2000/svg">
<rect width="48" height="48" rx="24" fill="white"/>
<path d="M14.6156 23.6894V27.4169H12.9181C12.6731 27.4169 12.4806 27.6138 12.4806 27.8544V36.6875C12.4806 36.9281 12.6731 37.125 12.9181 37.125H17.1925C17.4331 37.125 17.63 36.9281 17.63 36.6875V27.8544C17.63 27.6138 17.4331 27.4169 17.1925 27.4169H15.4906V24.1269H23.5625V27.4169H21.8606C21.62 27.4169 21.4231 27.6138 21.4231 27.8544V36.6875C21.4231 36.9281 21.62 37.125 21.8606 37.125H26.1393C26.38 37.125 26.5768 36.9281 26.5768 36.6875V27.8544C26.5768 27.6138 26.38 27.4169 26.1393 27.4169H24.4375V24.1269H32.5093V27.4169H30.8075C30.5668 27.4169 30.37 27.6138 30.37 27.8544V36.6875C30.37 36.9281 30.5668 37.125 30.8075 37.125H35.0818C35.3268 37.125 35.5193 36.9281 35.5193 36.6875V27.8544C35.5193 27.6138 35.3268 27.4169 35.0818 27.4169H33.3843V23.6894C33.3843 23.4488 33.1875 23.2519 32.9468 23.2519H24.4375V20.675C25.7106 20.5656 26.8875 19.9619 27.7275 18.9862C28.4931 18.0938 28.9131 16.9606 28.9131 15.7881C28.9131 13.08 26.7081 10.875 24 10.875C21.2918 10.875 19.0868 13.08 19.0868 15.7881C19.0868 16.9606 19.5068 18.0938 20.2725 18.9862C21.1125 19.9619 22.2893 20.5656 23.5625 20.675V23.2519H15.0531C14.8125 23.2519 14.6156 23.4488 14.6156 23.6894ZM20.9375 18.4131C20.7887 18.2381 20.6531 18.0544 20.535 17.8575C20.9987 17.0962 21.7075 16.51 22.5343 16.1906C22.1362 15.8056 21.8868 15.2675 21.8868 14.6725C21.8868 13.5044 22.8362 12.5594 24 12.5594C25.1637 12.5594 26.1131 13.5044 26.1131 14.6725C26.1131 15.2675 25.8637 15.8056 25.4656 16.1906C26.2925 16.51 27.0012 17.0962 27.465 17.8575C27.3468 18.0544 27.2112 18.2381 27.0625 18.4131C27.0056 18.4787 26.9443 18.5444 26.8831 18.61C26.3625 17.5075 25.2337 16.7856 24 16.7856C22.7662 16.7856 21.6375 17.5075 21.1168 18.61C21.0556 18.5444 20.9943 18.4787 20.9375 18.4131Z" fill="#1F74BB"/>
<path d="M24 15.9064C24.6825 15.9064 25.2381 15.3552 25.2381 14.6727C25.2381 13.9902 24.6825 13.4346 24 13.4346C23.3175 13.4346 22.7618 13.9902 22.7618 14.6727C22.7618 15.3552 23.3175 15.9064 24 15.9064Z" fill="#1F74BB"/>
</svg>
