<svg width="61" height="61" viewBox="0 0 61 61" fill="none" xmlns="http://www.w3.org/2000/svg">
<path d="M34.8161 52.2104C34.5097 49.1661 33.3317 46.2748 31.4234 43.8832C29.515 41.4916 26.9573 39.7012 24.0569 38.7267C26.3339 37.5843 28.1588 35.7069 29.2361 33.3984C30.3135 31.0899 30.5802 28.4854 29.9932 26.0064C29.4062 23.5274 27.9998 21.3191 26.0016 19.7388C24.0035 18.1585 21.5305 17.2988 18.983 17.2988C16.4355 17.2988 13.9625 18.1585 11.9643 19.7388C9.96616 21.3191 8.55976 23.5274 7.97276 26.0064C7.38576 28.4854 7.65252 31.0899 8.72985 33.3984C9.80718 35.7069 11.632 37.5843 13.909 38.7267C11.0086 39.7011 8.45083 41.4915 6.54242 43.8831C4.63401 46.2747 3.456 49.1661 3.14966 52.2104C3.0707 52.9998 3.15801 53.7969 3.40597 54.5504C3.65394 55.3039 4.05705 55.9971 4.58932 56.5853C5.1216 57.1735 5.77122 57.6436 6.49631 57.9653C7.22139 58.2871 8.00586 58.4533 8.79913 58.4533H29.1666C29.9599 58.4533 30.7444 58.2871 31.4694 57.9653C32.1945 57.6436 32.8442 57.1735 33.3764 56.5853C33.9087 55.9971 34.3118 55.3039 34.5598 54.5504C34.8077 53.7969 34.8951 52.9997 34.8161 52.2104Z" fill="#1F74BB" fill-opacity="0.5"/>
<path d="M43.2053 3.17188C39.3308 3.17679 35.6164 4.71811 32.8767 7.45781C30.137 10.1975 28.5956 13.9119 28.5907 17.7865C28.5823 18.0923 28.5993 18.3984 28.6416 18.7015C30.8413 20.8396 32.2714 23.6459 32.7085 26.6823C32.7667 27.1292 32.8006 27.5788 32.8101 28.0294C34.4995 29.7438 36.5863 31.0141 38.885 31.7275C41.1838 32.4408 43.6232 32.575 45.9863 32.1182C48.3494 31.6613 50.563 30.6276 52.4302 29.1088C54.2974 27.5901 55.7604 25.6335 56.689 23.4129C57.6176 21.1924 57.983 18.7768 57.7529 16.381C57.5227 13.9851 56.704 11.6833 55.3696 9.6802C54.0352 7.67709 52.2265 6.03478 50.1043 4.89933C47.9821 3.76387 45.6122 3.17046 43.2053 3.17188ZM49.3311 15.9565L42.977 22.3106C42.615 22.6688 42.1263 22.8698 41.6171 22.8698C41.1078 22.8698 40.6192 22.6688 40.2572 22.3106L37.0801 19.1335C36.7259 18.7747 36.5272 18.2907 36.5272 17.7864C36.5272 17.2821 36.7259 16.7981 37.0801 16.4392C37.4441 16.0848 37.932 15.8864 38.44 15.8864C38.948 15.8864 39.4359 16.0848 39.7999 16.4392L41.6292 18.2692L46.6114 13.2621C46.9753 12.9077 47.4632 12.7094 47.9713 12.7094C48.4793 12.7094 48.9672 12.9077 49.3311 13.2621C49.6851 13.6212 49.8835 14.1051 49.8835 14.6093C49.8835 15.1135 49.6851 15.5974 49.3311 15.9565Z" fill="#1F74BB" fill-opacity="0.5"/>
</svg>
