<svg width="32" height="32" viewBox="0 0 32 32" fill="none" xmlns="http://www.w3.org/2000/svg">
<rect width="32" height="32" rx="6" fill="#1F74BB"/>
<path d="M17.4159 23.1183C17.3154 22.1202 16.9292 21.1722 16.3035 20.3881C15.6778 19.6039 14.8392 19.0169 13.8883 18.6974C14.6348 18.3229 15.2331 17.7073 15.5864 16.9504C15.9396 16.1935 16.027 15.3396 15.8346 14.5268C15.6421 13.714 15.181 12.99 14.5259 12.4719C13.8707 11.9537 13.0599 11.6719 12.2247 11.6719C11.3894 11.6719 10.5786 11.9537 9.92347 12.4719C9.26833 12.99 8.80722 13.714 8.61476 14.5268C8.4223 15.3396 8.50976 16.1935 8.86299 16.9504C9.21621 17.7073 9.81452 18.3229 10.5611 18.6974C9.61012 19.0169 8.7715 19.6039 8.1458 20.388C7.52009 21.1722 7.13386 22.1202 7.03342 23.1183C7.00753 23.3771 7.03615 23.6384 7.11745 23.8855C7.19875 24.1326 7.33092 24.3598 7.50544 24.5527C7.67995 24.7455 7.89294 24.8997 8.13068 25.0051C8.36841 25.1106 8.62561 25.1651 8.8857 25.1651H15.5636C15.8237 25.1651 16.0809 25.1106 16.3186 25.0052C16.5563 24.8997 16.7693 24.7455 16.9438 24.5527C17.1183 24.3598 17.2505 24.1326 17.3318 23.8855C17.4131 23.6384 17.4417 23.3771 17.4159 23.1183Z" fill="white"/>
<path d="M20.1661 7.04297C18.8958 7.04458 17.678 7.54993 16.7797 8.44819C15.8814 9.34646 15.3761 10.5643 15.3745 11.8346C15.3717 11.9349 15.3773 12.0353 15.3911 12.1346C16.1124 12.8357 16.5812 13.7558 16.7246 14.7513C16.7436 14.8978 16.7548 15.0453 16.7579 15.193C17.3118 15.7551 17.996 16.1716 18.7497 16.4055C19.5033 16.6393 20.3031 16.6833 21.0779 16.5336C21.8527 16.3838 22.5785 16.0448 23.1907 15.5469C23.8029 15.0489 24.2825 14.4074 24.587 13.6794C24.8915 12.9513 25.0113 12.1593 24.9358 11.3738C24.8604 10.5883 24.5919 9.8336 24.1544 9.17685C23.7169 8.52009 23.1239 7.98163 22.4281 7.60935C21.7323 7.23707 20.9553 7.04251 20.1661 7.04297ZM22.1746 11.2346L20.0913 13.318C19.9726 13.4354 19.8124 13.5013 19.6454 13.5013C19.4784 13.5013 19.3182 13.4354 19.1995 13.318L18.1579 12.2763C18.0417 12.1586 17.9766 11.9999 17.9766 11.8346C17.9766 11.6693 18.0417 11.5106 18.1579 11.3929C18.2772 11.2767 18.4372 11.2117 18.6037 11.2117C18.7703 11.2117 18.9303 11.2767 19.0496 11.3929L19.6494 11.9929L21.2829 10.3513C21.4022 10.235 21.5622 10.17 21.7287 10.17C21.8953 10.17 22.0553 10.235 22.1746 10.3513C22.2907 10.469 22.3557 10.6276 22.3557 10.7929C22.3557 10.9582 22.2907 11.1169 22.1746 11.2346Z" fill="white"/>
</svg>
