<svg width="48" height="48" viewBox="0 0 48 48" fill="none" xmlns="http://www.w3.org/2000/svg">
<rect width="48" height="48" rx="24" fill="white"/>
<path d="M22.1791 22.2513H21.7941L22.0698 21.98C22.2758 21.7723 22.3913 21.4916 22.3913 21.1991C22.3913 20.9065 22.2758 20.6258 22.0698 20.4181L21.1291 19.4775C20.9214 19.2715 20.6407 19.1559 20.3482 19.1559C20.0557 19.1559 19.775 19.2715 19.5673 19.4775L19.296 19.7531V19.3681C19.2958 19.0758 19.1795 18.7955 18.9728 18.5888C18.7661 18.3821 18.4858 18.2659 18.1935 18.2656H16.8635C16.5712 18.2659 16.2909 18.3821 16.0842 18.5888C15.8775 18.7955 15.7613 19.0758 15.761 19.3681V19.7531L15.4898 19.4775C15.282 19.2715 15.0014 19.1559 14.7088 19.1559C14.4163 19.1559 14.1356 19.2715 13.9279 19.4775L12.9873 20.4181C12.7813 20.6258 12.6657 20.9065 12.6657 21.1991C12.6657 21.4916 12.7813 21.7723 12.9873 21.98L13.2629 22.2513H12.8735C12.5819 22.2524 12.3026 22.3691 12.0968 22.5757C11.891 22.7824 11.7754 23.0621 11.7754 23.3538V24.6838C11.7754 24.9754 11.891 25.2551 12.0968 25.4618C12.3026 25.6684 12.5819 25.7851 12.8735 25.7863H13.2629L12.9873 26.0619C12.7813 26.2687 12.6657 26.5487 12.6657 26.8406C12.6657 27.1325 12.7813 27.4125 12.9873 27.6194L13.9279 28.56C14.1356 28.766 14.4163 28.8816 14.7088 28.8816C15.0014 28.8816 15.282 28.766 15.4898 28.56L15.761 28.2844V28.6737C15.7613 28.9661 15.8775 29.2463 16.0842 29.453C16.2909 29.6597 16.5712 29.776 16.8635 29.7763H18.1935C18.4858 29.776 18.7661 29.6597 18.9728 29.453C19.1795 29.2463 19.2958 28.9661 19.296 28.6737V28.2844L19.5673 28.56C19.775 28.766 20.0557 28.8816 20.3482 28.8816C20.6407 28.8816 20.9214 28.766 21.1291 28.56L22.0698 27.6194C22.2757 27.4125 22.3913 27.1325 22.3913 26.8406C22.3913 26.5487 22.2757 26.2687 22.0698 26.0619L21.7941 25.7863H22.1791C22.4715 25.786 22.7517 25.6698 22.9584 25.4631C23.1651 25.2563 23.2814 24.9761 23.2816 24.6838V23.3538C23.2814 23.0614 23.1651 22.7812 22.9584 22.5745C22.7517 22.3677 22.4715 22.2515 22.1791 22.2513ZM17.5285 27.1163C16.7075 27.1147 15.9205 26.7879 15.3399 26.2073C14.7594 25.6268 14.4325 24.8398 14.431 24.0188C14.5798 19.9194 20.4816 19.9238 20.626 24.0188C20.6245 24.8398 20.2977 25.6268 19.7171 26.2073C19.1365 26.7879 18.3496 27.1147 17.5285 27.1163Z" fill="#1F74BB"/>
<path d="M17.5298 21.7969C14.5942 21.8931 14.5942 26.15 17.5298 26.2419C20.4655 26.15 20.4655 21.8931 17.5298 21.7969Z" fill="#1F74BB"/>
<path d="M32.732 17.5603C35.5102 17.4728 35.5102 13.4434 32.732 13.3516C29.9539 13.4434 29.9539 17.4728 32.732 17.5603Z" fill="#1F74BB"/>
<path d="M31.126 22.74H34.3373C34.7147 22.7434 35.0846 22.6346 35.4001 22.4274C35.7155 22.2202 35.9623 21.9239 36.1091 21.5762C36.9316 19.59 34.4554 18.1375 32.7316 18.1725C31.0079 18.1419 28.5316 19.59 29.3541 21.5762C29.5014 21.9236 29.7484 22.2195 30.0637 22.4266C30.3791 22.6338 30.7487 22.7428 31.126 22.74Z" fill="#1F74BB"/>
<path d="M32.7316 30.0787C31.0079 30.0438 28.5316 31.4919 29.3541 33.4781C29.5005 33.8265 29.747 34.1236 30.0625 34.3315C30.378 34.5395 30.7481 34.6491 31.126 34.6462H34.3373C34.7153 34.6497 35.0857 34.5404 35.4013 34.3323C35.7169 34.1242 35.9633 33.8269 36.1091 33.4781C36.9316 31.4919 34.4554 30.0437 32.7316 30.0787Z" fill="#1F74BB"/>
<path d="M32.732 25.2656C29.9539 25.3531 29.9539 29.3825 32.732 29.47C35.5102 29.3825 35.5102 25.3531 32.732 25.2656Z" fill="#1F74BB"/>
<path d="M28.3657 30.373L27.1101 30.3992V17.6328H28.3745C28.4892 17.6309 28.5987 17.584 28.6791 17.5021C28.7596 17.4203 28.8047 17.3101 28.8047 17.1953C28.8047 17.0805 28.7596 16.9704 28.6792 16.8885C28.5987 16.8067 28.4893 16.7597 28.3745 16.7578H26.6726C26.5567 16.7582 26.4456 16.8044 26.3636 16.8863C26.2816 16.9683 26.2354 17.0794 26.2351 17.1953V23.5654H24.9707C24.9132 23.5654 24.8564 23.5767 24.8033 23.5987C24.7502 23.6207 24.702 23.6529 24.6613 23.6936C24.6207 23.7342 24.5885 23.7824 24.5665 23.8355C24.5445 23.8886 24.5332 23.9455 24.5332 24.0029C24.5332 24.0604 24.5445 24.1173 24.5665 24.1703C24.5885 24.2234 24.6207 24.2717 24.6613 24.3123C24.702 24.3529 24.7502 24.3851 24.8033 24.4071C24.8564 24.4291 24.9132 24.4404 24.9707 24.4404H26.2351V30.8455C26.2361 30.9612 26.2825 31.0719 26.3643 31.1538C26.4462 31.2356 26.5569 31.282 26.6726 31.283C26.6807 31.2834 28.3744 31.248 28.3832 31.248C28.4407 31.2469 28.4974 31.2345 28.55 31.2114C28.6027 31.1884 28.6503 31.1552 28.6901 31.1137C28.7299 31.0723 28.7612 31.0234 28.7821 30.9699C28.8031 30.9164 28.8132 30.8592 28.8121 30.8018C28.8109 30.7443 28.7985 30.6876 28.7754 30.635C28.7524 30.5823 28.7192 30.5347 28.6777 30.4949C28.6363 30.4551 28.5874 30.4239 28.5339 30.4029C28.4803 30.382 28.4232 30.3718 28.3657 30.373Z" fill="#1F74BB"/>
</svg>
