<svg width="74" height="53" viewBox="0 0 74 53" fill="none" xmlns="http://www.w3.org/2000/svg">
<path d="M36.5525 26.25C43.8012 26.25 49.6775 20.3737 49.6775 13.125C49.6775 5.87626 43.8012 0 36.5525 0C29.3038 0 23.4275 5.87626 23.4275 13.125C23.4275 20.3737 29.3038 26.25 36.5525 26.25Z" fill="#1F74BB" fill-opacity="0.5"/>
<path d="M45.9779 28.875C43.1345 30.5923 39.8759 31.5 36.5541 31.5C33.2324 31.5 29.9738 30.5923 27.1304 28.875C23.5448 31.1282 20.5975 34.264 18.5707 37.9823C16.5438 41.7005 15.5052 45.8767 15.5541 50.1112C15.5888 50.7749 15.884 51.3981 16.3755 51.8453C16.867 52.2926 17.5152 52.5279 18.1791 52.5H54.9291C55.5931 52.5279 56.2413 52.2926 56.7328 51.8453C57.2243 51.3981 57.5195 50.7749 57.5541 50.1112C57.6031 45.8767 56.5645 41.7005 54.5376 37.9823C52.5107 34.264 49.5635 31.1282 45.9779 28.875Z" fill="#1F74BB" fill-opacity="0.5"/>
<path d="M22.8992 25.4103C20.5503 22.8261 19.0003 19.6168 18.4367 16.1703C17.5012 15.8841 16.5275 15.7425 15.5492 15.7503C13.498 15.7527 11.4925 16.3559 9.78022 17.4853C8.06797 18.6147 6.72401 20.2209 5.91433 22.1055C5.10464 23.9901 4.86468 26.0706 5.22409 28.0901C5.5835 30.1096 6.52653 31.9795 7.93672 33.4691C9.41148 35.0394 11.3378 36.1127 13.4492 36.5403C14.3121 34.7618 15.3498 33.0735 16.5467 31.5003C18.3361 29.1536 20.4792 27.0991 22.8992 25.4103Z" fill="#1F74BB" fill-opacity="0.5"/>
<path d="M4.13202 37.0781C2.00583 39.8179 0.606274 43.0504 0.063274 46.4756C-0.0523891 47.2093 -0.00912443 47.9593 0.19014 48.6749C0.389405 49.3904 0.740022 50.0548 1.21827 50.6231C1.71891 51.2057 2.33905 51.6736 3.03658 51.9952C3.73411 52.3168 4.49268 52.4845 5.26077 52.4869H10.7208C10.4352 51.7232 10.2928 50.9134 10.3008 50.0981C10.2927 47.1749 10.7083 44.2659 11.5345 41.4619C8.70431 40.7248 6.13889 39.2055 4.13202 37.0781Z" fill="#1F74BB" fill-opacity="0.5"/>
<path d="M68.0551 26.2503C68.0551 23.4655 66.9488 20.7948 64.9797 18.8257C63.0106 16.8566 60.3399 15.7503 57.5551 15.7503C56.5768 15.7425 55.6031 15.8841 54.6676 16.1703C54.1058 19.6226 52.5453 22.8348 50.1788 25.4103C52.6367 27.1014 54.808 29.1751 56.6101 31.5528C57.7898 33.109 58.8099 34.7799 59.6551 36.5403C61.7363 36.1034 63.6383 35.0517 65.1151 33.5216C66.9975 31.5686 68.0511 28.9628 68.0551 26.2503Z" fill="#1F74BB" fill-opacity="0.5"/>
<path d="M73.0433 46.4865C72.4882 43.0633 71.0698 39.838 68.922 37.1152L68.8958 37.1415C66.9027 39.2355 64.3672 40.735 61.572 41.4727C62.3983 44.2768 62.8139 47.1858 62.8058 50.109C62.8137 50.9243 62.6713 51.734 62.3858 52.4977H67.8195C68.5919 52.4982 69.3553 52.332 70.0575 52.0103C70.7597 51.6887 71.3842 51.2192 71.8883 50.634C72.3665 50.0657 72.7171 49.4013 72.9164 48.6857C73.1157 47.9702 73.1589 47.2202 73.0433 46.4865Z" fill="#1F74BB" fill-opacity="0.5"/>
</svg>
