<svg width="38" height="38" viewBox="0 0 38 38" fill="none" xmlns="http://www.w3.org/2000/svg">
<rect width="38" height="38" rx="19" fill="#112740"/>
<path d="M27.2706 10H17.7699C17.1886 10.0006 16.6313 10.2318 16.2203 10.6429C15.8093 11.0539 15.5781 11.6112 15.5774 12.1925V16.5774H11.1925C10.6112 16.578 10.0539 16.8092 9.64287 17.2202C9.23184 17.6312 9.00064 18.1885 9 18.7698V23.8855C9.00114 24.8543 9.38649 25.7831 10.0715 26.4681C10.7566 27.1531 11.6853 27.5385 12.6541 27.5396H13.3849C14.3537 27.5385 15.2825 27.1531 15.9675 26.4681C16.6526 25.7831 17.0379 24.8543 17.0391 23.8855V12.1925C17.0392 11.9987 17.1163 11.8129 17.2533 11.6759C17.3903 11.5389 17.5761 11.4618 17.7699 11.4616H27.2706C27.4644 11.4618 27.6502 11.5389 27.7872 11.6759C27.9242 11.8129 28.0013 11.9987 28.0014 12.1925V18.7698C28.0014 18.9636 28.0784 19.1495 28.2155 19.2866C28.3526 19.4236 28.5384 19.5006 28.7323 19.5006C28.9261 19.5006 29.112 19.4236 29.249 19.2866C29.3861 19.1495 29.4631 18.9636 29.4631 18.7698V12.1925C29.4625 11.6112 29.2313 11.0539 28.8202 10.6429C28.4092 10.2318 27.8519 10.0006 27.2706 10ZM15.5774 23.8855C15.5768 24.4668 15.3456 25.0241 14.9346 25.4351C14.5235 25.8461 13.9662 26.0773 13.3849 26.078H12.6541C12.0728 26.0773 11.5155 25.8461 11.1045 25.4351C10.6935 25.0241 10.4623 24.4668 10.4616 23.8855V18.7698C10.4618 18.576 10.5389 18.3902 10.6759 18.2532C10.8129 18.1162 10.9987 18.0392 11.1925 18.039H15.5774V23.8855Z" fill="white"/>
<path d="M28.419 21.3724L25.1309 19.349C24.7858 19.1349 24.3877 19.0215 23.9815 19.0215C23.5754 19.0215 23.1773 19.1349 22.8321 19.349L19.5434 21.3724C19.2238 21.5677 18.9595 21.8421 18.7768 22.1692C18.5941 22.4962 18.4988 22.8648 18.5 23.2394V26.8078C18.5007 27.3891 18.7318 27.9464 19.1429 28.3574C19.5539 28.7684 20.1112 28.9996 20.6925 29.0003H27.2699C27.8512 28.9996 28.4085 28.7684 28.8195 28.3574C29.2305 27.9464 29.4617 27.3891 29.4624 26.8078V23.2394C29.4636 22.8648 29.3683 22.4961 29.1855 22.1691C29.0027 21.842 28.7387 21.5676 28.419 21.3724ZM28.0007 26.8078C28.0006 27.0016 27.9235 27.1874 27.7865 27.3244C27.6495 27.4614 27.4637 27.5385 27.2699 27.5386H20.6925C20.4987 27.5385 20.3129 27.4614 20.1759 27.3244C20.0389 27.1874 19.9618 27.0016 19.9617 26.8078V23.2394C19.9613 23.1145 19.9931 22.9916 20.0541 22.8826C20.115 22.7736 20.203 22.6821 20.3096 22.617L23.5987 20.5938C23.7136 20.5224 23.8463 20.4846 23.9816 20.4846C24.1169 20.4846 24.2495 20.5224 24.3644 20.5938L27.6532 22.617C27.7597 22.6822 27.8476 22.7737 27.9085 22.8827C27.9694 22.9917 28.0011 23.1145 28.0007 23.2394V26.8078Z" fill="white"/>
<path d="M19.2308 14.3855H22.1541C22.348 14.3855 22.5338 14.3085 22.6709 14.1714C22.808 14.0344 22.8849 13.8485 22.8849 13.6546C22.8849 13.4608 22.808 13.2749 22.6709 13.1379C22.5338 13.0008 22.348 12.9238 22.1541 12.9238H19.2308C19.037 12.9238 18.8511 13.0008 18.7141 13.1379C18.577 13.2749 18.5 13.4608 18.5 13.6546C18.5 13.8485 18.577 14.0344 18.7141 14.1714C18.8511 14.3085 19.037 14.3855 19.2308 14.3855Z" fill="white"/>
<path d="M19.2308 17.3093H25.0774C25.2713 17.3093 25.4571 17.2323 25.5942 17.0952C25.7313 16.9582 25.8082 16.7723 25.8082 16.5785C25.8082 16.3846 25.7313 16.1988 25.5942 16.0617C25.4571 15.9247 25.2713 15.8477 25.0774 15.8477H19.2308C19.037 15.8477 18.8511 15.9247 18.7141 16.0617C18.577 16.1988 18.5 16.3846 18.5 16.5785C18.5 16.7723 18.577 16.9582 18.7141 17.0952C18.8511 17.2323 19.037 17.3093 19.2308 17.3093Z" fill="white"/>
</svg>
