<svg width="18" height="18" viewBox="0 0 18 18" fill="none" xmlns="http://www.w3.org/2000/svg">
<path d="M9 8.25C6.9 8.25 5.25 6.6 5.25 4.5C5.25 2.4 6.9 0.75 9 0.75C11.1 0.75 12.75 2.4 12.75 4.5C12.75 6.6 11.1 8.25 9 8.25ZM9 2.25C7.725 2.25 6.75 3.225 6.75 4.5C6.75 5.775 7.725 6.75 9 6.75C10.275 6.75 11.25 5.775 11.25 4.5C11.25 3.225 10.275 2.25 9 2.25Z" fill="#1A2B3C"/>
<path d="M15.75 17.25C15.3 17.25 15 16.95 15 16.5C15 13.2 12.3 10.5 9 10.5C5.7 10.5 3 13.2 3 16.5C3 16.95 2.7 17.25 2.25 17.25C1.8 17.25 1.5 16.95 1.5 16.5C1.5 12.375 4.875 9 9 9C13.125 9 16.5 12.375 16.5 16.5C16.5 16.95 16.2 17.25 15.75 17.25Z" fill="#1A2B3C"/>
<path d="M8.25 17.25C8.025 17.25 7.875 17.175 7.725 17.025L6.225 15.525C5.925 15.225 5.925 14.775 6.225 14.475C6.525 14.175 6.975 14.175 7.275 14.475L8.25 15.45L10.725 12.975C11.025 12.675 11.475 12.675 11.775 12.975C12.075 13.275 12.075 13.725 11.775 14.025L8.775 17.025C8.625 17.175 8.475 17.25 8.25 17.25Z" fill="#1A2B3C"/>
</svg>
