<svg width="38" height="38" viewBox="0 0 38 38" fill="none" xmlns="http://www.w3.org/2000/svg">
<rect width="38" height="38" rx="19" fill="#112740"/>
<g clip-path="url(#clip0_2301_4126)">
<path d="M15.3635 18.0273H22.6362C22.7363 18.0273 22.818 18.1248 22.818 18.2043V18.9123C22.818 19.0098 22.7363 19.0893 22.6362 19.0893H15.3635C15.2633 19.0893 15.1816 18.9918 15.1816 18.9123V18.2043C15.1816 18.1069 15.2633 18.0273 15.3635 18.0273Z" fill="white"/>
<path d="M15.3635 20.1504H22.6362C22.7363 20.1504 22.818 20.2479 22.818 20.3274V21.0353C22.818 21.1328 22.7363 21.2123 22.6362 21.2123H15.3635C15.2633 21.2123 15.1816 21.1149 15.1816 21.0353V20.3274C15.1816 20.2299 15.2633 20.1504 15.3635 20.1504Z" fill="white"/>
<path d="M15.3635 22.2734H20.4544C20.5545 22.2734 20.6362 22.3709 20.6362 22.4504V23.1584C20.6362 23.2559 20.5545 23.3354 20.4544 23.3354H15.3635C15.2633 23.3354 15.1816 23.2379 15.1816 23.1584V22.4504C15.1816 22.3529 15.2633 22.2734 15.3635 22.2734Z" fill="white"/>
<path d="M25.3858 14.7759L22.8843 12.3408C22.4688 11.9364 21.7693 11.6543 21.1819 11.6543H13.5455C12.6429 11.6543 11.9092 12.3685 11.9092 13.2472V25.9906C11.9092 26.8693 12.6429 27.5835 13.5455 27.5835H24.4546C25.3573 27.5835 26.091 26.8693 26.091 25.9906V16.4331C26.091 15.8613 25.8013 15.1803 25.3858 14.7759ZM24.6145 15.5267C24.7103 15.62 24.7977 15.7556 24.8652 15.9021H22.3637C22.0633 15.9021 21.8183 15.6636 21.8183 15.3711V12.8897C21.9333 12.9478 22.0363 13.0176 22.113 13.0916L24.6145 15.5267ZM24.4547 26.5216H13.5456C13.2459 26.5216 13.0001 26.2823 13.0001 25.9906V13.2472C13.0001 12.9555 13.2459 12.7163 13.5456 12.7163H20.7274V15.3711C20.7274 16.2492 21.4618 16.964 22.3638 16.964H25.0001V25.9906C25.0001 26.2823 24.7544 26.5216 24.4547 26.5216Z" fill="white"/>
</g>
<defs>
<clipPath id="clip0_2301_4126">
<rect width="20" height="20" fill="white" transform="translate(9 9)"/>
</clipPath>
</defs>
</svg>
