<svg width="18" height="18" viewBox="0 0 18 18" fill="none" xmlns="http://www.w3.org/2000/svg">
<g clip-path="url(#clip0_2301_4228)">
<path d="M6.85596 5.34375C6.56518 5.34375 6.32861 5.10718 6.32861 4.81641C6.32861 4.38472 6.86267 4.01857 7.42612 4.56448C7.6353 4.76712 7.96914 4.76184 8.17178 4.5527C8.37446 4.34352 8.36915 4.00968 8.16001 3.80704C7.92193 3.57638 7.65727 3.41336 7.3833 3.32135V2.63672C7.3833 2.34548 7.14719 2.10938 6.85596 2.10938C6.56472 2.10938 6.32861 2.34548 6.32861 2.63672V3.3248C5.68543 3.55345 5.27392 4.15357 5.27392 4.81641C5.27392 5.68874 5.98362 6.39844 6.85596 6.39844C7.14673 6.39844 7.3833 6.635 7.3833 6.92578C7.3833 7.38018 6.77963 7.7786 6.17139 7.05438C5.98408 6.83139 5.65147 6.80242 5.42844 6.98973C5.20541 7.17704 5.17647 7.50969 5.36378 7.73269C5.64887 8.07212 5.98071 8.30489 6.32865 8.42203V9.03516C6.32865 9.32639 6.56476 9.5625 6.85599 9.5625C7.14723 9.5625 7.38333 9.32639 7.38333 9.03516V8.41736C7.38805 8.4157 7.39276 8.41426 7.39743 8.41257C8.0198 8.18589 8.43799 7.58837 8.43799 6.92578C8.43799 6.05345 7.72829 5.34375 6.85596 5.34375Z" fill="#1A2B3C"/>
<path d="M17.2955 6.17389L14.8359 4.53421V0.527344C14.8359 0.236109 14.5998 0 14.3086 0H3.69141C3.40017 0 3.16406 0.236109 3.16406 0.527344V4.56648C0.338379 6.87765 0.530086 6.71379 0.426691 6.82414C0.42402 6.8271 0.421172 6.82995 0.41857 6.83293C0.150645 7.12308 0 7.50277 0 7.90425V16.418C0 17.2898 0.70991 18 1.58203 18H16.418C17.2908 18 18 17.289 18 16.418V7.49025C18 6.96009 17.7366 6.46801 17.2955 6.17389ZM14.8359 5.80177L16.6628 7.01968L14.8359 8.97349V5.80177ZM4.21875 1.05469H13.7812C13.7812 1.46633 13.7812 9.74454 13.7812 10.1014L12.0088 11.9969C11.1659 11.3201 10.1053 10.9495 9 10.9495C7.89557 10.9495 6.83575 11.3195 5.99316 11.9953L4.21875 10.0782C4.21875 9.7213 4.21875 1.46704 4.21875 1.05469ZM3.16406 5.929V8.93876L1.57859 7.2258L3.16406 5.929ZM1.05469 16.3105V8.21247L5.19609 12.6868L1.05469 16.3105ZM1.93085 16.9453L6.53403 12.9175C7.91684 11.7076 10.0832 11.7076 11.466 12.9175L16.0691 16.9453H1.93085ZM16.9453 16.3105L12.806 12.6886L16.9453 8.26186V16.3105Z" fill="#1A2B3C"/>
<path d="M12.1992 3.23438H10.0898C9.79861 3.23438 9.5625 3.47048 9.5625 3.76172C9.5625 4.05295 9.79861 4.28906 10.0898 4.28906H12.1992C12.4905 4.28906 12.7266 4.05295 12.7266 3.76172C12.7266 3.47048 12.4905 3.23438 12.1992 3.23438Z" fill="#1A2B3C"/>
<path d="M12.1992 5.34375H10.0898C9.79861 5.34375 9.5625 5.57986 9.5625 5.87109C9.5625 6.16233 9.79861 6.39844 10.0898 6.39844H12.1992C12.4905 6.39844 12.7266 6.16233 12.7266 5.87109C12.7266 5.57986 12.4905 5.34375 12.1992 5.34375Z" fill="#1A2B3C"/>
<path d="M12.1992 7.45312H10.0898C9.79861 7.45312 9.5625 7.68923 9.5625 7.98047C9.5625 8.2717 9.79861 8.50781 10.0898 8.50781H12.1992C12.4905 8.50781 12.7266 8.2717 12.7266 7.98047C12.7266 7.68923 12.4905 7.45312 12.1992 7.45312Z" fill="#1A2B3C"/>
</g>
<defs>
<clipPath id="clip0_2301_4228">
<rect width="18" height="18" fill="white"/>
</clipPath>
</defs>
</svg>
