<svg width="38" height="38" viewBox="0 0 38 38" fill="none" xmlns="http://www.w3.org/2000/svg">
<rect width="38" height="38" rx="19" fill="#112740"/>
<path d="M18.9999 9C17.39 9 15.8163 9.47738 14.4778 10.3718C13.1393 11.2661 12.096 12.5374 11.4799 14.0247C10.8639 15.512 10.7027 17.1486 11.0168 18.7275C11.3308 20.3064 12.106 21.7567 13.2444 22.8951C14.3827 24.0334 15.833 24.8086 17.4119 25.1227C18.9909 25.4367 20.6274 25.2755 22.1148 24.6595C23.6021 24.0434 24.8733 23.0002 25.7677 21.6616C26.662 20.3231 27.1394 18.7494 27.1394 17.1395C27.137 14.9816 26.2786 12.9127 24.7527 11.3867C23.2268 9.86081 21.1579 9.00246 18.9999 9ZM18.9999 23.8837C17.666 23.8837 16.3621 23.4882 15.253 22.7471C14.1439 22.0061 13.2795 20.9528 12.7691 19.7204C12.2586 18.4881 12.1251 17.1321 12.3853 15.8238C12.6455 14.5156 13.2878 13.3139 14.231 12.3707C15.1742 11.4275 16.3759 10.7852 17.6842 10.5249C18.9924 10.2647 20.3484 10.3983 21.5808 10.9087C22.8131 11.4192 23.8664 12.2836 24.6075 13.3927C25.3485 14.5017 25.7441 15.8057 25.7441 17.1395C25.7416 18.9274 25.0303 20.6414 23.766 21.9057C22.5018 23.1699 20.7878 23.8813 18.9999 23.8837Z" fill="white"/>
<path d="M26.6743 23.6513C26.6718 24.6991 26.2545 25.7033 25.5136 26.4442C24.7727 27.1851 23.7686 27.6024 22.7208 27.6048H19.9301C19.7451 27.6048 19.5676 27.6783 19.4368 27.8092C19.3059 27.94 19.2324 28.1175 19.2324 28.3025C19.2324 28.4875 19.3059 28.665 19.4368 28.7958C19.5676 28.9267 19.7451 29.0002 19.9301 29.0002H22.7208C24.1386 28.9977 25.4977 28.4334 26.5003 27.4308C27.5028 26.4283 28.0672 25.0692 28.0696 23.6513V22.7211C28.0696 22.5361 27.9961 22.3586 27.8653 22.2278C27.7344 22.0969 27.557 22.0234 27.372 22.0234C27.1869 22.0234 27.0095 22.0969 26.8786 22.2278C26.7478 22.3586 26.6743 22.5361 26.6743 22.7211V23.6513Z" fill="white"/>
<path d="M28.3022 14.582C28.1179 14.5844 27.9418 14.6587 27.8115 14.789C27.6812 14.9194 27.6069 15.0954 27.6045 15.2797V19.0006C27.6045 19.1857 27.678 19.3631 27.8088 19.494C27.9397 19.6248 28.1171 19.6983 28.3022 19.6983C28.4872 19.6983 28.6647 19.6248 28.7955 19.494C28.9263 19.3631 28.9998 19.1857 28.9998 19.0006V15.2797C28.9974 15.0954 28.9232 14.9194 28.7928 14.789C28.6625 14.6587 28.4865 14.5844 28.3022 14.582Z" fill="white"/>
<path d="M9.69767 19.6983C9.88196 19.6959 10.058 19.6216 10.1883 19.4913C10.3187 19.361 10.3929 19.1849 10.3953 19.0006V15.2797C10.3953 15.0947 10.3218 14.9172 10.191 14.7864C10.0602 14.6555 9.88271 14.582 9.69767 14.582C9.51264 14.582 9.33518 14.6555 9.20434 14.7864C9.0735 14.9172 9 15.0947 9 15.2797V19.0006C9.00241 19.1849 9.07669 19.361 9.20701 19.4913C9.33733 19.6216 9.51339 19.6959 9.69767 19.6983Z" fill="white"/>
<path d="M21.8562 18.3021C21.7638 18.2931 21.6705 18.3027 21.5818 18.3303C21.4932 18.3579 21.4109 18.4029 21.3399 18.4627C21.2688 18.5225 21.2104 18.5958 21.1681 18.6784C21.1258 18.7611 21.1004 18.8513 21.0934 18.9439C21.0304 19.4409 20.777 19.8941 20.3867 20.2082C19.9963 20.5222 19.4993 20.6726 19.0004 20.6276C18.5014 20.6726 18.0044 20.5222 17.6141 20.2082C17.2237 19.8941 16.9704 19.4409 16.9073 18.9439C16.8925 18.7589 16.8048 18.5873 16.6635 18.4669C16.5222 18.3466 16.3389 18.2873 16.1539 18.3021C15.9688 18.3169 15.7972 18.4046 15.6769 18.5459C15.5565 18.6872 15.4972 18.8705 15.512 19.0556C15.597 19.9052 16.0078 20.6889 16.6582 21.2422C17.3086 21.7955 18.1481 22.0753 19.0004 22.023C19.8527 22.0753 20.6921 21.7955 21.3425 21.2422C21.9929 20.6889 22.4038 19.9052 22.4887 19.0556C22.5018 18.8724 22.4431 18.6914 22.325 18.5507C22.207 18.4101 22.0388 18.3209 21.8562 18.3021Z" fill="white"/>
</svg>
