<svg width="18" height="18" viewBox="0 0 18 18" fill="none" xmlns="http://www.w3.org/2000/svg">
<g clip-path="url(#clip0_2301_4221)">
<path d="M16.2425 4.30507L16.2398 4.30057C15.606 3.21481 14.1973 2.82817 13.0973 3.43945L10.8671 4.68631L7.44119 2.80189C6.72659 2.40877 5.85287 2.43361 5.16149 2.86561L3.85415 3.68281C3.71501 3.77011 3.62267 3.91609 3.60413 4.07971C3.58523 4.24315 3.64211 4.40641 3.75857 4.52269L6.41213 7.17625L5.24519 7.82839L3.89987 6.93163C3.71843 6.81085 3.48227 6.81085 3.30083 6.93163L1.68083 8.01163C1.55321 8.09659 1.46771 8.23177 1.44611 8.38333C1.42397 8.53489 1.46717 8.68897 1.56527 8.80651L3.10085 10.649C3.94109 11.6568 5.36381 11.9867 6.56189 11.4518L15.177 7.60447C16.4432 7.04251 16.94 5.50189 16.2425 4.30507ZM14.7375 6.61825L6.12125 10.4657C5.36291 10.8043 4.46165 10.5952 3.93065 9.95743L2.77991 8.57683L3.60053 8.02963L4.92101 8.91001C5.08985 9.02251 5.30711 9.03043 5.48423 8.93215L7.56251 7.77043C7.71011 7.68799 7.81037 7.54075 7.83359 7.37299C7.85681 7.20559 7.80029 7.03675 7.68059 6.91705L5.00219 4.23865L5.73353 3.78145C6.09479 3.55645 6.54875 3.54421 6.92063 3.74797L10.3473 5.63293C10.6758 5.81329 11.0676 5.81149 11.394 5.62897L13.6231 4.38283C14.2117 4.05451 14.9673 4.26259 15.3074 4.84633L15.3095 4.84957C15.6841 5.49181 15.4195 6.31531 14.7375 6.61825Z" fill="#1A2B3C"/>
<path d="M14.3996 14.9404C14.3996 15.2387 14.158 15.4804 13.8596 15.4804H4.13961C3.84117 15.4804 3.59961 15.2387 3.59961 14.9404C3.59961 14.6421 3.84117 14.4004 4.13961 14.4004H13.8596C14.158 14.4004 14.3996 14.6421 14.3996 14.9404Z" fill="#1A2B3C"/>
</g>
<defs>
<clipPath id="clip0_2301_4221">
<rect width="18" height="18" fill="white"/>
</clipPath>
</defs>
</svg>
