<svg width="38" height="38" viewBox="0 0 38 38" fill="none" xmlns="http://www.w3.org/2000/svg">
<rect width="38" height="38" rx="19" fill="#112740"/>
<g clip-path="url(#clip0_2301_4150)">
<path d="M19.1624 25.0508H13.7767C13.4621 25.0508 13.2064 24.7944 13.2064 24.4805L13.2057 13.0934C13.2057 12.7788 13.4621 12.5231 13.7767 12.5231H22.7725C23.0872 12.5231 23.3428 12.7788 23.3428 13.0934V18.3028C23.3428 18.6168 23.5971 18.871 23.911 18.871C24.225 18.871 24.4792 18.6168 24.4792 18.3028V13.0934C24.4792 12.1523 23.7136 11.3867 22.7725 11.3867H13.7767C12.8357 11.3867 12.0693 12.1523 12.0693 13.0934V24.4805C12.0693 25.4222 12.835 26.1872 13.776 26.1872H19.1616C19.4756 26.1872 19.7298 25.9329 19.7298 25.619C19.7305 25.3058 19.4763 25.0508 19.1624 25.0508Z" fill="white"/>
<path d="M15.5506 15.2555H17.5946C17.9085 15.2555 18.1628 15.0012 18.1628 14.6873C18.1628 14.3734 17.9085 14.1191 17.5946 14.1191H15.5506C15.2367 14.1191 14.9824 14.3734 14.9824 14.6873C14.9824 15.0012 15.2374 15.2555 15.5506 15.2555Z" fill="white"/>
<path d="M21.5726 17.4197C21.5726 17.1058 21.3183 16.8516 21.0044 16.8516H15.5506C15.2367 16.8516 14.9824 17.1058 14.9824 17.4197C14.9824 17.7337 15.2367 17.9879 15.5506 17.9879H21.0037C21.3176 17.9879 21.5726 17.7337 21.5726 17.4197Z" fill="white"/>
<path d="M15.5526 19.5859C15.2386 19.5859 14.9844 19.8402 14.9844 20.1541C14.9844 20.468 15.2386 20.7223 15.5526 20.7223H20.2273C20.5412 20.7223 20.7955 20.468 20.7955 20.1541C20.7955 19.8402 20.5412 19.5859 20.2273 19.5859H15.5526Z" fill="white"/>
<path d="M27.3036 21.5249L24.4996 20.1165C24.18 19.956 23.7993 19.956 23.4783 20.1165L20.675 21.5249C20.2844 21.7209 20.045 22.1122 20.0479 22.5462C20.0578 23.6136 20.3419 27.1889 23.5982 28.3636C23.7232 28.4091 23.8561 28.4325 23.9896 28.4325C24.1217 28.4325 24.2552 28.4098 24.3788 28.3658C27.6373 27.191 27.9213 23.615 27.9313 22.5468C27.9334 22.1129 27.6935 21.7209 27.3036 21.5249ZM23.9932 27.2961C23.9911 27.2976 23.989 27.2961 23.9861 27.2961H23.9847C21.4869 26.3949 21.1934 23.6676 21.1851 22.5412L23.9898 21.1328L26.7945 22.5377C26.7839 23.6676 26.4912 26.3949 23.9934 27.2962L23.9932 27.2961Z" fill="white"/>
<path d="M23.22 23.8997C22.9977 23.6774 22.639 23.6774 22.4167 23.8997C22.1944 24.122 22.1944 24.4814 22.4167 24.703L23.127 25.4132C23.2377 25.524 23.3834 25.5794 23.5289 25.5794C23.6745 25.5794 23.8201 25.524 23.9309 25.4132L25.5609 23.7825C25.7832 23.5602 25.7832 23.2008 25.5609 22.9792C25.3386 22.7569 24.9799 22.7569 24.7576 22.9792L23.5289 24.2079L23.22 23.8997Z" fill="white"/>
</g>
<defs>
<clipPath id="clip0_2301_4150">
<rect width="20" height="20" fill="white" transform="translate(10 9)"/>
</clipPath>
</defs>
</svg>
