<svg width="32" height="32" viewBox="0 0 32 32" fill="none" xmlns="http://www.w3.org/2000/svg">
<path d="M21.83 2H10.1699C9.05994 2 8.16992 2.90002 8.16992 4V4.78003H23.83V4C23.83 2.90002 22.9399 2 21.83 2Z" fill="white"/>
<path d="M5.23999 8.78027V9.55023H26.76V8.78027C26.76 7.67023 25.87 6.78027 24.76 6.78027H7.23999C6.13 6.78027 5.23999 7.67023 5.23999 8.78027Z" fill="white"/>
<path d="M4.31006 29.9998H27.6901C28.8 29.9998 29.6901 29.0998 29.6901 27.9998V13.5498C29.6901 12.4498 28.8 11.5498 27.6901 11.5498H4.31006C3.20007 11.5498 2.31006 12.4498 2.31006 13.5498V27.9998C2.31006 29.0998 3.20007 29.9998 4.31006 29.9998ZM11.1201 16.5298H20.8801C21.4301 16.5298 21.8801 16.9698 21.8801 17.5298C21.8801 18.0798 21.4301 18.5298 20.8801 18.5298H11.1201C10.5701 18.5298 10.1201 18.0798 10.1201 17.5298C10.1201 16.9698 10.5701 16.5298 11.1201 16.5298Z" fill="white"/>
</svg>
