<svg width="32" height="32" viewBox="0 0 32 32" fill="none" xmlns="http://www.w3.org/2000/svg">
<path fill-rule="evenodd" clip-rule="evenodd" d="M21.1812 22.0941C21.0625 21.8879 21.1313 21.6191 21.3438 21.5004C21.55 21.3754 21.8188 21.4504 21.9438 21.6566L23.0938 23.6504L27.1812 19.5629C27.35 19.3941 27.6312 19.3941 27.8 19.5629C27.9688 19.7316 27.9688 20.0129 27.8 20.1816L23.3062 24.6754C23.1062 24.8754 22.7625 24.8379 22.6187 24.5879L21.1812 22.0941ZM25.9562 15.9254C26.4062 16.0254 26.8375 16.1691 27.25 16.3566C28.3438 12.6816 27.3187 8.73789 24.6437 6.06289C22.7687 4.18789 20.1812 3.02539 17.3188 3.02539C11.6 3.02539 6.95625 7.66289 6.95625 13.3879C6.95625 14.5004 7.13125 15.5629 7.45 16.5629C7.78125 17.5941 8.275 18.5566 8.89375 19.4254C9.00625 19.5754 9.0125 19.7816 8.9 19.9441L8.03125 21.1441L9.56875 22.6879L10.7625 21.8129C10.9125 21.7004 11.1187 21.6941 11.275 21.8066C13.2312 23.2129 15.625 23.9004 18.0625 23.7254C17.975 23.2879 17.925 22.8379 17.925 22.3754C14.65 22.5879 11.525 21.0191 9.75 18.2629C8.50625 16.3316 7.99375 13.9254 8.5125 11.5066C8.51875 11.4941 8.51875 11.4754 8.525 11.4629C9.04375 9.03789 10.5 7.06289 12.4375 5.81289C14.3687 4.56914 16.775 4.05664 19.1938 4.57539C19.2125 4.57539 19.225 4.58164 19.2375 4.58164C21.6562 5.11289 23.6375 6.56914 24.8813 8.50039C26.1313 10.4379 26.6375 12.8504 26.1125 15.2816L25.9562 15.9254ZM28.025 16.7754C31.6125 19.0254 32.1938 24.0379 29.1875 27.0441C26.6063 29.6254 22.425 29.6254 19.85 27.0441C19.1625 26.3566 18.625 25.5191 18.2938 24.5816C15.6938 24.8004 13.1562 24.1379 11.0188 22.6941L10.1313 23.3441C10.2313 23.5379 10.275 23.7441 10.275 23.9566C10.275 24.3004 10.1438 24.6504 9.88125 24.9129L5.34375 29.4504C4.81875 29.9754 3.95625 29.9754 3.43125 29.4504L1.26875 27.2879C0.74375 26.7629 0.74375 25.9004 1.26875 25.3754L5.80625 20.8379C6.06875 20.5754 6.41875 20.4441 6.7625 20.4441C6.9625 20.4441 7.1625 20.4879 7.35 20.5754L8 19.6754C4.9875 15.2316 5.55 9.25039 9.3625 5.43789C11.3938 3.40664 14.2062 2.15039 17.3062 2.15039C24.2687 2.15039 29.55 8.41289 28.3875 15.2816C28.3 15.7941 28.1812 16.2879 28.025 16.7754ZM17.975 21.4941C18.2125 19.6941 19.175 18.1129 20.5875 17.0691C20.1938 16.9691 19.7875 16.9129 19.375 16.9129H15.25C13.6812 16.9129 12.2437 17.6691 11.3375 18.9004C13.0187 20.7254 15.475 21.7004 17.975 21.4941ZM28.575 18.3191C26.3375 16.0816 22.7062 16.0816 20.4688 18.3191C18.2313 20.5566 18.2313 24.1879 20.4688 26.4254C22.7062 28.6629 26.3375 28.6629 28.575 26.4254C30.8125 24.1879 30.8125 20.5629 28.575 18.3191ZM17.3125 8.56914C15.325 8.56914 13.7125 10.1816 13.7125 12.1691C13.7125 14.1566 15.325 15.7754 17.3125 15.7754C19.3 15.7754 20.9188 14.1629 20.9188 12.1691C20.9188 10.1754 19.3 8.56914 17.3125 8.56914ZM9.2625 23.6254L7.10625 21.4629C7.0125 21.3691 6.8875 21.3254 6.76875 21.3254C6.65 21.3254 6.525 21.3754 6.43125 21.4691L1.8875 26.0004C1.70625 26.1879 1.70625 26.4941 1.8875 26.6754L4.05 28.8379C4.2375 29.0254 4.54375 29.0254 4.725 28.8379L9.2625 24.3004C9.35625 24.2066 9.4 24.0816 9.4 23.9629C9.40625 23.8379 9.35625 23.7191 9.2625 23.6254Z" fill="white"/>
</svg>
