<svg width="32" height="32" viewBox="0 0 32 32" fill="none" xmlns="http://www.w3.org/2000/svg">
<path d="M13.07 4.99023C18.99 5.18023 18.99 13.7602 13.07 13.9502C7.15004 13.7602 7.15004 5.18023 13.07 4.99023ZM16.39 15.7402C16.39 15.4902 16.4 15.2502 16.44 15.0102H4.04004C3.50004 15.0102 3.04004 15.4402 3.04004 15.9802C3.06004 22.1102 7.19004 27.0902 13.07 27.0102C16.21 27.0102 18.89 25.6502 20.69 23.3802C21.09 22.8702 20.86 22.1402 20.28 21.8602C17.99 20.7802 16.4 18.4402 16.4 15.7502L16.39 15.7402ZM28.93 15.7402C28.67 23.3502 17.68 23.3902 17.39 15.7402C17.66 8.13023 28.65 8.08023 28.93 15.7402ZM26.18 15.0602H23.66V12.5402H22.66V15.0102H23.07V15.0602H20.13V16.0602H22.66V18.5802H23.66V16.0602H26.18V15.0602Z" fill="white"/>
</svg>
