<svg width="32" height="32" viewBox="0 0 32 32" fill="none" xmlns="http://www.w3.org/2000/svg">
<path d="M13.8478 4.84L14.0088 4.229C14.2858 3.18 15.1528 2.396 16.2198 2.202C16.9088 2.078 17.5958 2.01 18.2818 2C18.9688 2.01 19.6558 2.078 20.3438 2.203C21.4108 2.397 22.2778 3.181 22.5548 4.23L22.7158 4.841C23.0248 6.012 22.1428 7.158 20.9318 7.158H15.6318C14.4208 7.158 13.5388 6.011 13.8478 4.84Z" fill="white"/>
<path d="M25.6899 5.16992H24.5719C24.6069 6.01492 24.3509 6.84692 23.8209 7.53592C23.1259 8.43892 22.0719 8.95692 20.9319 8.95692H15.6309C14.4909 8.95692 13.4379 8.43892 12.7419 7.53592C12.2119 6.84692 11.9559 6.01492 11.9909 5.16992H10.8799C8.83993 5.16992 7.17993 6.82992 7.17993 8.86992V19.0749H7.18193C10.6899 19.0749 13.5439 21.9289 13.5439 25.4369C13.5439 26.2869 13.3729 27.0979 13.0689 27.8399H25.6899C27.7299 27.8399 29.3799 26.1899 29.3799 24.1499V8.85992C29.3799 6.81992 27.7299 5.16992 25.6899 5.16992ZM13.3799 19.5009H12.8609C12.3639 19.5009 11.9609 19.0979 11.9609 18.6009C11.9609 18.1039 12.3639 17.7009 12.8609 17.7009H13.3799C13.8769 17.7009 14.2799 18.1039 14.2799 18.6009C14.2799 19.0979 13.8769 19.5009 13.3799 19.5009ZM13.3799 15.3109H12.8609C12.3639 15.3109 11.9609 14.9079 11.9609 14.4109C11.9609 13.9139 12.3639 13.5109 12.8609 13.5109H13.3799C13.8769 13.5109 14.2799 13.9139 14.2799 14.4109C14.2799 14.9079 13.8769 15.3109 13.3799 15.3109ZM23.7039 19.5009H16.7389C16.2419 19.5009 15.8389 19.0979 15.8389 18.6009C15.8389 18.1039 16.2419 17.7009 16.7389 17.7009H23.7039C24.2009 17.7009 24.6039 18.1039 24.6039 18.6009C24.6039 19.0979 24.2009 19.5009 23.7039 19.5009ZM23.7039 15.3109H16.7389C16.2419 15.3109 15.8389 14.9079 15.8389 14.4109C15.8389 13.9139 16.2419 13.5109 16.7389 13.5109H23.7039C24.2009 13.5109 24.6039 13.9139 24.6039 14.4109C24.6039 14.9079 24.2009 15.3109 23.7039 15.3109Z" fill="white"/>
<path d="M7.18092 20.875C4.66092 20.875 2.61792 22.918 2.61792 25.438C2.61792 27.958 4.66092 30.001 7.18092 30.001C9.70092 30.001 11.7439 27.958 11.7439 25.438C11.7439 22.918 9.70092 20.875 7.18092 20.875ZM9.29692 25.361L7.06992 27.156C6.90992 27.285 6.70992 27.355 6.50592 27.355C6.47192 27.355 6.43792 27.353 6.40392 27.349C6.16492 27.322 5.94592 27.2 5.79792 27.011L4.92192 25.895C4.61492 25.504 4.68392 24.938 5.07392 24.631C5.46592 24.322 6.03092 24.393 6.33792 24.783L6.65092 25.182L8.16792 23.96C8.55592 23.648 9.12092 23.71 9.43392 24.096C9.74492 24.483 9.68492 25.049 9.29692 25.361Z" fill="white"/>
</svg>
