<svg width="32" height="32" viewBox="0 0 32 32" fill="none" xmlns="http://www.w3.org/2000/svg">
<g clip-path="url(#clip0_2048_19674)">
<path d="M13.0837 6.11727C13.0837 4.11352 14.7188 2.47852 16.7225 2.47852C18.7262 2.47852 20.36 4.11352 20.36 6.11727C20.36 8.12102 18.7262 9.75477 16.7225 9.75477C14.7188 9.75477 13.0837 8.12102 13.0837 6.11727ZM31.0625 14.5948L31.0144 14.5573C29.9813 13.7848 28.5094 13.9973 27.735 15.0285L27.1556 15.8048L22.4056 12.3448C21.7731 11.8823 21.1 11.6641 20.3169 11.6641H13.4856C13.4219 11.6641 13.36 11.666 13.2994 11.6679C13.7 12.0898 13.9462 12.6585 13.9462 13.2816V28.206C13.9462 28.6916 13.7956 29.1448 13.5406 29.5204H19.7663C20.705 29.5204 21.4725 28.7535 21.4725 27.8141V17.536L24.9681 20.0835L26.2419 21.0366C27.275 21.8091 28.7469 21.5985 29.5194 20.5654L31.5338 17.8723C32.3081 16.841 32.0956 15.3691 31.0625 14.5948ZM10.8088 27.416H2.105V14.1504C2.30312 14.6623 2.80125 15.0273 3.38438 15.0273H9.53C10.1131 15.0273 10.6106 14.6623 10.8094 14.1504V27.416H10.8088ZM6.97312 25.221C6.97312 24.936 6.74125 24.7054 6.45563 24.7054H4.08C3.795 24.7054 3.56437 24.936 3.56437 25.221C3.56437 25.506 3.79437 25.7366 4.08 25.7366H6.45563C6.74125 25.7366 6.97312 25.5066 6.97312 25.221ZM9.34937 22.3829C9.34937 22.0979 9.11875 21.8654 8.83375 21.8654H4.08C3.795 21.8654 3.56437 22.0973 3.56437 22.3829C3.56437 22.6679 3.79437 22.8985 4.08 22.8985H8.83313C9.11875 22.8985 9.34937 22.6685 9.34937 22.3829ZM4.08 20.0604H6.45563C6.74062 20.0604 6.97312 19.8285 6.97312 19.5429C6.97312 19.2591 6.74125 19.0273 6.45563 19.0273H4.08C3.795 19.0273 3.56437 19.2591 3.56437 19.5429C3.56437 19.8285 3.795 20.0604 4.08 20.0604ZM9.34937 16.7048C9.34937 16.4198 9.11875 16.1891 8.83375 16.1891H4.08C3.795 16.1891 3.56437 16.4198 3.56437 16.7048C3.56437 16.9898 3.79437 17.2204 4.08 17.2204H8.83313C9.11875 17.2204 9.34937 16.9904 9.34937 16.7048ZM11.5994 11.9673H10.9012V13.041H11.3244C11.6094 13.041 11.84 13.2716 11.84 13.5566V27.9316C11.84 28.2166 11.61 28.4473 11.3244 28.4473H1.58938C1.30438 28.4473 1.07375 28.2166 1.07375 27.9316V13.5566C1.07375 13.2716 1.30438 13.041 1.58938 13.041H2.0125V11.9673H1.31438C0.591875 11.9673 0 12.5591 0 13.2823V28.2066C0 28.9298 0.591875 29.521 1.31438 29.521H11.5988C12.3219 29.521 12.9131 28.9291 12.9131 28.2066V13.2823C12.9137 12.5591 12.3219 11.9673 11.5994 11.9673ZM3.38375 13.9941H9.52938C9.71562 13.9941 9.8675 13.8416 9.8675 13.656V11.5298C9.8675 11.3435 9.715 11.1916 9.52938 11.1916H7.9C7.9 9.29414 5.01375 9.29414 5.01375 11.1916H3.38375C3.1975 11.1916 3.04562 11.3441 3.04562 11.5298V13.656C3.04562 13.8416 3.19812 13.9941 3.38375 13.9941Z" fill="white"/>
</g>
<defs>
<clipPath id="clip0_2048_19674">
<rect width="32" height="32" fill="white"/>
</clipPath>
</defs>
</svg>
