<svg width="32" height="32" viewBox="0 0 32 32" fill="none" xmlns="http://www.w3.org/2000/svg">
<path d="M26.7538 18.2777C27.0819 16.7772 27.0819 15.2235 26.7538 13.723L28.746 12.1201C29.063 11.8642 29.2754 11.501 29.343 11.0992C29.4107 10.6974 29.3289 10.2848 29.1132 9.93913L27.1978 6.87273C26.9826 6.52597 26.6474 6.2705 26.256 6.155C25.8646 6.0395 25.4444 6.07204 25.0754 6.24642L22.759 7.33366C21.8555 6.62519 20.8462 6.06321 19.7681 5.66832L19.4621 3.13447C19.4133 2.73008 19.2182 2.35754 18.9136 2.08718C18.6089 1.81682 18.2158 1.66735 17.8085 1.66699H14.1913C13.7839 1.66751 13.3907 1.817 13.0859 2.0873C12.7811 2.35759 12.5856 2.73003 12.5363 3.13445L12.2317 5.66832C11.1537 6.06344 10.1444 6.6254 9.24076 7.33366L6.92696 6.24773C6.5582 6.07249 6.13782 6.03922 5.74608 6.15427C5.35435 6.26931 5.01872 6.52461 4.80327 6.87142L2.88655 9.93913C2.67081 10.2848 2.58905 10.6974 2.6567 11.0992C2.72434 11.501 2.93672 11.8642 3.25374 12.1201L5.24598 13.723C4.91786 15.2235 4.91786 16.7772 5.24598 18.2777L3.25379 19.8805C2.93676 20.1365 2.72438 20.4996 2.65672 20.9014C2.58907 21.3032 2.67082 21.7159 2.88655 22.0615L4.80191 25.1279C5.01751 25.4742 5.35275 25.7293 5.74399 25.8447C6.13523 25.9602 6.55525 25.928 6.92431 25.7542L9.24076 24.667C10.1443 25.3755 11.1536 25.9374 12.2317 26.3323L12.5376 28.8662C12.5864 29.2706 12.7816 29.6431 13.0862 29.9135C13.3909 30.1838 13.784 30.3333 14.1913 30.3337H17.8085C18.2159 30.3331 18.609 30.1836 18.9139 29.9134C19.2187 29.6431 19.4142 29.2706 19.4634 28.8662L19.7681 26.3323C20.8461 25.9372 21.8554 25.3753 22.759 24.667L25.0728 25.7529C25.4416 25.9281 25.8619 25.9613 26.2536 25.8462C26.6453 25.7312 26.981 25.476 27.1965 25.1292L29.1132 22.0615C29.329 21.7159 29.4107 21.3032 29.3431 20.9014C29.2754 20.4996 29.063 20.1365 28.746 19.8805L26.7538 18.2777ZM15.9999 21.667C14.8791 21.667 13.7835 21.3346 12.8517 20.712C11.9198 20.0893 11.1935 19.2043 10.7646 18.1689C10.3357 17.1334 10.2234 15.994 10.4421 14.8948C10.6607 13.7956 11.2004 12.7859 11.9929 11.9934C12.7854 11.2009 13.7951 10.6612 14.8944 10.4425C15.9936 10.2239 17.133 10.3361 18.1684 10.765C19.2039 11.1939 20.0889 11.9202 20.7115 12.8521C21.3342 13.784 21.6665 14.8796 21.6665 16.0003C21.665 17.5027 21.0675 18.9432 20.0051 20.0055C18.9427 21.0679 17.5023 21.6654 15.9999 21.667Z" fill="white"/>
<path d="M15.9999 19.6673C18.025 19.6673 19.6666 18.0257 19.6666 16.0007C19.6666 13.9756 18.025 12.334 15.9999 12.334C13.9749 12.334 12.3333 13.9756 12.3333 16.0007C12.3333 18.0257 13.9749 19.6673 15.9999 19.6673Z" fill="white"/>
</svg>
