<svg width="32" height="32" viewBox="0 0 32 32" fill="none" xmlns="http://www.w3.org/2000/svg">
<path d="M20.1676 8.52573C18.9499 7.23439 17.0583 7.21973 16.9783 7.21973H15.0219C14.9419 7.21973 13.0499 7.23439 11.8326 8.52539C11.1226 9.27639 10.9909 11.2307 10.9756 12.3284C10.9746 12.4177 11.0096 12.5037 11.0723 12.5671C11.1349 12.6304 11.2213 12.6664 11.3103 12.6664H20.6909C20.7803 12.6664 20.8656 12.6307 20.9283 12.5671C20.9909 12.5037 21.0256 12.4174 21.0243 12.3284C21.0086 11.2304 20.8769 9.27606 20.1676 8.52573Z" fill="white"/>
<path d="M26.414 13.2523C26.2836 13.122 26.073 13.122 25.9426 13.2523L25.3333 13.8617V11.3333C25.3333 11.1493 25.1843 11 25 11H22C21.8156 11 21.6666 11.1493 21.6666 11.3333C21.6666 11.5173 21.8156 11.6667 22 11.6667H24.6666V13.8617L24.0573 13.2523C23.927 13.122 23.7163 13.122 23.586 13.2523C23.4556 13.3823 23.4556 13.5933 23.586 13.7237L24.764 14.902C24.7946 14.9327 24.831 14.957 24.8716 14.974C24.912 14.991 24.9553 15 25 15C25.0446 15 25.088 14.991 25.1283 14.974C25.169 14.957 25.2053 14.9327 25.236 14.902L26.414 13.7237C26.5443 13.5933 26.5443 13.3823 26.414 13.2523Z" fill="white"/>
<path d="M24.6667 24.667C24.4824 24.667 24.3334 24.8163 24.3334 25.0003V26.667H21.8047L22.414 26.0573C22.5444 25.927 22.5444 25.716 22.414 25.586C22.2837 25.4557 22.073 25.4557 21.9427 25.586L20.7647 26.7643C20.7337 26.795 20.7094 26.832 20.6924 26.873C20.6587 26.9543 20.6587 27.0463 20.6924 27.1277C20.7094 27.1687 20.7337 27.2053 20.7647 27.2363L21.9427 28.4147C22.0077 28.4797 22.093 28.5123 22.1784 28.5123C22.2637 28.5123 22.349 28.4797 22.414 28.4147C22.5444 28.2847 22.5444 28.0737 22.414 27.9433L21.8047 27.3337H24.6667C24.851 27.3337 25 27.1843 25 27.0003V25.0003C25 24.8163 24.851 24.667 24.6667 24.667Z" fill="white"/>
<path d="M11.3077 27.1273C11.3414 27.0457 11.3414 26.954 11.3077 26.8727C11.2907 26.832 11.2664 26.795 11.2357 26.7643L10.0574 25.586C9.92703 25.4557 9.71637 25.4557 9.58603 25.586C9.4557 25.7163 9.4557 25.927 9.58603 26.0573L10.1957 26.667H7.66703V25.0003C7.66703 24.8163 7.5177 24.667 7.3337 24.667C7.1497 24.667 7.00037 24.8163 7.00037 25.0003V27.0003C7.00037 27.1843 7.1497 27.3337 7.3337 27.3337H10.1957L9.58603 27.9433C9.4557 28.0737 9.4557 28.2843 9.58603 28.4147C9.65103 28.4797 9.73637 28.5123 9.8217 28.5123C9.90703 28.5123 9.99237 28.4797 10.0574 28.4147L11.2357 27.2363C11.2664 27.2057 11.2907 27.1687 11.3077 27.128V27.1273Z" fill="white"/>
<path d="M20.3076 19.1277C20.3413 19.0464 20.3413 18.9544 20.3076 18.873C20.2906 18.832 20.2663 18.7954 20.2353 18.7644L19.0573 17.586C18.9269 17.4557 18.7163 17.4557 18.5859 17.586C18.4556 17.716 18.4556 17.927 18.5859 18.0574L19.1953 18.667H12.8046L13.4143 18.0574C13.5446 17.927 13.5446 17.7164 13.4143 17.586C13.2839 17.4557 13.0733 17.4557 12.9429 17.586L11.7646 18.7644C11.7339 18.795 11.7096 18.832 11.6926 18.8727C11.6589 18.9544 11.6589 19.046 11.6926 19.1274C11.7096 19.168 11.7339 19.205 11.7646 19.2357L12.9429 20.414C13.0079 20.479 13.0933 20.5117 13.1786 20.5117C13.2639 20.5117 13.3493 20.479 13.4143 20.414C13.5446 20.2837 13.5446 20.073 13.4143 19.9427L12.8046 19.333H19.1953L18.5859 19.9427C18.4556 20.073 18.4556 20.284 18.5859 20.414C18.6509 20.479 18.7363 20.5117 18.8216 20.5117C18.9069 20.5117 18.9923 20.479 19.0573 20.414L20.2353 19.2357C20.2663 19.205 20.2906 19.168 20.3076 19.127V19.1277Z" fill="white"/>
<path d="M10 11H7C6.816 11 6.66667 11.1493 6.66667 11.3333V13.862L6.057 13.2523C5.92666 13.122 5.716 13.122 5.58567 13.2523C5.45533 13.3827 5.45533 13.5933 5.58567 13.7237L6.764 14.902C6.79467 14.9327 6.83167 14.957 6.87233 14.974C6.913 14.991 6.95633 14.9997 6.99967 14.9997C7.043 14.9997 7.08633 14.9907 7.127 14.974C7.16767 14.957 7.20466 14.9327 7.23533 14.902L8.41366 13.7237C8.544 13.5933 8.544 13.3827 8.41366 13.2523C8.28333 13.122 8.07266 13.122 7.94233 13.2523L7.33266 13.862V11.6667H9.99933C10.1833 11.6667 10.3327 11.5173 10.3327 11.3333C10.3327 11.1493 10.1833 11 9.99933 11H10Z" fill="white"/>
<path d="M16 23.333C13.9784 23.333 12.3334 24.978 12.3334 26.9997C12.3334 29.0213 13.9784 30.6663 16 30.6663C18.0217 30.6663 19.6667 29.0213 19.6667 26.9997C19.6667 24.978 18.0217 23.333 16 23.333ZM17.8174 26.1137L15.5744 28.3567C15.5094 28.4217 15.424 28.4543 15.3387 28.4543C15.2534 28.4543 15.168 28.4217 15.103 28.3567L13.9104 27.164C13.78 27.0337 13.78 26.823 13.9104 26.6927C14.0407 26.5623 14.2514 26.5623 14.3817 26.6927L15.3387 27.6497L17.346 25.6423C17.4764 25.512 17.687 25.512 17.8174 25.6423C17.9477 25.7727 17.9477 25.9833 17.8174 26.1137Z" fill="white"/>
<path d="M4.90004 22.6667C4.58704 22.6667 4.33337 22.413 4.33337 22.1V17H3.66671C3.48271 17 3.33337 17.1493 3.33337 17.3333V23.3333C3.33337 23.5173 3.48271 23.6667 3.66671 23.6667H9.00004C9.18404 23.6667 9.33337 23.5173 9.33337 23.3333V22.6667H4.90004Z" fill="white"/>
<path d="M10.3333 15.667H4.99996C4.81596 15.667 4.66663 15.8163 4.66663 16.0003V22.0003C4.66663 22.1843 4.81596 22.3337 4.99996 22.3337H10.3333C10.5173 22.3337 10.6666 22.1843 10.6666 22.0003V16.0003C10.6666 15.8163 10.5173 15.667 10.3333 15.667ZM7.99996 21.0003H6.33329C6.14929 21.0003 5.99996 20.851 5.99996 20.667C5.99996 20.483 6.14929 20.3337 6.33329 20.3337H7.99996C8.18396 20.3337 8.33329 20.483 8.33329 20.667C8.33329 20.851 8.18396 21.0003 7.99996 21.0003ZM8.99996 19.3337H6.33329C6.14929 19.3337 5.99996 19.1843 5.99996 19.0003C5.99996 18.8163 6.14929 18.667 6.33329 18.667H8.99996C9.18396 18.667 9.33329 18.8163 9.33329 19.0003C9.33329 19.1843 9.18396 19.3337 8.99996 19.3337ZM8.99996 17.667H6.33329C6.14929 17.667 5.99996 17.5177 5.99996 17.3337C5.99996 17.1497 6.14929 17.0003 6.33329 17.0003H8.99996C9.18396 17.0003 9.33329 17.1497 9.33329 17.3337C9.33329 17.5177 9.18396 17.667 8.99996 17.667Z" fill="white"/>
<path d="M16 6.66634C17.4728 6.66634 18.6667 5.47243 18.6667 3.99967C18.6667 2.52692 17.4728 1.33301 16 1.33301C14.5273 1.33301 13.3334 2.52692 13.3334 3.99967C13.3334 5.47243 14.5273 6.66634 16 6.66634Z" fill="white"/>
<path d="M28.5803 20.6791L27.9997 20.3441C28.0553 20.0024 28.0553 19.6517 27.9997 19.3091L28.5807 18.9737C28.657 18.9294 28.713 18.8567 28.736 18.7714C28.7587 18.6861 28.747 18.5951 28.7027 18.5184L27.9067 17.1394C27.8143 16.9797 27.61 16.9251 27.4513 17.0174L26.87 17.3527C26.734 17.2404 26.5913 17.1407 26.4443 17.0557C26.2977 16.9711 26.14 16.8974 25.9743 16.8357V16.1644C25.9743 15.9804 25.8253 15.8311 25.641 15.8311H24.0487C23.8643 15.8311 23.7153 15.9804 23.7153 16.1644V16.8354C23.3907 16.9581 23.087 17.1334 22.819 17.3524L22.2383 17.0171C22.079 16.9251 21.875 16.9794 21.783 17.1391L20.987 18.5177C20.895 18.6774 20.9497 18.8811 21.109 18.9731L21.6897 19.3081C21.634 19.6497 21.634 20.0004 21.6897 20.3431L21.1087 20.6784C20.949 20.7704 20.8943 20.9744 20.9867 21.1337L21.7827 22.5124C21.8747 22.6721 22.079 22.7261 22.238 22.6344L22.819 22.2991C22.9557 22.4117 23.0983 22.5114 23.245 22.5961C23.3917 22.6807 23.549 22.7547 23.715 22.8164V23.4874C23.715 23.6714 23.864 23.8207 24.0483 23.8207H25.6407C25.825 23.8207 25.974 23.6714 25.974 23.4874V22.8164C26.2987 22.6937 26.6023 22.5184 26.8703 22.2994L27.451 22.6347C27.61 22.7261 27.814 22.6721 27.9063 22.5127L28.7023 21.1341C28.7943 20.9744 28.7397 20.7711 28.5803 20.6791ZM26.2467 19.8261C26.2467 20.5994 25.6173 21.2287 24.8443 21.2287C24.0713 21.2287 23.442 20.5994 23.442 19.8261C23.442 19.0527 24.0713 18.4234 24.8443 18.4234C25.6173 18.4234 26.2467 19.0527 26.2467 19.8261Z" fill="white"/>
</svg>
